<?xml version="1.0" standalone="no"?>
<!DOCTYPE svg PUBLIC "-//W3C//DTD SVG 1.1//EN" "http://www.w3.org/Graphics/SVG/1.1/DTD/svg11.dtd" >
<svg xmlns="http://www.w3.org/2000/svg" xmlns:xlink="http://www.w3.org/1999/xlink" version="1.1">
<metadata>
Created by FontForge 20170731 at Thu Mar 14 18:44:14 2013
 By Aleksey,,,
Copyright (c) 2013 by Nathanael Bonnell. All rights reserved.
</metadata>
<defs>
<font id="Walleye-Italic" horiz-adv-x="604" >
  <font-face 
    font-family="Walleye"
    font-weight="400"
    font-style="italic"
    font-stretch="normal"
    units-per-em="1000"
    panose-1="2 0 5 3 0 0 0 9 0 3"
    ascent="725"
    descent="-275"
    x-height="444"
    cap-height="639"
    bbox="-288 -285 1303 871"
    underline-thickness="45"
    underline-position="-179"
    slope="-12"
    unicode-range="U+0020-FB04"
  />
<missing-glyph horiz-adv-x="568" 
d="M84 638q71 -2 208 -2q139 0 216 2q-10 -117 -10 -367q0 -170 3 -272h-1q-146 2 -204 2q-54 0 -220 -2v2q10 100 10 488q0 124 -2 149zM454 38q7 191 7 411q0 103 -1 148q-145 3 -202 3q-14 0 -55 -0.5t-71 -0.5q-10 -160 -10 -343q0 -90 4 -216q144 -3 201 -3
q14 0 55.5 0.5t71.5 0.5z" />
    <glyph glyph-name="f_f" unicode="ff" horiz-adv-x="543" 
d="M114 -237q-11 1 -54.5 12t-61.5 15q-63 -65 -115 -50q-75 22 -89 22q23 33 39 86q51 -29 94 -33q21 -3 37 3t26.5 15.5t20 29t14 34t11.5 39.5q39 147 84 459q-20 1 -46.5 -1t-30.5 -4l-3 14q67 20 85 29q3 12 8 39t11 50q4 15 7.5 27t9 22t8.5 16t11.5 15t12 12.5
t15.5 15t17 16.5q54 52 112 52q17 0 71.5 -15.5t67.5 -17.5q50 48 99 48q19 0 64.5 -11.5t56.5 -12.5q-23 -48 -31 -92q-21 17 -59 32t-56 18q-34 6 -51.5 -7t-31.5 -54q-19 -57 -32 -153q16 -2 52 -2q43 0 78 4q-19 -28 -30 -52q-56 13 -108 13q-8 -43 -22 -128.5
t-25.5 -146.5t-27.5 -130q-20 -84 -107 -169q-73 -68 -131 -59zM110 -21q-15 -60 -55 -118q50 -26 102 -34q46 -6 75.5 30t44.5 94q39 145 86 444q-34 2 -91 2q-14 0 -43.5 -0.5t-43.5 -0.5q-6 -31 -30 -179t-45 -238zM388 533q11 47 27 70q-36 21 -103 35q-34 7 -54.5 -7
t-33.5 -55q-21 -62 -32 -143q53 -4 94 -4q38 0 82 4q3 11 8.5 44t11.5 56z" />
    <glyph glyph-name="f_f_i" unicode="ffi" horiz-adv-x="748" 
d="M495 681v-1q53 40 109 28q22 -5 70.5 -17.5t74.5 -15.5q-30 -37 -43 -78q-79 42 -151 54q-43 6 -64 -19l-1 1q-13 -15 -24 -47q-17 -52 -31 -153q70 -3 109 -3q59 0 155 15q-15 -41 -25 -81q-40 -144 -61 -261q-7 -36 4.5 -49.5t42.5 -14.5q16 -1 46 3q6 -23 6 -24
q-102 -33 -141 -33q-23 0 -31.5 23t-4.5 53q3 24 30.5 137t33.5 145q5 29 -1 39t-31 12q-40 2 -100 2q-30 0 -40 -1q-7 -42 -21.5 -128t-26 -146.5t-27.5 -129.5q-20 -84 -107 -169q-73 -68 -131 -59q-11 1 -54 12t-63 15q-60 -64 -114 -50q-75 22 -89 22q23 33 39 86
q51 -29 94 -33q21 -3 37 3t26.5 15.5t20 29t14 34t11.5 39.5q39 147 84 459q-20 1 -46.5 -1t-30.5 -4l-3 14q67 20 85 29q3 11 7.5 38.5t10.5 50.5q4 15 7.5 27t9 22t8.5 16t11.5 15t12 12.5t15.5 15t17 16.5q54 52 112 52q18 0 74.5 -15.5t64.5 -17.5zM110 -21
q-12 -53 -55 -118q48 -26 102 -34q46 -6 75.5 30t44.5 94q39 145 86 444q-34 2 -91 2q-14 0 -43.5 -0.5t-43.5 -0.5q-6 -31 -30 -179t-45 -238zM387 533q10 43 28 70q-34 20 -104 35q-34 7 -54 -8t-33 -55q-21 -65 -32 -142q53 -4 94 -4q38 0 82 4q3 11 8 44t11 56z" />
    <glyph glyph-name="f_f_l" unicode="ffl" horiz-adv-x="765" 
d="M469 585q-19 -51 -34 -152q16 -2 52 -2q43 0 78 4q-19 -28 -30 -52q-56 13 -108 13q-8 -43 -22 -128.5t-25.5 -146.5t-27.5 -130q-20 -84 -107 -169q-73 -68 -131 -59q-11 1 -54 12t-63 15q-60 -64 -114 -50q-75 22 -89 22q23 33 39 83q51 -29 94 -33q25 -3 43.5 5.5
t31 30t19 39t15.5 49.5q39 147 84 459q-20 1 -46.5 -1t-30.5 -4l-3 14q67 20 85 29q3 14 10 47.5t14 58.5q5 19 11 31.5t18 26.5t17.5 19t27.5 24q61 53 118 51q18 -1 68.5 -14.5t65.5 -14.5q54 49 102 49q15 0 126 -21q30 6 62 20q-59 -195 -140 -602q-15 -72 45 -72
q23 0 48 5q3 -25 3 -26q-102 -30 -138 -30q-38 0 -38 50q0 23 16 90q11 52 36 153t43.5 185.5t29.5 160.5q-54 29 -110 33q-65 7 -91 -72zM110 -21q-11 -50 -57 -121q54 -28 102 -33q46 -6 76.5 31t45.5 95q39 145 86 444q-34 2 -91 2q-14 0 -43.5 -0.5t-43.5 -0.5
q-6 -31 -30 -179t-45 -238zM221 570q-21 -70 -29 -137q53 -4 94 -4q38 0 82 4q13 71 20 98q10 44 29 72q-44 24 -107 31q-35 4 -55.5 -10t-33.5 -54z" />
    <glyph glyph-name="f_f_b" unicode="ffb" horiz-adv-x="955" 
d="M543 24q22 42 75 258t70 337q-53 27 -118 35q-34 3 -55 -13t-34 -56q-16 -48 -33 -152q16 -2 61 -2q58 0 94 4q-18 -23 -31 -52q-58 13 -131 13v-2q-7 -42 -21 -128t-25.5 -145t-28.5 -128q-16 -71 -109 -170q-66 -70 -130 -60q-11 1 -58 13t-69 16q-65 -67 -117 -52
q-75 22 -89 22q23 33 39 86q51 -29 94 -33q21 -3 37 3t26.5 15.5t20 29t14 34t11.5 39.5q39 147 84 459q-20 1 -46.5 -1t-30.5 -4l-3 14q67 20 85 29q3 12 8 36t11 46q3 12 5.5 21.5t6.5 18.5t6 15t8 13.5t8 11t10 11t10 10t12.5 12t13.5 12.5q54 50 114 49q17 -1 75 -13.5
t74 -13.5q51 49 102 49q24 0 132 -21q30 6 62 20q-44 -150 -72 -292q90 26 112 25q49 -1 76.5 -34.5t27.5 -88.5q0 -13 -4 -41q-14 -76 -46 -142q-35 -70 -123 -122q-44 -26 -96 -26q-18 0 -58 12.5t-57 22.5zM108 -22q-11 -48 -53 -115q60 -33 115 -38q45 -6 74 30.5
t45 94.5q48 172 87 445q-34 2 -100 2q-16 0 -46.5 -0.5t-44.5 -0.5q-10 -52 -23 -134t-25.5 -149t-28.5 -135zM629 53q12 -8 34 -16t35 -8q40 0 73.5 39t54.5 101q26 79 25 141q0 83 -72 83q-25 0 -75 -10q-67 -274 -75 -330zM399 531q11 45 26 67q-42 23 -115 35
q-35 3 -55 -10t-33 -53q-20 -64 -30 -137q53 -4 100 -4q46 0 90 4q3 11 7.5 42.5t9.5 55.5z" />
    <glyph glyph-name="f_f_h" unicode="ffh" horiz-adv-x="1035" 
d="M620 276q49 224 67 343q-53 27 -118 35q-65 6 -89 -69q-14 -41 -32 -152q16 -2 61 -2q58 0 94 4q-18 -23 -31 -52q-58 13 -131 13v-2q-7 -42 -21 -128t-25.5 -145t-28.5 -128q-16 -71 -109 -170q-66 -70 -130 -60q-11 1 -58 13t-69 16q-65 -67 -117 -52q-75 22 -89 22
q23 33 39 86q51 -29 94 -33q21 -3 37 3t26.5 15.5t20 29t14 34t11.5 39.5q39 147 84 459q-20 1 -46.5 -1t-30.5 -4l-3 14q67 20 85 29q3 11 7.5 35.5t10.5 46.5q3 12 5.5 21.5t6.5 18.5t6 15t8 13.5t8 11t10 11t10 10t12.5 12t13.5 12.5q54 50 114 49q17 -1 75 -13.5
t74 -13.5q53 49 102 49q24 0 132 -21q30 6 62 20q-38 -124 -70 -301q131 36 170 36q35 0 53.5 -28t13.5 -65q-4 -33 -23 -121t-23 -112q-3 -18 -3 -30q0 -25 12.5 -35.5t42.5 -10.5q9 0 35 2l6 -26q-104 -30 -131 -30q-49 0 -49 48q0 6 4 28q47 216 52 250q10 72 -65 72
q-49 0 -101 -12q-13 -57 -36 -192.5t-21 -176.5q-60 0 -110 -18q37 95 81 288zM108 -22q-11 -48 -53 -113q62 -35 114 -40q45 -6 74.5 30.5t45.5 94.5q48 172 87 445q-34 2 -100 2q-16 0 -46.5 -0.5t-44.5 -0.5q-10 -52 -23 -134t-25.5 -149t-28.5 -135zM398 531
q11 46 27 67q-43 23 -116 35q-35 3 -55 -10t-33 -53q-18 -58 -29 -137q53 -4 100 -4q46 0 90 4q3 11 7 42.5t9 55.5z" />
    <glyph glyph-name="f_f_j" unicode="ffj" horiz-adv-x="773" 
d="M697 364q-18 -70 -74 -359q-12 -60 -32 -95t-76 -85q-60 -54 -131 -42q-14 2 -64.5 16.5t-67.5 17.5q-64 -64 -125 -54q-11 1 -58 13t-69 16q-65 -67 -117 -52q-75 22 -89 22q23 33 39 86q51 -29 94 -33q21 -3 37 3t26.5 15.5t20 29t14 34t11.5 39.5q39 147 84 459
q-20 1 -46.5 -1t-30.5 -4l-3 14q67 20 85 29q3 11 8 39.5t11 51.5q4 15 7.5 26.5t9 22t8 16t11.5 15.5t11.5 12.5t16 15t17.5 16.5q52 52 112 52q18 0 77.5 -16.5t73.5 -17.5q65 58 129 45q21 -5 50.5 -13t51.5 -13t43 -7q-32 -40 -42 -78q-88 44 -153 53q-33 5 -53 -9.5
t-33 -55.5q-19 -59 -34 -155q70 -3 112 -3q69 0 165 15q-18 -49 -27 -81zM108 -22q-12 -53 -51 -112q59 -32 114 -39q45 -5 74 30.5t44 92.5q51 191 87 445q-34 2 -100 2q-16 0 -46.5 -0.5t-44.5 -0.5q-10 -52 -23 -134t-25.5 -149t-28.5 -135zM366 -7q-9 -43 -54 -106
q39 -20 93 -35.5t75 -7.5q45 16 84 188q24 119 60 311q5 29 -1 39t-31 12q-40 2 -108 2q-34 0 -43 -1q-43 -268 -75 -402zM192 433q53 -4 100 -4q45 0 89 4q2 12 7.5 46t10.5 56q9 38 25 65q-27 18 -112 41q-34 6 -54 -8.5t-33 -55.5q-22 -61 -33 -144z" />
    <glyph glyph-name="f_b" unicode="fb" horiz-adv-x="699" 
d="M286 24q22 41 74.5 256t70.5 339q-52 27 -118 35q-34 3 -55 -13t-34 -56q-19 -58 -32 -152q16 -2 61 -2q58 0 93 4q-15 -20 -31 -52q-56 13 -130 13q-10 -52 -23 -134t-25.5 -149t-28.5 -135q-18 -83 -95 -172q-71 -83 -130 -66q-75 22 -89 22q23 33 39 86q51 -29 94 -33
q25 -4 44 4.5t31 28.5t19 39t15 49q14 52 27 119.5t19.5 109t18.5 125.5l15 105q-19 1 -45 -1t-30 -4l-3 14q71 22 85 29q3 11 8.5 43t10.5 55q4 18 9.5 32t8.5 22t13 20t12.5 14.5t18.5 17.5t20 18q56 56 108 56q21 0 132 -21q31 6 61 20q-38 -130 -70 -292q84 26 111 25
q49 -1 76.5 -34.5t27.5 -87.5q0 -22 -4 -42q-12 -74 -45 -142q-35 -71 -124 -122q-44 -26 -95 -26q-18 0 -58 12t-58 23zM373 53q11 -7 33.5 -15.5t35.5 -8.5q39 0 73 39t55 101q25 75 25 141q0 83 -72 83q-26 0 -76 -10q-64 -263 -74 -330z" />
    <glyph glyph-name="f_h" unicode="fh" horiz-adv-x="777" 
d="M363 274q47 216 68 347q-56 29 -118 34q-34 4 -55 -12t-34 -57q-18 -55 -32 -153q16 -2 61 -2q58 0 93 4q-15 -20 -31 -52q-56 13 -130 13q-10 -52 -23 -134t-25.5 -149t-28.5 -135q-18 -83 -95 -172q-71 -83 -130 -66q-75 22 -89 22q23 33 39 86q51 -29 94 -33
q25 -4 44 4.5t31 28.5t19 39t15 49q14 52 27 119.5t19.5 109t18.5 125.5l15 105q-19 1 -45 -1t-30 -4l-3 14q71 22 85 29q3 11 8.5 44t10.5 56q4 18 9.5 32t8.5 22t13 20t12.5 14.5t18.5 17.5t20 18q56 56 108 56q21 0 132 -21q31 6 61 20q-49 -170 -70 -303q130 36 170 36
q35 0 53.5 -28t13.5 -65q-4 -33 -23.5 -121t-23.5 -112q-3 -17 -3 -29q0 -26 12.5 -36.5t43.5 -10.5q9 0 35 2l6 -26q-104 -30 -132 -30q-48 0 -48 48q0 6 4 28q45 206 52 250q10 72 -65 72q-48 0 -101 -12q-13 -51 -36 -189.5t-21 -179.5q-60 0 -110 -18q40 105 81 286z
" />
    <glyph glyph-name="f_i" unicode="fi" horiz-adv-x="515" 
d="M463 445q-18 -49 -27 -81q-45 -175 -61 -261q-6 -35 5.5 -49t42.5 -15q15 -1 47 3q5 -23 5 -24q-102 -33 -140 -33q-23 0 -32 23t-5 53q4 23 31.5 135.5t33.5 146.5q5 29 -1 39t-31 12q-60 2 -146 2q-10 -52 -23 -134t-25.5 -149t-28.5 -135q-18 -83 -95 -172
q-71 -83 -130 -66q-75 22 -89 22q23 33 39 86q51 -29 94 -33q25 -4 44 4.5t31 28.5t19 39t15 49q14 52 27 119.5t19.5 109t18.5 125.5l15 105q-19 1 -45 -1t-30 -4l-3 14q71 22 85 29q3 11 8.5 44t10.5 56q4 18 9.5 32t8.5 22t13 20t12.5 14.5t18.5 17.5t20 18q66 66 136 52
q19 -4 48.5 -11.5t49.5 -12t41 -6.5q-30 -37 -43 -78q-77 40 -146 50q-34 5 -53.5 -9.5t-32.5 -55.5q-20 -60 -33 -154q94 -2 110 -2q71 0 162 15z" />
    <glyph glyph-name="f_j" unicode="fj" horiz-adv-x="516" 
d="M125 -239q-11 3 -56.5 18.5t-62.5 19.5q-66 -75 -123 -59q-75 22 -89 22q23 33 39 86q51 -29 94 -33q25 -4 44 4.5t31 28.5t19 39t15 49q14 52 27 119.5t19.5 109t18.5 125.5l15 105q-19 1 -45 -1t-30 -4l-3 14q71 22 85 29q2 9 8 43t12 59q4 18 9 31.5t9 22t13 19.5
t12.5 15t17.5 17t20 19q66 66 136 51q22 -5 70.5 -17.5t74.5 -15.5q-31 -38 -42 -78q-85 43 -152 54q-34 5 -54 -10t-33 -55q-20 -60 -33 -156q94 -2 111 -2q75 0 165 15q-18 -51 -26 -81q-19 -68 -43 -201.5t-36 -184.5q-10 -45 -17 -64.5t-28 -48t-60 -60.5
q-62 -48 -104 -48q-16 0 -28 4zM301 6q31 134 66 337q5 29 -1 39t-31 12q-60 2 -150 2q-10 -52 -23 -134t-25.5 -149t-28.5 -135q-11 -51 -46 -104q32 -27 83 -46.5t76 -8.5q40 18 80 187z" />
    <glyph glyph-name="f_k" unicode="fk" horiz-adv-x="768" 
d="M525 710q-44 -152 -85.5 -367.5t-45.5 -335.5q-65 0 -114 -19q31 80 80 287q42 180 71 344q-52 27 -118 35q-34 3 -55 -13t-34 -56q-19 -58 -32 -152q16 -2 61 -2q58 0 93 4q-15 -20 -31 -52q-56 13 -130 13q-10 -52 -23 -134t-25.5 -149t-28.5 -135q-18 -83 -95 -172
q-71 -83 -130 -66q-75 22 -89 22q23 33 39 86q51 -29 94 -33q25 -4 44 4.5t31 28.5t19 39t15 49q14 52 27 119.5t19.5 109t18.5 125.5l15 105q-19 1 -45 -1t-30 -4l-3 14q71 22 85 29q3 11 8.5 43t10.5 55q4 18 9.5 32t8.5 22t13 20t12.5 14.5t18.5 17.5t20 18q56 56 108 56
q21 0 132 -21q31 6 61 20zM598 -8q-15 1 -23.5 3.5t-16 12.5t-7.5 28q0 16 6 42q14 60 14 82q1 47 -27.5 74.5t-74.5 25.5q-15 0 -27 -1l9 33q81 1 136 80q32 44 63.5 63t84.5 17q-24 -39 -32 -84q-35 6 -57 -2.5t-41 -28.5q-46 -42 -76 -52q113 -12 112 -115q0 -34 -5 -59
q-6 -37 2.5 -51t37.5 -14q9 0 45 4l5 -27q-4 -1 -27.5 -8t-38.5 -11.5t-34 -8.5t-28 -3z" />
    <glyph glyph-name="f_l" unicode="fl" horiz-adv-x="517" 
d="M521 710q-23 -76 -66 -263t-73 -339q-15 -72 45 -72q23 0 48 5q3 -25 3 -26q-99 -30 -138 -30q-38 0 -38 50q0 23 16 90q10 45 36 150t43.5 186t27.5 158q-52 27 -113 35q-68 6 -89 -69q-20 -71 -31 -152q16 -2 59 -2q55 0 91 4q-18 -23 -31 -52q-58 13 -126 13
q-10 -52 -23 -134t-25.5 -149t-28.5 -135q-18 -83 -95 -172q-71 -83 -130 -66q-75 22 -89 22q23 33 39 86q51 -29 94 -33q25 -4 44 4.5t31 28.5t19 39t15 49q14 52 27 119.5t19.5 109t18.5 125.5l15 105q-19 1 -45 -1t-30 -4l-3 14q71 22 85 29q3 11 8.5 44.5t10.5 53.5
q4 18 9.5 32.5t8.5 22.5t13 19.5t12 14t18 17.5t20 18q58 56 108 56q22 0 127 -21q31 6 63 20z" />
    <glyph glyph-name="f_thorn" unicode="f&#xfe;" horiz-adv-x="726" 
d="M277 -82q76 293 154 703q-56 29 -118 34q-34 4 -55 -12t-34 -57q-18 -55 -32 -153q16 -2 61 -2q58 0 93 4q-15 -20 -31 -52q-56 13 -130 13q-10 -52 -23 -134t-25.5 -149t-28.5 -135q-18 -83 -95 -172q-71 -83 -130 -66q-75 22 -89 22q23 33 39 86q51 -29 94 -33
q25 -4 44 4.5t31 28.5t19 39t15 49q14 52 27 119.5t19.5 109t18.5 125.5l15 105q-19 1 -45 -1t-30 -4l-3 14q71 22 85 29q3 11 8.5 44t10.5 56q4 18 9.5 32t8.5 22t13 20t12.5 14.5t18.5 17.5t20 18q56 56 108 56q21 0 132 -21q31 6 61 20q-20 -66 -70 -289q113 25 139 25
q46 0 68.5 -30.5t22.5 -79.5q0 -9 -2 -31q-14 -105 -60 -176q-24 -36 -46.5 -60t-59.5 -46q-51 -32 -91 -32q-19 0 -60 9q-1 -7 -11 -54.5t-14 -73.5q-5 -35 11 -53t73 -26l-11 -28q-87 7 -132 7q-46 0 -123 -7l-1 27q22 6 31.5 9t25.5 11.5t25 20.5t19 33t18 50zM380 57
q42 -21 70 -21q45 0 81 49q31 40 52 99.5t26 112.5q5 54 -17 74t-74 17q-33 -2 -72 -8q-33 -153 -66 -323z" />
    <glyph glyph-name="f_f_thorn" unicode="ff&#xfe;" horiz-adv-x="984" 
d="M782 712q-31 -101 -69 -289q112 25 138 25q46 0 68.5 -30.5t22.5 -79.5q0 -9 -2 -31q-12 -104 -60 -176q-44 -68 -105 -106q-52 -32 -92 -32q-18 0 -59 9q-23 -106 -26 -128q-4 -35 11.5 -53t72.5 -26l-11 -28q-87 7 -132 7q-46 0 -123 -7l-1 27q27 7 39 11.5t30 17
t29.5 36t21.5 59.5q100 397 151 703q-55 29 -118 34q-33 4 -54.5 -12t-34.5 -57q-11 -33 -31 -153q16 -2 61 -2q58 0 94 4q-18 -23 -31 -52q-58 13 -131 13v-2q-7 -42 -21 -128t-25.5 -145t-28.5 -128q-18 -81 -109 -170q-69 -69 -130 -60q-11 1 -57 14t-68 17
q-66 -69 -119 -54q-75 22 -89 22q23 33 39 86q51 -29 94 -33q21 -3 37 3t26.5 15.5t20 29t14 34t11.5 39.5q39 147 84 459q-20 1 -46.5 -1t-30.5 -4l-3 14q67 20 85 29q3 11 7 36t10 48q15 60 45 92q6 6 36 33q54 50 113 49q17 -1 75 -14t74 -13q54 49 102 49q27 0 132 -21
q31 6 63 20zM108 -22q-11 -47 -54 -114q50 -28 114 -39q46 -7 75.5 30t45.5 97q48 172 87 443q-34 2 -100 2q-16 0 -46.5 -0.5t-44.5 -0.5q-10 -52 -23 -134t-25.5 -149t-28.5 -135zM637 57q42 -21 70 -21q45 0 81 49q31 40 52 99.5t26 112.5q6 53 -16.5 73.5t-74.5 17.5
q-32 -2 -71 -8q-43 -199 -67 -323zM398 533q9 42 26 67q-42 23 -115 35q-35 3 -55.5 -10t-32.5 -53q-18 -57 -29 -139q53 -4 100 -4q46 0 90 4q2 10 6 43t10 57z" />
    <glyph glyph-name="longs_b" unicode="&#x17f;b" horiz-adv-x="699" 
d="M286 24q22 41 74.5 256t70.5 339q-52 27 -118 35q-34 3 -55 -13t-34 -56q-20 -60 -35 -152q-9 -54 -25 -157t-27.5 -165.5t-28.5 -132.5q-18 -83 -95 -172q-71 -83 -130 -66q-75 22 -89 22q23 33 39 86q51 -29 94 -33q25 -4 44 4.5t31 28.5t19 39t15 49q14 52 27 119.5
t19.5 109t18.5 125.5l15 105q-19 1 -45 -1t-30 -4l-3 14q71 22 85 29q3 11 8.5 43t10.5 55q4 18 9.5 32t8.5 22t13 20t12.5 14.5t18.5 17.5t20 18q56 56 108 56q21 0 132 -21q31 6 61 20q-38 -130 -70 -292q84 26 111 25q49 -1 76.5 -34.5t27.5 -87.5q0 -22 -4 -42
q-12 -74 -45 -142q-35 -71 -124 -122q-44 -26 -95 -26q-18 0 -58 12t-58 23zM373 53q11 -7 33.5 -15.5t35.5 -8.5q39 0 73 39t55 101q25 75 25 141q0 83 -72 83q-26 0 -76 -10q-64 -263 -74 -330z" />
    <glyph glyph-name="longs_h" unicode="&#x17f;h" horiz-adv-x="777" 
d="M363 274q47 216 68 347q-56 29 -118 34q-34 4 -55 -12t-34 -57q-17 -51 -34 -153q-9 -51 -21 -127t-18.5 -117t-18 -99t-24.5 -112q-18 -83 -95 -172q-71 -83 -130 -66q-75 22 -89 22q23 33 39 86q51 -29 94 -33q25 -4 44 4.5t31 28.5t19 39t15 49q14 52 27 119.5
t19.5 109t18.5 125.5l15 105q-19 1 -45 -1t-30 -4l-3 14q71 22 85 29q3 11 8.5 44t10.5 56q4 18 9.5 32t8.5 22t13 20t12.5 14.5t18.5 17.5t20 18q56 56 108 56q21 0 132 -21q31 6 61 20q-49 -170 -70 -303q130 36 170 36q35 0 53.5 -28t13.5 -65q-4 -33 -23.5 -121
t-23.5 -112q-3 -17 -3 -29q0 -26 12.5 -36.5t43.5 -10.5q9 0 35 2l6 -26q-104 -30 -132 -30q-48 0 -48 48q0 6 4 28q45 206 52 250q10 72 -65 72q-48 0 -101 -12q-13 -51 -36 -189.5t-21 -179.5q-60 0 -110 -18q40 105 81 286z" />
    <glyph glyph-name="longs_i" unicode="&#x17f;i" horiz-adv-x="515" 
d="M188 432q-9 -52 -20 -126t-18 -116t-18 -100t-24 -112q-18 -83 -95 -172q-71 -83 -130 -66q-75 22 -89 22q23 33 39 86q51 -29 94 -33q25 -4 44 4.5t31 28.5t19 39t15 49q14 52 27 119.5t19.5 109t18.5 125.5l15 105q-19 1 -45 -1t-30 -4l-3 14q71 22 85 29q3 11 8.5 44
t10.5 56q4 18 9.5 32t8.5 22t13 20t12.5 14.5t18.5 17.5t20 18q66 66 136 52q19 -4 48.5 -11.5t49.5 -12t41 -6.5q-30 -37 -43 -78q-77 40 -146 50q-34 5 -53.5 -9.5t-32.5 -55.5q-15 -44 -36 -154zM463 445q-18 -49 -27 -81q-45 -175 -61 -261q-6 -35 5.5 -49t42.5 -15
q15 -1 47 3q5 -23 5 -24q-102 -33 -140 -33q-23 0 -32 23t-5 53q4 23 31.5 135.5t33.5 146.5q7 44 -41 44q-14 0 -30 -3l-6 27q96 11 177 34z" />
    <glyph glyph-name="longs_j" unicode="&#x17f;j" horiz-adv-x="516" 
d="M301 6q32 140 63 339q7 43 -40 43q-13 0 -31 -3l-7 29q68 8 171 33q-20 -82 -38 -168h1q-9 -42 -27 -145t-31 -156q-10 -45 -17 -64.5t-28 -48t-60 -60.5q-62 -48 -104 -48q-16 0 -28 4q-11 3 -56.5 18.5t-62.5 19.5q-66 -75 -123 -59q-75 22 -89 22q23 33 39 86
q51 -29 94 -33q25 -4 44 4.5t31 28.5t19 39t15 49q14 52 27 119.5t19.5 109t18.5 125.5l15 105q-19 1 -45 -1t-30 -4l-3 14q71 22 85 29q2 9 8 43t12 59q4 18 9 31.5t9 22t13 19.5t12.5 15t17.5 17t20 19q66 66 136 51q22 -5 70.5 -17.5t74.5 -15.5q-31 -38 -42 -78
q-85 43 -152 54q-34 5 -54 -10t-33 -55q-14 -43 -36 -156q-9 -52 -20 -126t-18 -116t-18 -100t-24 -112q-11 -51 -46 -104q32 -27 83 -46.5t76 -8.5q12 5 24 23.5t21.5 45.5t16 48t12.5 46z" />
    <glyph glyph-name="longs_k" unicode="&#x17f;k" horiz-adv-x="768" 
d="M525 710q-44 -152 -85.5 -367.5t-45.5 -335.5q-65 0 -114 -19q31 80 80 287q42 180 71 344q-52 27 -118 35q-34 3 -55 -13t-34 -56q-20 -60 -35 -152q-9 -54 -25 -157t-27.5 -165.5t-28.5 -132.5q-18 -83 -95 -172q-71 -83 -130 -66q-75 22 -89 22q23 33 39 86
q51 -29 94 -33q25 -4 44 4.5t31 28.5t19 39t15 49q14 52 27 119.5t19.5 109t18.5 125.5l15 105q-19 1 -45 -1t-30 -4l-3 14q71 22 85 29q3 11 8.5 43t10.5 55q4 18 9.5 32t8.5 22t13 20t12.5 14.5t18.5 17.5t20 18q56 56 108 56q21 0 132 -21q31 6 61 20zM598 -8
q-15 1 -23.5 3.5t-16 12.5t-7.5 28q0 16 6 42q14 60 14 82q1 47 -27.5 74.5t-74.5 25.5q-15 0 -27 -1l9 33q81 1 136 80q32 44 63.5 63t84.5 17q-24 -39 -32 -84q-35 6 -57 -2.5t-41 -28.5q-46 -42 -76 -52q113 -12 112 -115q0 -34 -5 -59q-6 -37 2.5 -51t37.5 -14q9 0 45 4
l5 -27q-4 -1 -27.5 -8t-38.5 -11.5t-34 -8.5t-28 -3z" />
    <glyph glyph-name="longs_l" unicode="&#x17f;l" horiz-adv-x="517" 
d="M521 710q-23 -76 -66 -263t-73 -339q-15 -72 45 -72q23 0 48 5q3 -25 3 -26q-99 -30 -138 -30q-38 0 -38 50q0 23 16 90q10 45 36 150t43.5 186t27.5 158q-52 27 -113 35q-68 6 -89 -69q-22 -78 -34 -152q-9 -54 -25 -157t-27.5 -165.5t-28.5 -132.5q-18 -83 -95 -172
q-71 -83 -130 -66q-75 22 -89 22q23 33 39 86q51 -29 94 -33q25 -4 44 4.5t31 28.5t19 39t15 49q14 52 27 119.5t19.5 109t18.5 125.5l15 105q-19 1 -45 -1t-30 -4l-3 14q71 22 85 29q3 11 8.5 44.5t10.5 53.5q4 18 9.5 32.5t8.5 22.5t13 19.5t12 14t18 17.5t20 18
q58 56 108 56q22 0 127 -21q31 6 63 20z" />
    <glyph glyph-name="longs_longs" unicode="&#x17f;&#x17f;" horiz-adv-x="543" 
d="M337 698q17 0 71.5 -15.5t67.5 -17.5q50 48 99 48q19 0 64.5 -11.5t56.5 -12.5q-23 -48 -31 -92q-21 17 -59 32t-56 18q-34 6 -51.5 -7t-31.5 -54q-19 -59 -35 -153q-8 -49 -20.5 -124.5t-18.5 -113t-17 -93.5t-24 -111q-20 -84 -107 -169q-73 -68 -131 -59q-11 1 -54 12
t-63 15q-62 -64 -114 -50q-75 22 -89 22q23 33 39 86q51 -29 94 -33q21 -3 37 3t26.5 15.5t20 29t14 34t11.5 39.5q39 147 84 459q-20 1 -46.5 -1t-30.5 -4l-3 14q67 20 85 29q3 12 8 39t11 50q4 15 7.5 27t9 22t8.5 16t11.5 15t12 12.5t15.5 15t17 16.5q54 52 112 52z
M363 395q-19 1 -45.5 -1t-31.5 -4l-2 14q77 25 84 28v1q3 11 8.5 44t11.5 56q11 47 27 70q-36 21 -103 35q-34 7 -54.5 -7t-33.5 -55q-22 -67 -35 -143q-10 -61 -25 -158t-26.5 -162t-27.5 -134q-14 -56 -55 -118q50 -26 102 -34q46 -6 75.5 30t44.5 94q39 145 86 444z" />
    <glyph glyph-name="longs_longs_b" unicode="&#x17f;&#x17f;b" horiz-adv-x="955" 
d="M543 24q22 42 75 258t70 337q-53 27 -118 35q-34 3 -55 -13t-34 -56q-16 -48 -36 -152q-7 -42 -19.5 -123.5t-18.5 -116t-17 -90.5t-24 -110q-16 -71 -109 -170q-66 -70 -130 -60q-11 1 -58 13t-69 16q-65 -67 -117 -52q-75 22 -89 22q23 33 39 86q51 -29 94 -33
q21 -3 37 3t26.5 15.5t20 29t14 34t11.5 39.5q39 147 84 459q-20 1 -46.5 -1t-30.5 -4l-3 14q67 20 85 29q3 12 8 36t11 46q3 12 5.5 21.5t6.5 18.5t6 15t8 13.5t8 11t10 11t10 10t12.5 12t13.5 12.5q54 50 114 49q17 -1 75 -13.5t74 -13.5q51 49 102 49q24 0 132 -21
q30 6 62 20q-44 -150 -72 -292q90 26 112 25q49 -1 76.5 -34.5t27.5 -88.5q0 -13 -4 -41q-14 -76 -46 -142q-35 -70 -123 -122q-44 -26 -96 -26q-18 0 -58 12.5t-57 22.5zM190 433q-9 -51 -21 -127t-18.5 -117t-18 -99t-24.5 -112q-11 -48 -53 -115q60 -33 115 -38
q45 -6 74 30.5t45 94.5q49 176 87 445q-19 1 -45.5 -1t-31.5 -4l-3 14q69 20 86 29q3 11 7.5 42.5t9.5 55.5q11 45 26 67q-42 23 -115 35q-35 3 -55 -10t-33 -53q-20 -64 -32 -137zM629 53q12 -8 34 -16t35 -8q40 0 73.5 39t54.5 101q26 79 25 141q0 83 -72 83
q-25 0 -75 -10q-67 -274 -75 -330z" />
    <glyph glyph-name="longs_longs_h" unicode="&#x17f;&#x17f;h" horiz-adv-x="1037" 
d="M621 276l67 343q-53 27 -118 35q-34 3 -55 -13t-34 -56q-16 -48 -36 -152q-7 -42 -19.5 -123.5t-18.5 -116t-17 -90.5t-24 -110q-16 -71 -109 -170q-66 -70 -130 -60q-11 1 -58 13t-69 16q-65 -67 -117 -52q-75 22 -89 22q23 33 39 86q51 -29 94 -33q21 -3 37 3
t26.5 15.5t20 29t14 34t11.5 39.5q39 147 84 459q-20 1 -46.5 -1t-30.5 -4l-3 14q67 20 85 29q3 12 8 36t11 46q3 12 5.5 21.5t6.5 18.5t6 15t8 13.5t8 11t10 11t10 10t12.5 12t13.5 12.5q54 50 114 49q17 -1 75 -13.5t74 -13.5q51 49 102 49q24 0 132 -21q30 6 62 20
q-41 -143 -68 -301q130 36 170 36q35 0 53.5 -28t13.5 -65q-4 -33 -23.5 -121t-23.5 -112q-3 -17 -3 -29q0 -26 12.5 -36.5t43.5 -10.5q9 0 35 2l6 -26q-104 -30 -132 -30q-48 0 -48 48q0 6 4 28q45 206 52 250q10 72 -65 72q-48 0 -101 -12q-13 -51 -36 -189.5t-21 -179.5
q-60 0 -110 -18q42 111 79 288zM190 433q-9 -51 -21 -127t-18.5 -117t-18 -99t-24.5 -112q-11 -48 -53 -115q60 -33 115 -38q45 -6 74 30.5t45 94.5q49 176 87 445q-19 1 -45.5 -1t-31.5 -4l-3 14q69 20 86 29q3 11 7.5 42.5t9.5 55.5q11 45 26 67q-42 23 -115 35
q-35 3 -55 -10t-33 -53q-20 -64 -32 -137z" />
    <glyph glyph-name="longs_longs_i" unicode="&#x17f;&#x17f;i" horiz-adv-x="748" 
d="M432 433q-15 -77 -37.5 -217t-42.5 -225q-20 -84 -107 -169q-73 -68 -131 -59q-11 1 -54 12t-63 15q-60 -64 -114 -50q-75 22 -89 22q23 33 39 86q51 -29 94 -33q21 -3 37 3t26.5 15.5t20 29t14 34t11.5 39.5q39 147 84 459q-20 1 -46.5 -1t-30.5 -4l-3 14q67 20 85 29
q3 11 7.5 38.5t10.5 50.5q4 15 7.5 27t9 22t8.5 16t11.5 15t12 12.5t15.5 15t17 16.5q54 52 112 52q18 0 74.5 -15.5t64.5 -17.5l20 16v-1q53 40 109 28q22 -5 70.5 -17.5t74.5 -15.5q-30 -37 -43 -78q-79 42 -151 54q-43 6 -64 -19l-1 1q-13 -15 -24 -47q-22 -68 -34 -153z
M189 433q-10 -61 -25 -158t-26.5 -162t-27.5 -134q-12 -53 -55 -118q48 -26 102 -34q46 -6 75.5 30t44.5 94q39 145 86 444q-19 1 -45.5 -1t-31.5 -4l-2 14q77 25 84 28v1q3 11 8 44t11 56q10 43 28 70q-34 20 -104 35q-34 7 -54 -8t-33 -55q-23 -70 -35 -142zM699 445
q-18 -51 -26 -81q-44 -163 -61 -261q-6 -35 5 -49t42 -15q15 -1 47 3q5 -23 5 -24q-102 -33 -140 -33q-23 0 -31.5 23t-4.5 53q3 24 30.5 137t33.5 145q7 44 -41 44q-14 0 -30 -3l-5 27q95 11 176 34z" />
    <glyph glyph-name="longs_longs_j" unicode="&#x17f;&#x17f;j" horiz-adv-x="773" 
d="M564 32q45 222 59 313q7 43 -43 43q-13 0 -31 -3l-6 29q68 8 171 33q-22 -86 -91 -442q-12 -60 -32 -95t-76 -85q-60 -54 -131 -42q-14 2 -64.5 16.5t-67.5 17.5q-64 -64 -125 -54q-11 1 -58 13t-69 16q-65 -67 -117 -52q-75 22 -89 22q23 33 39 86q51 -29 94 -33
q21 -3 37 3t26.5 15.5t20 29t14 34t11.5 39.5q39 147 84 459q-20 1 -46.5 -1t-30.5 -4l-3 14q67 20 85 29q3 11 8 39.5t11 51.5q4 15 7.5 26.5t9 22t8 16t11.5 15.5t11.5 12.5t16 15t17.5 16.5q52 52 112 52q18 0 77.5 -16.5t73.5 -17.5q65 58 129 45q21 -5 50.5 -13
t51.5 -13t43 -7q-32 -40 -42 -78q-88 44 -153 53q-33 5 -53 -9.5t-33 -55.5q-19 -59 -34 -155q-44 -284 -81 -440q-9 -43 -54 -106q39 -20 93 -35.5t75 -7.5q45 16 84 188zM192 433q-6 -37 -20.5 -124t-20.5 -122t-18 -94.5t-25 -114.5q-12 -53 -51 -112q59 -32 114 -39
q45 -5 74 30.5t44 92.5q51 191 87 445q-19 1 -45 -1t-31 -4l-3 14q75 23 85 28q10 73 17 103q9 38 25 65q-27 18 -112 41q-34 6 -54 -8.5t-33 -55.5q-17 -49 -33 -144z" />
    <glyph glyph-name="longs_longs_l" unicode="&#x17f;&#x17f;l" horiz-adv-x="783" 
d="M783 710q-69 -231 -143 -602q-13 -72 45 -72q22 0 49 5q2 -25 2 -26q-99 -30 -138 -30q-38 0 -38 50q0 23 16 90q11 48 36 150.5t43 184t33 159.5q-53 27 -118 35q-34 3 -55 -13t-34 -56q-16 -48 -36 -152q-7 -42 -19.5 -123.5t-18.5 -116t-17 -90.5t-24 -110
q-16 -71 -109 -170q-66 -70 -130 -60q-11 1 -58 13t-69 16q-65 -67 -117 -52q-75 22 -89 22q23 33 39 86q51 -29 94 -33q21 -3 37 3t26.5 15.5t20 29t14 34t11.5 39.5q39 147 84 459q-20 1 -46.5 -1t-30.5 -4l-3 14q67 20 85 29q3 12 8 36t11 46q3 12 5.5 21.5t6.5 18.5
t6 15t8 13.5t8 11t10 11t10 10t12.5 12t13.5 12.5q54 50 114 49q17 -1 75 -13.5t74 -13.5q51 49 102 49q24 0 132 -21q35 7 62 20zM190 433q-9 -51 -21 -127t-18.5 -117t-18 -99t-24.5 -112q-11 -48 -53 -115q60 -33 115 -38q45 -6 74 30.5t45 94.5q49 176 87 445
q-19 1 -45.5 -1t-31.5 -4l-3 14q69 20 86 29q3 11 7.5 42.5t9.5 55.5q11 45 26 67q-42 23 -115 35q-35 3 -55 -10t-33 -53q-20 -64 -32 -137z" />
    <glyph glyph-name="gamma_gamma" unicode="&#x3b3;&#x3b3;" horiz-adv-x="974" 
d="M533 -233q13 95 92 262q-11 149 -40 258q-17 68 -45 68q-30 0 -81 -60q-131 -157 -208 -332q-23 -167 -48 -235q-51 29 -79 39q13 98 87 255q-5 163 -36 267q-16 62 -69 62q-27 0 -74 -47l-17 14q84 129 121 129q29 0 46 -23t29 -75q29 -132 33 -271q99 183 180 283
q68 84 113 87q22 1 44 -12q4 -2 8 -5.5t6.5 -6.5t5.5 -9t4.5 -9.5t4 -12t3.5 -13t3.5 -15.5t3.5 -16q29 -132 33 -271q28 48 89.5 142.5t65.5 101.5q51 82 63 129q48 -46 80 -58q-9 -14 -39.5 -49t-46.5 -57q-154 -207 -205 -324q-23 -167 -48 -235q-46 27 -79 39z" />
    <glyph glyph-name="lambda_lambda" unicode="&#x3bb;&#x3bb;" horiz-adv-x="944" 
d="M-3 33q151 161 313 400q-4 85 -12 133q-7 42 -29 70.5t-56 28.5q-39 0 -93 -43l-15 16q31 39 67 72.5t58 33.5q93 0 106 -189q22 -297 33 -390q3 -23 4.5 -32.5t6.5 -29.5t12.5 -28.5t17.5 -8.5q17 0 40 26q34 38 71.5 87t58.5 78.5t63.5 93.5t54.5 82q-4 85 -13 133
q-7 42 -29 70.5t-57 28.5q-38 0 -92 -43l-15 16q87 106 125 106q53 0 76 -50.5t30 -138.5q3 -45 7 -99.5t6 -81t5.5 -68.5t9.5 -91q8 -68 21.5 -100t46.5 -32q35 0 77 42l19 -15q-82 -122 -127 -122q-50 0 -64 111q-12 84 -19 233q-39 -48 -113 -155.5t-110 -152.5
q-36 -47 -66 -43q-28 3 -48 18q-19 16 -30 99q-13 108 -20 234q-150 -199 -259 -354q-24 30 -62 55z" />
    <glyph glyph-name=".notdef" horiz-adv-x="568" 
d="M84 638q71 -2 208 -2q139 0 216 2q-10 -117 -10 -367q0 -170 3 -272h-1q-146 2 -204 2q-54 0 -220 -2v2q10 100 10 488q0 124 -2 149zM454 38q7 191 7 411q0 103 -1 148q-145 3 -202 3q-14 0 -55 -0.5t-71 -0.5q-10 -160 -10 -343q0 -90 4 -216q144 -3 201 -3
q14 0 55.5 0.5t71.5 0.5z" />
    <glyph glyph-name=".null" horiz-adv-x="0" 
 />
    <glyph glyph-name="nonmarkingreturn" horiz-adv-x="333" 
 />
    <glyph glyph-name="space" unicode=" " horiz-adv-x="214" 
 />
    <glyph glyph-name="exclam" unicode="!" horiz-adv-x="202" 
d="M124 639q20 -4 42 -4q15 0 61 6q-76 -237 -135 -479h-27q44 280 59 477zM53 -12q-25 -1 -36 13t-10 32q1 20 15 35t37 16q24 1 35 -12t10 -31q-1 -21 -14.5 -36.5t-36.5 -16.5z" />
    <glyph glyph-name="quotedbl" unicode="&#x22;" horiz-adv-x="316" 
d="M111 639q27 -3 50 -3q22 0 52 3q-23 -46 -47.5 -117t-37.5 -124h-27q13 98 13 175q0 35 -3 66zM252 639q27 -3 50 -3q22 0 52 3q-23 -46 -47.5 -117t-37.5 -124h-27q13 98 13 175q0 35 -3 66z" />
    <glyph glyph-name="numbersign" unicode="#" horiz-adv-x="548" 
d="M71 445l9 30h118l33 160l38 7q-3 -13 -39 -167h152l33 160l38 7q-29 -124 -38 -167h126l-9 -30h-125l-46 -216h126l-9 -30h-123l-41 -197l-39 -8q9 38 25 109.5t22 95.5h-152q-6 -29 -13 -62.5t-15 -73.5t-12 -61l-38 -8l46 205h-120l9 30h118q32 144 47 216h-121z
M224 445q-17 -72 -47 -216h152q32 144 46 216h-151z" />
    <glyph glyph-name="dollar" unicode="$" horiz-adv-x="362" 
d="M4 21q29 51 36 80q57 -39 116 -48q46 -10 68 19q7 10 7 29q0 27 -12 63q-16 49 -58 145t-54 129q-12 38 -12 61q0 38 30 83q42 65 112 56q19 60 23 80l28 -5q-4 -13 -20 -80q70 -13 80 -12q-30 -52 -36 -76q-48 30 -105 40q-46 9 -58 -18q-11 -22 7 -77q17 -53 60 -149.5
t50 -117.5q16 -48 16 -77q0 -45 -32 -89q-52 -73 -128 -64q-22 -80 -24 -88l-27 7q8 25 21 86q-15 3 -46 12t-42 11z" />
    <glyph glyph-name="percent" unicode="%" horiz-adv-x="668" 
d="M8 -10q71 72 147 153t124.5 134.5t130.5 145.5t118 132q-75 -25 -112 -25q-47 0 -93 35q4 -17 4 -42q0 -111 -87 -170q-38 -26 -76 -26q-34 0 -60 22q-36 33 -26 102q14 105 87 147q82 46 182 48q28 -34 61 -47.5t83 -13.5q58 0 124 61l25 -12q-146 -151 -265 -290
t-282 -344q-39 0 -85 -10zM332 124q17 109 103 155q42 22 79 22q43 0 64 -29q21 -28 21 -72q0 -18 -3 -35q-12 -91 -78 -139q-52 -38 -91 -38q-36 0 -67 27q-20 16 -26 48t-2 61zM495 260q-39 7 -59.5 -28t-29.5 -87q-3 -18 -3 -36q0 -78 50 -78q49 0 71 104q5 25 5 53
q0 66 -34 72zM264 599q-92 -11 -109 -126q-6 -36 5 -60.5t34 -25.5q70 -4 91 88q5 27 5 47q0 61 -26 77z" />
    <glyph glyph-name="ampersand" unicode="&#x26;" horiz-adv-x="740" 
d="M402 421l-2 -8q-129 -11 -202 -55q-21 -12 -33.5 -22t-25 -34t-14.5 -58q-2 -29 7 -64t25 -59q35 -49 93 -61q53 -13 114 -13q15 0 45 2q49 4 88 42q29 27 48 61t19 49q0 50 -42 105q-82 1 -149 -7q-62 -9 -62 -41q0 -22 26 -61q-51 -14 -80 -41q-12 43 -12 61
q0 30 26 56q37 41 67 58q46 26 145 33q14 1 42.5 2.5t38.5 2t31.5 2t29.5 2.5t23.5 3t23 4t18.5 4.5t19.5 6t17.5 8.5l3 -4q-34 -39 -46 -87q-29 -3 -83 -3q15 -54 15 -79q0 -31 -41.5 -93t-71.5 -89q-54 -47 -104 -51q-31 -3 -64 -3q-73 0 -138 15q-28 6 -57.5 25.5
t-45.5 44.5q-45 68 -40 160q6 89 73 129q56 35 176 62q-50 60 -50 94q0 25 24 49q33 36 75 59q40 22 71 22q15 0 42 -5q20 -3 51 -11.5t45 -10.5q-30 -26 -53 -71q-77 44 -126 44q-25 0 -40 -12q-22 -20 -22 -40q0 -28 32 -69q27 -37 50 -54z" />
    <glyph glyph-name="quotesingle" unicode="'" horiz-adv-x="175" 
d="M111 639q27 -3 50 -3q22 0 52 3q-23 -46 -47.5 -117t-37.5 -124h-27q13 98 13 175q0 35 -3 66z" />
    <glyph glyph-name="parenleft" unicode="(" horiz-adv-x="324" 
d="M190 -162l-23 -16q-47 64 -85 153t-38 203q0 70 16 135q42 167 172 283q33 29 117 89l16 -22q-63 -53 -88 -80q-106 -115 -144 -279q-17 -78 -17 -159q0 -109 25 -190q18 -59 49 -117z" />
    <glyph glyph-name="parenright" unicode=")" horiz-adv-x="324" 
d="M123 669l23 16q47 -64 85 -153t38 -203q0 -70 -16 -135q-42 -167 -172 -283q-33 -29 -117 -89l-16 22q63 53 88 80q106 115 144 279q17 78 17 159q0 109 -25 190q-18 59 -49 117z" />
    <glyph glyph-name="asterisk" unicode="*" horiz-adv-x="384" 
d="M81 361q62 34 136 104q-75 27 -151 41q22 33 34 69q65 -58 127 -92q3 36 3 77q0 52 -5 85q35 -9 75 -11q-29 -64 -52 -153q84 21 147 52q2 -31 14 -76q-42 6 -103 6q-22 0 -56 -2q39 -66 104 -133q-37 -15 -68 -35q-9 41 -53 158q-60 -73 -98 -143q-25 31 -54 53z" />
    <glyph glyph-name="plus" unicode="+" horiz-adv-x="469" 
d="M23 270v35h189v190h35v-190h190v-35h-190v-190h-35v190h-189z" />
    <glyph glyph-name="comma" unicode="," horiz-adv-x="218" 
d="M-31 -178l-16 23q47 43 69 75q16 26 16 50q0 37 -37 66q38 32 63 65q23 -21 42 -50q11 -19 11 -37q0 -38 -38 -82q-30 -39 -110 -110z" />
    <glyph glyph-name="hyphen" unicode="-" horiz-adv-x="274" 
d="M23 255q9 29 9 50q52 -3 105 -3t105 3q-8 -22 -8 -50q-49 3 -100 3q-56 0 -111 -3z" />
    <glyph glyph-name="period" unicode="." horiz-adv-x="185" 
d="M53 -12q-25 -1 -36 13t-10 32q1 20 15 35t37 16q24 1 35 -12t10 -31q-1 -21 -14.5 -36.5t-36.5 -16.5z" />
    <glyph glyph-name="slash" unicode="/" horiz-adv-x="425" 
d="M439 681l31 -18q-300 -464 -468 -732l-30 18q339 528 467 732z" />
    <glyph glyph-name="zero" unicode="0" horiz-adv-x="505" 
d="M176 -18q-58 0 -96 43t-47 110q-3 27 -3 56q0 148 58 266q29 59 52.5 86.5t86.5 68.5q24 16 59.5 27.5t59.5 10.5q53 -1 86.5 -43t41.5 -102q4 -24 4 -60q0 -154 -60 -279q-25 -52 -48 -80.5t-67 -57.5q-70 -46 -127 -46zM107 182q3 -54 30 -102t80 -48q46 0 76 34.5
t60 110.5q47 125 47 244q0 36 -4 64q-6 53 -29.5 84t-65.5 32q-84 1 -139 -132q-59 -140 -55 -287z" />
    <glyph glyph-name="one" unicode="1" horiz-adv-x="404" 
d="M-16 -3l-1 26q91 16 121.5 36.5t44.5 76.5q18 70 49 223.5t43 223.5q-85 -21 -170 -81q10 20 19 64q50 24 148 52.5t114 28.5l5 -16q-27 -27 -40 -57t-24 -82q-57 -261 -69 -359q-4 -32 -4 -40q0 -28 21 -42t84 -28l-11 -26q-122 7 -156 7q-32 0 -174 -7z" />
    <glyph glyph-name="two" unicode="2" horiz-adv-x="463" 
d="M216 248q128 142 128 228q0 94 -139 94q-51 0 -99 -23q24 41 37 88q35 7 94 7q101 0 141 -38t40 -107q0 -33 -13 -66t-45 -73.5t-51.5 -61.5t-65.5 -68q-21 -21 -75 -72.5t-78 -76.5q36 8 84 8q36 0 76 -4q54 -6 81.5 11t61.5 69l23 -8q-45 -73 -86 -165q-75 23 -167 23
q-102 0 -198 -27q20 41 29 76q71 42 119.5 83.5t102.5 102.5z" />
    <glyph glyph-name="three" unicode="3" horiz-adv-x="425" 
d="M126 -8q-13 2 -77 20.5t-87 22.5q32 42 48 92q43 -37 102 -58q47 -17 82 -17q49 0 81 34q36 39 36 105q0 56 -28 96q-48 67 -148 70l-1 25q26 5 50 13t54.5 21.5t49 34.5t19.5 47q1 38 -32.5 59t-86.5 21q-39 0 -74 -13q20 31 31 75q25 5 72 5q62 0 108.5 -29.5
t46.5 -81.5q-1 -41 -24.5 -70t-87.5 -69q77 -29 106 -94q12 -27 12 -58q0 -52 -30 -109q-76 -144 -193 -144q-19 0 -29 2z" />
    <glyph glyph-name="four" unicode="4" horiz-adv-x="585" 
d="M232 -54l-7 7q48 83 73 246q-48 3 -90 3q-104 0 -186 -17q2 13 -8 40q74 58 211 202q39 41 74.5 78.5t47 50t31 34.5t55.5 64q13 -11 27 -15q-14 -40 -40.5 -166.5t-40.5 -216.5q7 0 22.5 -0.5t23.5 -0.5q76 0 138 33l6 -6q-51 -49 -87 -102q-66 14 -113 17
q-9 -53 -14 -112t-2 -77q-72 -22 -121 -62zM361 527q-193 -201 -268 -274q73 9 136 9q22 0 80 -2q0 1 21 107.5t31 159.5z" />
    <glyph glyph-name="five" unicode="5" horiz-adv-x="484" 
d="M167 -6q-28 4 -68.5 11.5t-69 12t-52.5 5.5q41 47 56 92q77 -42 176 -57q90 -13 136 52q22 32 22 86q0 56 -23 99q-45 81 -137 81q-72 0 -136 -26l-20 16q97 150 155 273q52 -6 114 -6q76 0 143 9q-25 -36 -39 -92q-101 14 -190 14h-30q-31 -41 -80 -139q76 19 133 19
q67 0 111.5 -43.5t57.5 -98.5q5 -18 5 -44q0 -83 -59 -167q-71 -100 -171 -100q-18 0 -34 3z" />
    <glyph glyph-name="six" unicode="6" horiz-adv-x="511" 
d="M185 -15q-66 0 -109.5 53.5t-43.5 140.5q0 125 70.5 251.5t172.5 184.5q60 36 118 26q108 -21 118 -22q-34 -48 -48 -85q-67 32 -107 41q-21 5 -45 5q-33 0 -56 -15t-48 -50q-44 -61 -67 -138q6 2 30.5 9.5t39 11.5t37.5 10t43.5 8.5t39.5 2.5q47 0 77 -20
q56 -37 56 -123q0 -43 -19.5 -99t-48.5 -92q-36 -42 -96.5 -71t-113.5 -29zM131 343q-22 -93 -22 -149q0 -72 31 -119q30 -47 86 -47q29 0 56 13q50 23 76.5 91.5t26.5 135.5q0 59 -42 84q-25 15 -69 15q-49 0 -143 -24z" />
    <glyph glyph-name="seven" unicode="7" horiz-adv-x="435" 
d="M43 -31q28 92 53 151.5t42.5 89t60.5 91.5q10 14 15 22q101 143 185 236q-46 -7 -100 -7q-43 0 -92 3q-30 2 -45.5 0t-32.5 -15.5t-26.5 -27t-34.5 -51.5l-23 11q57 99 79 169q123 -14 192 -14q68 0 161 14l12 -19q-78 -85 -145 -171.5t-93 -133.5q-34 -59 -47 -84.5
t-28 -76.5t-30 -137q-46 -13 -103 -50z" />
    <glyph glyph-name="eight" unicode="8" horiz-adv-x="474" 
d="M165 -19q-22 0 -47 8.5t-51 25.5t-43 50t-17 76q0 72 63 134q32 32 127 96q-38 34 -54 55q-32 41 -32 82q0 46 40 82q20 19 64 39.5t79 20.5q73 0 110.5 -35.5t37.5 -82.5q0 -48 -33 -83q-46 -47 -101 -80q44 -34 70 -65q41 -50 41 -119q0 -58 -30 -101q-28 -41 -96 -72
t-128 -31zM82 149q0 -50 42.5 -85t98.5 -35q25 0 51 9q34 12 52.5 48t18.5 81q0 67 -54 118q-37 36 -71 65q-65 -43 -98 -89q-40 -53 -40 -112zM218 595q-36 -21 -36 -70q0 -29 13 -45q16 -22 53 -58l38 -35q49 33 67 63t18 68q0 34 -35 61.5t-75 27.5q-23 0 -43 -12z" />
    <glyph glyph-name="nine" unicode="9" horiz-adv-x="505" 
d="M330 649q66 0 109 -53t43 -141q0 -126 -66.5 -252.5t-167.5 -184.5q-43 -25 -92 -25q-20 0 -31 2q-93 18 -119 21q31 42 48 85q60 -32 106 -39q23 -4 45 -4q34 0 58.5 14t47.5 48q30 43 62 146q-4 -1 -29 -9t-38.5 -12t-36 -9.5t-42.5 -8t-38 -2.5q-48 0 -76 20
q-56 37 -56 123q0 44 18 95t48 86q35 42 94.5 71t112.5 29zM381 301q22 95 22 145q0 68 -30 114q-31 47 -82 47q-25 0 -52 -12q-51 -23 -77.5 -87.5t-26.5 -131.5q0 -58 41 -82q28 -16 70 -16q48 0 135 23z" />
    <glyph glyph-name="colon" unicode=":" horiz-adv-x="198" 
d="M134 343q-24 -1 -35 12.5t-10 30.5q1 20 14.5 34t35.5 15q24 1 34.5 -11t9.5 -30q-1 -20 -14 -35t-35 -16zM52 -12q-24 -1 -35 12.5t-10 31.5q1 19 14.5 33.5t35.5 15.5q23 1 34 -11.5t10 -30.5q-1 -20 -13.5 -35t-35.5 -16z" />
    <glyph glyph-name="semicolon" unicode=";" horiz-adv-x="218" 
d="M133 343q-24 -1 -35 12.5t-10 30.5q1 20 14.5 34t35.5 15q24 1 34.5 -11t9.5 -30q-1 -20 -13.5 -35t-35.5 -16zM-31 -178l-16 23q47 43 69 75q16 26 16 50q0 37 -37 66q38 32 63 65q23 -21 42 -50q11 -19 11 -37q0 -38 -38 -82q-30 -39 -110 -110z" />
    <glyph glyph-name="less" unicode="&#x3c;" horiz-adv-x="442" 
d="M20 273v27l372 185l15 -32l-335 -167l335 -166l-15 -32z" />
    <glyph glyph-name="equal" unicode="=" horiz-adv-x="469" 
d="M28 343v35h416v-35h-416zM28 197v36h416v-36h-416z" />
    <glyph glyph-name="greater" unicode="&#x3e;" horiz-adv-x="442" 
d="M415 301v-27l-372 -185l-15 32l335 167l-335 166l15 32z" />
    <glyph glyph-name="question" unicode="?" horiz-adv-x="388" 
d="M114 135l-28 2q30 85 45 167q43 -21 91 -24q46 -3 77 17.5t44 48.5q8 19 8 43q0 79 -76 122q-43 24 -98.5 38t-101.5 10q26 41 40 96q17 -13 70 -31q9 -3 30.5 -10.5t33.5 -12.5t29.5 -13t30.5 -17q80 -53 80 -153q0 -40 -15 -79q-17 -48 -63 -88t-96 -40q-39 0 -72 13
q-13 -32 -29 -89zM75 -12q-24 -1 -35 13t-10 32q1 20 15 35t37 16t34 -12t10 -31q-1 -21 -14.5 -36.5t-36.5 -16.5z" />
    <glyph glyph-name="at" unicode="@" horiz-adv-x="806" 
d="M457 -13q-20 0 -30.5 13t-9.5 32q-101 -43 -125 -43q-43 0 -66.5 35t-17.5 94q10 101 57 185q45 77 130 112q52 25 127 20q11 -1 35 -5.5t37 -5.5q-16 -19 -27 -52q-49 -174 -65 -274q-5 -28 7 -40t39 -11q25 0 52.5 20.5t44.5 44.5q56 81 71 192q4 28 4 59
q0 112 -62.5 164.5t-152.5 52.5q-76 0 -141 -23.5t-108 -59t-76.5 -82.5t-51.5 -87t-29 -81q-25 -90 -25 -167q0 -109 59 -175.5t196 -66.5q78 0 156 30l10 -27q-83 -37 -171 -37q-149 0 -218 72.5t-69 197.5q0 82 28 183q45 166 165.5 260.5t280.5 94.5q115 0 180.5 -63.5
t65.5 -179.5q0 -37 -5 -67q-17 -121 -76 -202q-42 -58 -94 -85.5t-125 -27.5zM281 135q-11 -88 54 -88q25 0 88 14q14 63 43.5 176.5t36.5 146.5q-18 8 -51 13q-82 9 -129 -102q-36 -87 -42 -160z" />
    <glyph glyph-name="A" unicode="A" horiz-adv-x="709" 
d="M381 -3l3 26q24 5 34 7t26 7.5t22 12t10.5 17t3.5 24.5q-3 37 -16 104q-60 -3 -131 -3q-72 0 -132 3q-32 -50 -51 -99q-7 -21 -7 -29q0 -15 15 -24.5t53 -19.5l-8 -26q-51 6 -115 6t-117 -6q0 25 -1 24q49 12 68.5 23.5t43.5 42.5q120 161 266 426q35 61 31 112
q49 10 83 27q0 -26 9 -83q37 -232 97 -478q8 -30 23 -43t57 -25l-8 -26q-50 7 -118 7q-66 0 -141 -7zM221 228q47 -4 107 -4q57 0 130 5q-34 185 -61 305q-29 -48 -88.5 -153.5t-87.5 -152.5z" />
    <glyph glyph-name="B" unicode="B" horiz-adv-x="585" 
d="M100 3q-77 0 -135 -6l-1 24q73 10 93.5 25.5t33.5 66.5q12 48 41 196t42 230q5 34 -13.5 50t-77.5 26l7 24q50 -5 139 -5q26 0 71.5 2t70.5 2q85 0 124.5 -34.5t39.5 -82.5q0 -65 -34.5 -104t-107.5 -65v-5q64 -4 98.5 -34t36.5 -79q2 -37 -10 -74.5t-34 -61.5
q-93 -101 -269 -101q-20 0 -57 3t-58 3zM156 64q40 -16 109 -21q86 -6 132 43t46 130q0 56 -38 83t-87 27q-35 0 -66 -4q13 23 15 43q19 -4 44 -4q58 0 101 37.5t43 108.5q0 47 -31 71.5t-79 24.5q-53 0 -84 -5q-17 -70 -55 -266.5t-50 -267.5z" />
    <glyph glyph-name="C" unicode="C" horiz-adv-x="623" 
d="M37 249q0 134 84.5 245t216.5 141q40 10 85 10q39 0 89 -8q51 -7 67 -1q7 -81 27 -143l-22 -11q-10 24 -14 32q-25 44 -65 68q-61 35 -130 27q-114 -16 -183.5 -123t-69.5 -232q0 -61 20 -108.5t52 -74t65.5 -40t65.5 -14.5q59 -2 104 16t98 65l19 -13q-26 -36 -54 -81
q-84 -19 -182 -20q-118 0 -196 72t-77 193z" />
    <glyph glyph-name="D" unicode="D" horiz-adv-x="701" 
d="M-28 -3l-1 26q65 9 83.5 21t30.5 52q13 46 44 205.5t43 237.5q6 36 -10 49.5t-68 25.5l9 25q34 -5 116 -5q37 0 86 2.5t94 2.5q131 0 201.5 -63.5t72.5 -167.5q0 -143 -63 -230q-129 -180 -390 -180q-18 0 -72.5 2.5t-74.5 2.5q-41 0 -101 -6zM155 63q14 -6 61.5 -12
t66.5 -6q78 -1 138 28.5t95.5 80.5t53 112t17.5 129q0 97 -60.5 152.5t-187.5 55.5q-43 0 -73 -5q-14 -49 -58.5 -264t-52.5 -271z" />
    <glyph glyph-name="E" unicode="E" horiz-adv-x="565" 
d="M458 -6q-175 8 -361 8h-44q-34 0 -79 -5l-4 26q71 14 86.5 23.5t27.5 48.5t45 195.5t46 239.5q5 36 -12 52.5t-76 31.5l8 25q46 -6 144 -6q215 0 283 13q1 -31 9.5 -78t19.5 -72l-28 -9q-16 46 -42.5 71.5t-49.5 31.5t-59 7q-6 0 -21.5 0.5t-25.5 0.5q-35 0 -64 -3
q-12 -33 -54 -252q117 -2 235 37q-28 -40 -37 -99q-87 30 -203 31q-7 -27 -24.5 -119.5t-20.5 -142.5q72 -18 144 -18q70 0 111 26.5t90 96.5l27 -10q-42 -69 -71 -151z" />
    <glyph glyph-name="F" unicode="F" horiz-adv-x="494" 
d="M85 104q45 171 89 427q7 40 -10 54t-77 29l8 25q46 -6 144 -6q208 0 276 13q0 -30 9 -78t20 -72l-29 -9q-26 68 -53 87t-79 21q-12 1 -49 1q-53 0 -73 -1q-7 -19 -51 -248q120 -3 235 34q-29 -43 -38 -99q-97 33 -203 33q-30 -151 -39 -204q-5 -23 -5 -35q0 -23 18 -33
t72 -20l-7 -26q-73 6 -136 6t-137 -6l-1 26q66 9 86.5 24.5t29.5 56.5z" />
    <glyph glyph-name="G" unicode="G" horiz-adv-x="697" 
d="M38 252q0 133 81.5 243t211.5 140q40 10 85 10q39 0 89 -8q51 -7 67 -1q5 -73 27 -143l-23 -11q-5 18 -13 32q-29 46 -66 68q-60 35 -129 27q-111 -15 -179.5 -120t-68.5 -228q0 -104 55 -163.5t140 -61.5q83 -2 166 23q21 78 29 130q7 40 -9 60.5t-70 32.5l10 25
q64 -9 119 -9q45 0 103 7l-2 -26q-31 -11 -45.5 -27t-24.5 -54q-25 -87 -28 -151q-198 -63 -277 -63q-98 0 -173 70.5t-75 197.5z" />
    <glyph glyph-name="H" unicode="H" horiz-adv-x="757" 
d="M88 614l10 25q70 -7 135 -7q61 0 130 7l-2 -25q-61 -7 -80 -20.5t-28 -53.5q-22 -84 -40 -176q84 -3 186 -3q100 0 187 3q22 118 31 171q6 40 -8 54t-75 25l9 25q71 -7 135 -7q60 0 129 7l-1 -25q-61 -7 -79.5 -20.5t-29.5 -53.5q-45 -179 -90 -440q-7 -41 7 -54t76 -23
l-7 -26q-73 6 -134 6q-60 0 -134 -6v26q65 8 84 21t29 52q31 123 51 231q-114 2 -187 2t-187 -2q-12 -61 -43 -227q-7 -41 7 -54t76 -23l-8 -26q-72 6 -132 6q-61 0 -135 -6l-1 26q66 8 85 21t30 52q43 174 88 439q7 39 -7.5 53.5t-76.5 25.5z" />
    <glyph glyph-name="I" unicode="I" horiz-adv-x="314" 
d="M88 614l10 25q70 -7 135 -7q61 0 130 7l-2 -25q-61 -7 -80 -20.5t-28 -53.5q-45 -171 -91 -440q-7 -41 7 -54t76 -23l-8 -26q-72 6 -132 6q-61 0 -135 -6l-1 26q66 8 85 21t30 52q43 174 88 439q7 39 -7.5 53.5t-76.5 25.5z" />
    <glyph glyph-name="J" unicode="J" horiz-adv-x="314" 
d="M106 174q41 206 65 368q6 39 -8 51.5t-75 20.5l10 25h1q77 -8 130 -8q54 0 134 8l-2 -25q-63 -12 -80.5 -22.5t-26.5 -48.5q-32 -129 -79 -388q-28 -146 -141 -253q-26 -25 -37 -34.5t-33.5 -24t-46 -18.5t-52.5 0q-42 5 -95 6q21 38 35 93q48 -21 121 -21q53 0 78 16
q32 21 61 97q21 50 41 158z" />
    <glyph glyph-name="K" unicode="K" horiz-adv-x="671" 
d="M211 355q129 108 214 166.5t214 131.5q-3 -39 11 -91q-138 -43 -206 -78t-158 -107q123 -201 172 -262q35 -44 65.5 -65.5t75.5 -26.5l-6 -26q-35 6 -105 6q-76 0 -87 -6q-3 43 -23 80q-70 140 -167 278zM88 614l10 25q70 -7 135 -7q61 0 130 7l-2 -25q-61 -7 -80 -20.5
t-28 -53.5q-45 -171 -91 -440q-7 -41 7 -54t76 -23l-8 -26q-72 6 -132 6q-61 0 -135 -6l-1 26q66 8 85 21t30 52q43 174 88 439q7 39 -7.5 53.5t-76.5 25.5z" />
    <glyph glyph-name="L" unicode="L" horiz-adv-x="549" 
d="M253 540q-62 -262 -98 -490q72 -18 146 -18q70 0 111 26.5t90 96.5l27 -10q-42 -69 -71 -151q-175 8 -361 8h-44q-34 0 -79 -5l-4 26q68 11 85.5 24.5t28.5 55.5q39 144 89 433q7 38 -9.5 53t-75.5 25l10 25h1q77 -8 130 -8q54 0 134 8l-2 -25q-61 -11 -79.5 -23
t-28.5 -51z" />
    <glyph glyph-name="M" unicode="M" horiz-adv-x="905" 
d="M390 7l-26 -1q-16 77 -60 225q-13 41 -46.5 142t-52.5 158q-6 -35 -24 -125.5t-30.5 -162t-22.5 -138.5q-4 -23 -0.5 -39t15.5 -24.5t22.5 -12.5t30.5 -8l-9 -26q-28 7 -125 7q-68 0 -96 -5l-1 26q92 17 114 86q36 115 90 416q7 44 -9 61t-75 28l9 25q55 -7 94 -7
q34 0 88 6q-5 -27 13 -97q50 -178 134 -411q133 178 296 412q46 64 47 97q37 -6 99 -6q57 0 94 6l-2 -25q-61 -6 -83 -18t-31 -45q-20 -77 -48.5 -222.5t-38.5 -222.5q0 -4 -1.5 -15t-1.5 -16q0 -24 16.5 -34t67.5 -18l-9 -26q-75 6 -136 6q-62 0 -134 -6l-1 26
q71 8 88.5 21t29.5 64q57 255 83 423q-15 -21 -101 -137.5t-134 -184.5q-101 -142 -133 -202z" />
    <glyph glyph-name="N" unicode="N" horiz-adv-x="734" 
d="M206 536q-9 -44 -42 -220.5t-35 -195.5q-2 -14 -2 -35q0 -31 14.5 -42.5t58.5 -19.5l-8 -26q-38 5 -112 5q-67 0 -109 -5l-2 26q64 8 84 24.5t35 77.5q29 116 85 409q7 39 -8 53t-73 26l9 26q41 -5 78 -5q28 0 76 5q9 -48 35 -94q40 -71 90.5 -151t109.5 -168.5
t83 -126.5q48 218 79 430q2 15 2 25.5t-0.5 18.5t-6.5 14l-9 9t-15 7t-18.5 5.5t-24.5 5.5l8 25q34 -6 85 -6t112 6l2 -25q-45 -7 -63.5 -25.5t-29.5 -59.5q-35 -127 -81 -401q-8 -44 -8 -71q0 -22 4 -43q-35 -13 -58 -30q-33 55 -175.5 280.5t-169.5 271.5z" />
    <glyph glyph-name="O" unicode="O" horiz-adv-x="723" 
d="M312 -21q-127 0 -198.5 82.5t-71.5 194.5q2 103 41 179q44 88 133.5 153t202.5 65q121 0 193.5 -83t72.5 -205q0 -116 -59 -208q-46 -75 -129.5 -126.5t-184.5 -51.5zM123 272q0 -63 20.5 -112.5t54 -78t71 -42.5t76.5 -14q70 0 117.5 27t88.5 95q54 91 54 205
q0 68 -22.5 120.5t-58 80.5t-73 41.5t-73.5 13.5q-46 0 -84 -16t-82 -67q-40 -46 -64.5 -113t-24.5 -140z" />
    <glyph glyph-name="P" unicode="P" horiz-adv-x="587" 
d="M260 593q-51 -203 -100 -493q-3 -18 -3 -29q0 -22 16 -31t66 -17l-7 -26q-74 6 -133 6q-60 0 -134 -6l-1 26q66 8 85 21t29 52q44 188 88 433q7 43 -9.5 60t-74.5 25l5 25q55 -7 119 -7q24 0 84 2.5t86 2.5q203 0 203 -140q0 -23 -4 -43q-13 -79 -76.5 -133.5
t-159.5 -54.5q-16 0 -52 10t-49 18q21 18 32 37q35 -31 76 -31q60 0 97.5 43t48.5 101q3 15 3 30q0 56 -38 92t-122 36q-37 0 -75 -9z" />
    <glyph glyph-name="Q" unicode="Q" horiz-adv-x="723" 
d="M476 -232q-148 13 -238.5 39.5t-196.5 85.5q-21 12 -79 50q25 20 32 42q43 -24 79 -26q61 -4 182 25q-101 19 -157 96.5t-56 175.5q2 103 41 179q44 88 133.5 153t202.5 65q121 0 193.5 -83t72.5 -205q0 -116 -59 -208q-33 -54 -87.5 -97.5t-121.5 -64.5h3
q-201 -64 -312 -70q93 -39 172.5 -56.5t202.5 -24.5q13 -1 37 -1q44 0 85 9q-41 -58 -46 -87q-42 -2 -83 3zM123 272q0 -122 68.5 -186.5t153.5 -64.5q67 0 114.5 26.5t91.5 99.5q54 91 54 205q0 68 -22.5 120.5t-58 80.5t-73 41.5t-73.5 13.5q-46 0 -84 -16t-82 -67
q-40 -46 -64.5 -113t-24.5 -140z" />
    <glyph glyph-name="R" unicode="R" 
d="M259 595q-39 -165 -99 -495q-3 -18 -3 -29q0 -22 16.5 -31t66.5 -17l-7 -26q-73 6 -133 6t-135 -6v26q66 8 84.5 21t27.5 52q39 161 88 433q7 43 -8.5 58.5t-74.5 26.5l5 25q55 -7 119 -7q24 0 75.5 2.5t77.5 2.5q104 0 161 -30.5t57 -109.5q0 -9 -2 -31
q-11 -79 -73 -125.5t-162 -46.5q-14 0 -27 3q13 -31 42 -78t82 -109.5t108 -100.5q-25 -13 -70 -69q-60 54 -135 175t-106 207q9 4 21 17q39 -14 86 -14q64 0 103 38t49 96q10 63 -28.5 104t-135.5 41q-39 0 -70 -9z" />
    <glyph glyph-name="S" unicode="S" horiz-adv-x="505" 
d="M418 69q-68 -90 -167 -90q-60 0 -139 29q-126 46 -135 48q32 42 47 94q41 -30 99 -60t110 -43q35 -9 60 -9q55 0 89 42q21 27 21 61q0 60 -58 109q-34 30 -91.5 70.5t-93.5 68.5q-47 37 -47 93q0 24 9 46q11 28 37.5 53.5t54.5 39.5q36 18 79 18q10 0 36 -2q76 -4 84 -4
q23 0 32 5q4 -68 26 -143l-26 -10q-4 18 -12 33q-21 37 -56 58t-69 25q-47 6 -74 -8q-51 -26 -48 -80q4 -42 37 -69q28 -22 80 -58t89 -65q71 -56 71 -133q0 -60 -45 -119z" />
    <glyph glyph-name="T" unicode="T" horiz-adv-x="581" 
d="M224 102q42 174 101 501q-28 1 -77 1q-50 0 -81.5 -15t-49 -35.5t-49.5 -71.5l-27 11q18 26 45.5 78.5t34.5 75.5q112 -13 247 -13q155 0 243 15q3 -68 35 -155l-26 -9q-37 77 -61.5 97.5t-84.5 21.5q-57 0 -77 -1q-48 -225 -95 -500q-4 -26 -4 -32q0 -23 18 -32.5
t72 -15.5l-8 -26q-72 6 -138 6t-141 -6l-2 26q73 9 94 23.5t31 55.5z" />
    <glyph glyph-name="U" unicode="U" horiz-adv-x="703" 
d="M287 -25q-102 2 -152.5 52t-50.5 134q0 34 7 66q1 6 29.5 138.5t34.5 164.5q3 20 3 32q0 26 -14.5 36t-54.5 17l9 24q64 -8 115 -8q59 0 120 8l1 -24q-57 -11 -74 -23.5t-28 -59.5q-28 -104 -60 -292q-6 -36 -6 -67q0 -153 153 -153q104 0 152 46t70 129q51 194 68 336
q5 41 -7 58.5t-65 25.5l8 24q61 -8 107 -8q41 0 102 8l1 -24q-51 -7 -68 -23t-30 -63q-5 -19 -78 -343q-49 -220 -292 -211z" />
    <glyph glyph-name="V" unicode="V" horiz-adv-x="585" 
d="M197 121q-10 179 -38 400q-6 45 -19.5 63.5t-58.5 29.5l7 25q44 -10 104 -10q62 0 113 10l3 -25q-46 -11 -58.5 -26.5t-9.5 -52.5l27 -356q4 -58 3 -69q12 20 40 57t56.5 72.5t31.5 39.5q69 90 94 144.5t25 113.5q0 29 -7 87q55 12 96 46q2 -24 2 -37q0 -83 -45 -172.5
t-136 -197.5q-64 -77 -106 -135t-96 -153l-26 9q1 5 1 29q0 72 -3 108z" />
    <glyph glyph-name="W" unicode="W" horiz-adv-x="952" 
d="M197 -21q1 17 1 47q0 18 -4 126q-1 29 -12.5 163t-21.5 210q-6 44 -19 61t-57 28l7 25q44 -10 104 -10q61 0 112 10l4 -25q-47 -9 -59.5 -24.5t-10.5 -52.5q7 -173 28 -361q1 -6 2 -22.5t1.5 -30.5t1.5 -16q195 272 262 367q-18 103 -42 141q58 14 117 41q-4 -44 -4 -88
q0 -54 8 -132q1 -18 11 -112.5t12 -148.5q4 -50 3 -68q12 20 39 57t56 73.5t31 39.5q62 84 86.5 148.5t24.5 138.5q0 28 -3 60q58 13 100 46q17 -168 -179 -407q-153 -191 -199 -288l-26 9q2 10 2 30q0 45 -5 105q-11 193 -26 305q-132 -177 -224 -310q-57 -82 -94 -145z
" />
    <glyph glyph-name="X" unicode="X" horiz-adv-x="699" 
d="M633 23l-8 -26q-49 6 -97 6q-49 0 -103 -6q3 16 3 32q0 32 -12 66q-35 110 -72 199q-111 -121 -142 -161q-35 -45 -35 -70q0 -26 35 -40l-7 -26q-38 5 -106 5q-66 0 -121 -5l-1 26q37 7 71.5 25.5t50.5 32t42 37.5q79 75 201 207q-11 29 -27.5 66.5t-37.5 83t-28 60.5
q-17 40 -36 54.5t-78 24.5l9 25q47 -5 90 -5q40 0 103 5q-6 -15 -6 -35q0 -36 16 -88q19 -58 56 -143q95 92 145 162q18 25 18 41q0 24 -40 36l9 25q51 -6 95 -6q46 0 102 6l3 -25q-69 -21 -133 -82q-136 -134 -187 -190q12 -32 45 -107.5t45 -96.5q34 -66 53.5 -82.5
t84.5 -30.5z" />
    <glyph glyph-name="Y" unicode="Y" horiz-adv-x="606" 
d="M573 549q-145 -203 -242 -377q-16 -30 -53.5 -103t-58 -110t-53.5 -79.5t-64 -59.5q-4 58 -40 98q79 34 128 91t88 145q-53 223 -113 393q-12 34 -24.5 45.5t-55.5 21.5l8 25q54 -8 99 -8q40 0 116 8l3 -25q-40 -7 -54.5 -21.5t-8.5 -43.5q22 -114 83 -305q33 57 94 153
t88 141q10 16 10 31q0 32 -63 45l8 25q50 -5 101 -5q56 0 91 5l2 -25q-30 -4 -47.5 -18t-41.5 -47z" />
    <glyph glyph-name="Z" unicode="Z" horiz-adv-x="586" 
d="M452 -28q-43 23 -115 38t-130 15q-110 0 -232 -39l-13 28q60 38 153 142q40 44 164 181.5t200 221.5q-74 -29 -135 -29q-33 0 -111 14q-41 7 -65 -10t-54 -67l-26 11q20 31 45.5 83t33.5 87q91 -44 214 -44q131 0 202 52l16 -19l-93 -93q-32 -34 -416 -466q77 22 138 22
q44 0 160 -17q19 -3 34 -3q32 0 52.5 16t55.5 63l22 -14q-63 -92 -100 -173z" />
    <glyph glyph-name="bracketleft" unicode="[" horiz-adv-x="312" 
d="M-29 -147q31 91 96 402.5t70 391.5q122 -2 199 23l3 -33q-58 -17 -125 -19q-72 -284 -154 -739q56 -1 119 -26l-14 -31q-65 31 -194 31z" />
    <glyph glyph-name="backslash" unicode="\" horiz-adv-x="383" 
d="M92 674l34 7q101 -410 189 -743l-35 -7q-83 339 -188 743z" />
    <glyph glyph-name="bracketright" unicode="]" horiz-adv-x="312" 
d="M325 639q-31 -91 -96 -402.5t-70 -391.5q-122 2 -199 -23l-3 33q58 17 125 19q72 284 154 739q-56 1 -119 26l14 31q65 -31 194 -31z" />
    <glyph glyph-name="asciicircum" unicode="^" horiz-adv-x="360" 
d="M65 388l-29 17l153 254h19l152 -254l-28 -17l-134 221z" />
    <glyph glyph-name="underscore" unicode="_" horiz-adv-x="415" 
d="M-59 -94v36h414v-36h-414z" />
    <glyph glyph-name="grave" unicode="`" horiz-adv-x="364" 
d="M242 500l-23 -10q-40 84 -98 158q46 11 76 35q7 -76 45 -183z" />
    <glyph glyph-name="a" unicode="a" horiz-adv-x="458" 
d="M280 -13q-21 0 -31.5 13t-9.5 33q-100 -44 -128 -44q-43 0 -67 36t-18 95q9 99 59 188q42 76 130 115q55 24 130 19q10 -1 21.5 -2.5t26.5 -4.5t25 -4q-17 -22 -26 -53q-51 -177 -67 -278q-10 -53 48 -53q21 0 44 3l4 -21q-99 -42 -141 -42zM100 136q-11 -88 55 -88
q39 0 90 15q14 62 43.5 177t37.5 150q-16 8 -51 14q-84 7 -132 -105q-36 -83 -43 -163z" />
    <glyph glyph-name="b" unicode="b" horiz-adv-x="424" 
d="M136 -11q-18 0 -58.5 12t-57.5 23q19 33 65.5 246t62.5 329q5 35 -13 44.5t-60 4.5l-3 27q104 13 168 35q-9 -33 -31 -134.5t-31 -154.5q84 26 111 25q51 -1 79 -36.5t28 -93.5q0 -22 -2 -34q-13 -84 -43 -145q-34 -72 -120 -122q-44 -26 -95 -26zM105 53q40 -24 70 -24
q40 0 72.5 39t51.5 101q26 78 22 145q-4 81 -74 81q-39 0 -75 -10q-56 -253 -67 -332z" />
    <glyph glyph-name="c" unicode="c" horiz-adv-x="367" 
d="M31 116q0 88 42 169q31 62 86 110q51 48 98 47q14 0 49.5 -4t50.5 -5q-24 -56 -29 -87q-56 27 -98 31q-36 6 -57 -10.5t-35 -48.5q-38 -95 -38 -178q0 -37 16 -71.5t51 -34.5q49 0 127 22l8 -21q-110 -56 -169 -56q-51 0 -76.5 41.5t-25.5 95.5z" />
    <glyph glyph-name="d" unicode="d" horiz-adv-x="458" 
d="M445 620q-95 -323 -128 -522q-8 -52 48 -52q22 0 43 3l4 -21q-101 -41 -139 -41q-20 0 -30.5 13t-9.5 32q-101 -43 -126 -43q-43 0 -67.5 35.5t-19.5 93.5q11 108 58 191q16 29 50.5 62t80.5 52t90 19q9 0 35 -2q27 107 35 155q7 34 -2 46.5t-35 12.5q-7 0 -33 -2l-4 26
q140 19 180 29q-14 -30 -30 -87zM94 135q-10 -88 57 -88q26 0 87 14q14 62 43.5 177.5t37.5 149.5q-24 10 -54 12q-45 4 -75.5 -19.5t-54.5 -79.5q-32 -71 -41 -166z" />
    <glyph glyph-name="e" unicode="e" horiz-adv-x="374" 
d="M150 -14q-61 0 -90 41t-29 99q0 110 52 198q29 50 75.5 85.5t94.5 35.5q43 0 67.5 -23t24.5 -58q0 -51 -48.5 -76t-110.5 -25q-39 0 -66 9q-15 -70 -15 -137q1 -45 22 -71.5t58 -26.5q55 0 125 17l5 -24q-127 -44 -165 -44zM126 301q19 -8 65 -8q83 0 86 62q2 23 -14 35
t-38 12q-36 0 -60.5 -22t-38.5 -79z" />
    <glyph glyph-name="f" unicode="f" horiz-adv-x="295" 
d="M-117 -260q-75 22 -89 22q23 33 39 86q51 -29 94 -33q21 -3 37 3t26.5 15.5t20 29t14 34t11.5 39.5q39 147 84 459q-20 1 -46.5 -1t-30.5 -4l-3 14q67 20 85 29q3 12 8 45t10 55q4 15 7 26.5t8.5 22.5l8 16t11.5 15t11 12.5t15.5 15.5t17.5 16q19 18 32 28t33.5 19
t42.5 9q19 0 64.5 -11.5t56.5 -12.5q-24 -52 -31 -92q-22 17 -60 32t-55 18q-33 6 -51.5 -7.5t-31.5 -53.5q-15 -46 -30 -153q16 -2 52 -2q44 0 79 4q-21 -28 -30 -52q-58 13 -108 13q-10 -52 -23 -134t-25.5 -149t-28.5 -135q-18 -83 -95 -172q-71 -83 -130 -66z" />
    <glyph glyph-name="g" unicode="g" horiz-adv-x="431" 
d="M138 -249q-32 0 -111 11t-104 13q33 42 47 90q39 -18 94 -33t91 -15q45 0 69 11t45 37q17 21 17 42q0 22 -16.5 37.5t-37.5 20.5q-19 5 -76 8.5t-76 6.5q-43 6 -43 50q0 20 11 36q27 36 55 66q-47 26 -47 94q0 69 41 126q29 39 74.5 66t92.5 27q19 0 59 -10q32 -8 50 -8
q17 0 58 9q-24 -31 -29 -53q-21 -2 -65 11q15 -25 15 -79q0 -73 -46 -130q-23 -27 -63.5 -48t-76.5 -21q-17 0 -40 5q-18 -36 -18 -48q0 -22 33 -26q17 -2 64 -4t72 -8q24 -5 45.5 -32.5t21.5 -60.5q0 -19 -7 -34q-21 -51 -66 -94q-60 -63 -133 -63zM130 270q-3 -19 -3 -34
q0 -77 62 -79q40 -1 61 30.5t29 97.5q7 58 -11.5 84t-46.5 26q-72 2 -91 -125z" />
    <glyph glyph-name="h" unicode="h" horiz-adv-x="500" 
d="M115 6q-60 0 -110 -18q42 111 79 288q46 220 57 302q4 34 -5 48.5t-35 14.5q-14 0 -32 -3l-4 27q84 14 176 44q-26 -82 -64 -300q131 36 170 36q35 0 54 -28t14 -65q-5 -31 -23.5 -118.5t-23.5 -114.5q-3 -18 -3 -30q0 -25 12.5 -35.5t42.5 -10.5q9 0 35 2l7 -26
q-104 -30 -132 -30q-61 0 -45 76q42 184 52 250q12 72 -64 72q-50 0 -101 -12q-13 -51 -36 -189.5t-21 -179.5z" />
    <glyph glyph-name="i" unicode="i" horiz-adv-x="251" 
d="M203 447q-15 -41 -27 -81q-43 -169 -61 -263q-6 -35 5.5 -49t42.5 -15q15 -1 47 3q5 -23 5 -24q-102 -33 -140 -33q-23 0 -32 23t-5 53q4 23 31.5 136.5t33.5 147.5q9 44 -42 44q-13 0 -29 -3l-6 27q98 13 177 34zM188 557q-24 -1 -34.5 13t-9.5 31q1 19 14.5 33.5
t35.5 15.5q23 1 33.5 -11.5t9.5 -30.5q-1 -19 -14 -34.5t-35 -16.5z" />
    <glyph glyph-name="j" unicode="j" horiz-adv-x="251" 
d="M-135 -248q-12 3 -34 11t-38 12q27 40 38 79q28 -20 70.5 -36t62.5 -7q36 17 78 195q44 199 64 339q7 43 -39 43q-13 0 -31 -3l-6 29q68 8 171 33q-31 -124 -98 -469q-13 -64 -31.5 -100t-74.5 -82q-61 -49 -104 -49q-11 0 -28 5zM188 557q-24 -1 -34.5 13t-9.5 31
q1 19 14.5 33.5t35.5 15.5q23 1 33.5 -11.5t9.5 -30.5q-1 -19 -14 -34.5t-35 -16.5z" />
    <glyph glyph-name="k" unicode="k" horiz-adv-x="495" 
d="M325 -8q-14 1 -22.5 3.5t-16 12.5t-7.5 28q0 22 6 42q13 74 13 82q1 47 -27.5 74.5t-74.5 25.5q-15 0 -27 -1l9 33q80 1 137 80q33 44 64 63t84 17q-25 -37 -33 -84q-35 6 -57 -2.5t-41 -28.5q-46 -42 -76 -52q113 -12 112 -115q0 -32 -4 -59q-7 -37 1.5 -51t37.5 -14
q9 0 45 4l6 -27q-6 -2 -28.5 -8.5t-38.5 -11t-34.5 -8.5t-27.5 -3zM119 7q-61 0 -110 -19q37 96 79 288q36 165 57 301q6 34 -2.5 48t-34.5 14q-17 0 -36 -4l-3 29q81 12 179 44q-41 -156 -82.5 -368t-46.5 -333z" />
    <glyph glyph-name="l" unicode="l" horiz-adv-x="253" 
d="M255 710q-25 -74 -68.5 -260t-74.5 -342q-15 -72 45 -72q23 0 48 5q3 -25 3 -26q-99 -30 -138 -30q-38 0 -38 50q0 23 16 90q11 48 34 139.5t40 167.5t29 147q7 43 -9 56t-64 8l-3 28q118 10 180 39z" />
    <glyph glyph-name="m" unicode="m" horiz-adv-x="693" 
d="M21 -13q23 42 55.5 169t40.5 188q4 24 -7 33.5t-40 9.5q-9 0 -35 -2l-2 28q66 6 180 37q-9 -27 -13 -45q122 42 139 41q46 0 55 -42q1 0 40 14t65 21t40 7q37 0 55.5 -29t11.5 -72q-5 -40 -23 -113.5t-23 -107.5q-3 -18 -3 -31q0 -27 13.5 -38t45.5 -11q7 0 29 2l2 -25
q-97 -31 -140 -31q-27 0 -35 23t1 48q41 144 60 254q5 30 -7 50t-36 20q-34 0 -93 -13q0 -34 -6 -57q-48 -211 -50 -311q-47 0 -100 -16q43 108 84 329q6 29 -9 48.5t-36 19.5q-32 0 -89 -13q-63 -260 -66 -367q-55 -1 -104 -18z" />
    <glyph glyph-name="n" unicode="n" horiz-adv-x="506" 
d="M209 450l-13 -45q129 40 168 40q30 0 49 -28t12 -66q-6 -33 -27.5 -120.5t-26.5 -111.5q-5 -25 -5 -38q0 -20 9.5 -28.5t32.5 -9.5q5 0 12.5 0.5t17.5 1.5t17 1l6 -25q-111 -32 -135 -32q-46 0 -46 38q0 12 9 50q54 215 60 242q6 34 -7 50t-54 16q-48 0 -97 -10
q-15 -54 -43.5 -191.5t-27.5 -177.5q-52 0 -99 -18q58 142 93 356q4 24 -8 34.5t-41 10.5q-20 0 -32 -2l-3 27q74 7 179 36z" />
    <glyph glyph-name="o" unicode="o" horiz-adv-x="445" 
d="M164 -16q-71 0 -102.5 42t-31.5 111q0 22 3 46q17 149 116 222q54 40 98 40q144 0 144 -151q0 -20 -1 -30q-15 -171 -120 -242q-57 -38 -106 -38zM101 142q2 -51 25.5 -80.5t64.5 -29.5q49 0 68.5 22.5t38.5 83.5q19 59 21 147q1 49 -24.5 80.5t-75.5 31.5q-36 0 -58 -22
t-39 -79q-23 -72 -21 -154z" />
    <glyph glyph-name="p" unicode="p" horiz-adv-x="465" 
d="M-102 -233l-1 27q22 6 31.5 9t25.5 11.5t25 20.5t19 33t18 50q47 175 97 451q-54 -9 -68 -14l-4 23l76 24q5 28 5 49q0 17 -3 31q47 4 107 23q-21 -54 -31 -89q107 32 138 32q46 0 68.5 -30.5t22.5 -79.5q0 -9 -2 -31q-11 -102 -60 -176q-44 -69 -106 -106
q-51 -32 -91 -32q-19 0 -60 9q-1 -7 -11 -54.5t-14 -73.5q-4 -35 11.5 -53t72.5 -26l-11 -28q-87 7 -132 7q-46 0 -123 -7zM119 57q42 -21 70 -21q45 0 81 49q31 40 52 99.5t26 112.5q5 51 -12.5 76t-72.5 21q-31 -2 -76 -11q-33 -144 -68 -326z" />
    <glyph glyph-name="q" unicode="q" horiz-adv-x="437" 
d="M385 378q-61 -215 -112 -500q-7 -36 6.5 -55t70.5 -28l-9 -28q-87 7 -127 7q-42 0 -119 -7l-1 27q53 12 75.5 31.5t37.5 78.5q23 93 30 128h-2q-101 -43 -125 -43q-43 0 -67 35t-18 94q11 109 58 191q39 74 130 113q46 20 98 20q19 0 29 -1q13 -1 39.5 -5.5t32.5 -5.5
q-18 -22 -27 -52zM97 135q-8 -88 57 -88q26 0 89 14q65 278 76 329q-16 9 -49 14q-83 7 -131 -103q-29 -72 -42 -166z" />
    <glyph glyph-name="r" unicode="r" horiz-adv-x="341" 
d="M27 -13q57 158 90 358q5 25 -5 36.5t-38 11.5q-7 0 -29 -2l-1 25q92 13 161 31q-10 -39 -26 -118q30 52 73 96q27 25 67 15q13 -4 32 -6q-25 -36 -39 -84q-16 10 -42 14q-25 3 -46 -19q-45 -49 -69 -140q-31 -135 -28 -201q-59 -5 -100 -17z" />
    <glyph glyph-name="s" unicode="s" horiz-adv-x="314" 
d="M4 12q30 53 36 81q43 -30 104 -40q42 -7 59 23q13 23 -24 73q-15 21 -50.5 58t-49.5 56q-21 29 -21 58q0 39 40 82q44 45 100 38q81 -11 95 -10q-28 -45 -38 -81q-43 25 -82 35q-38 11 -51 -4q-9 -11 -5.5 -31t15.5 -36q12 -18 50 -58.5t45 -49.5q29 -38 29 -71
q0 -34 -28 -80q-49 -80 -136 -65q-15 3 -44.5 11t-43.5 11z" />
    <glyph glyph-name="t" unicode="t" horiz-adv-x="293" 
d="M77 -20q-45 0 -45 62q0 13 3 31q6 32 34 154.5t36 169.5q-43 0 -54 -1l-4 16q28 5 67 20q18 76 17 114q42 -1 95 14q-18 -37 -43 -131q66 0 122 12q-17 -19 -31 -48q-62 5 -99 5q-47 -202 -57 -269q-4 -32 -4 -42q0 -24 12 -35.5t44 -10.5q17 0 55 4l5 -26
q-115 -39 -153 -39z" />
    <glyph glyph-name="u" unicode="u" horiz-adv-x="506" 
d="M314 -16q-23 0 -33 13t-5 36q-109 -46 -156 -46q-73 0 -73 68q0 32 17 97q37 154 41 182q6 34 -8.5 47t-65.5 9l-3 27q111 9 184 31q-15 -29 -31 -85q-44 -161 -53 -223q-3 -24 -3 -41q0 -29 11 -39t37 -11q50 0 108 16q4 20 23.5 101.5t28.5 122.5q17 88 16 142
q61 1 106 17q-34 -71 -58 -165q-26 -101 -36 -167q-3 -27 -3 -34q0 -42 29 -42q21 0 65 6l7 -22q-112 -40 -145 -40z" />
    <glyph glyph-name="v" unicode="v" horiz-adv-x="480" 
d="M170 -25l-26 5q1 11 1 34q0 43 -7 101q-17 168 -29 228q-8 38 -25 46.5t-60 5.5l-4 25q86 9 156 29q-1 -99 21 -256q8 -53 8 -104q27 36 40 49q59 66 86.5 123t27.5 120q0 19 -3 40q57 15 87 37q10 -112 -84 -231q-38 -50 -103 -126q-62 -73 -86 -126z" />
    <glyph glyph-name="w" unicode="w" horiz-adv-x="675" 
d="M306 427q53 5 88 19q-3 -34 15 -157q20 -144 20 -192q4 6 9.5 13.5t14 17.5t12.5 16q97 121 97 231q0 22 -3 46q49 11 83 37q4 -19 4 -41q0 -49 -21 -94t-60 -99q-13 -19 -46 -61t-48 -62q-58 -76 -76 -126l-24 5q1 13 1 38q0 43 -7 97q-8 80 -20 140q-60 -83 -105 -151
q-52 -80 -71 -129l-27 5q1 10 1 30q0 37 -8 105q-15 139 -35 225q-9 39 -25 47.5t-52 4.5l-4 26q95 11 150 30q-3 -62 23 -250q10 -87 10 -100q10 18 32 48q83 119 103 150q-11 82 -31 131z" />
    <glyph glyph-name="x" unicode="x" horiz-adv-x="527" 
d="M-33 -57q32 40 49 93q42 1 89 37q12 9 24 20t19.5 19.5t19 23t16.5 21t17.5 24t15.5 22.5q-7 31 -44 134q-19 49 -65 49q-14 0 -41 -5l-4 26q82 11 159 44q3 -56 46 -191q51 65 71 89q42 51 76.5 76t84.5 32q-25 -39 -37 -86q-45 -9 -88.5 -41.5t-97.5 -99.5
q19 -67 48 -127q18 -35 36 -48.5t51 -13.5q18 0 53 5l7 -24q-92 -33 -107 -37q-18 -3 -31 -3q-20 0 -33.5 9.5t-25.5 35.5q-23 46 -48 143l-75 -110q-38 -53 -57 -69q-57 -43 -128 -48z" />
    <glyph glyph-name="y" unicode="y" horiz-adv-x="474" 
d="M-103 -256q32 62 36 102q55 -9 108 -9q32 1 56.5 31.5t57.5 96.5q4 162 -40 358q-8 35 -21.5 49t-35.5 14q-13 0 -41 -7l-5 26q83 19 141 49q15 -19 28 -84q34 -203 37 -297q22 41 67.5 108.5t51.5 80.5q24 48 24 93q0 24 -8 51q41 17 79 55q9 -31 9 -60q0 -41 -21 -83.5
t-70 -104.5q-115 -146 -215 -366q-36 -82 -110 -89q-97 -8 -128 -14z" />
    <glyph glyph-name="z" unicode="z" horiz-adv-x="462" 
d="M5 -13l-12 20q62 59 173 183.5t166 178.5q-51 -12 -93 -12q-16 0 -64 4q-15 1 -28 0.5t-31.5 -15t-38.5 -44.5l-21 9q42 69 52 130q115 -18 182 -18q78 0 127 21l13 -18q-72 -67 -196.5 -204t-143.5 -157q52 11 106 11q32 0 85 -5q28 -3 50 12.5t46 59.5l21 -8
q-40 -76 -53 -140q-109 14 -192 14q-101 0 -148 -22z" />
    <glyph glyph-name="braceleft" unicode="{" horiz-adv-x="302" 
d="M177 -152l-15 -24q-67 28 -94 47q-38 28 -30 84q3 23 20.5 109t18.5 101q4 42 -9 61.5t-53 42.5l5 19q47 15 65 28t29 44q6 16 22.5 100t20.5 96q15 46 28.5 65.5t45.5 32.5q11 4 104 31l5 -27q-53 -20 -70.5 -34.5t-32.5 -57.5q-4 -13 -21.5 -93t-25.5 -102
q-15 -44 -47 -63q-27 -15 -78 -33q34 -17 60 -39q19 -15 23 -30t1 -48q-1 -12 -14.5 -94.5t-14.5 -93.5q-3 -26 -3 -43q0 -27 11.5 -42t48.5 -37z" />
    <glyph glyph-name="bar" unicode="|" horiz-adv-x="219" 
d="M105 675l36 1q-4 -328 -4 -578q0 -30 0.5 -84.5t0.5 -78.5h-34q2 266 2 464q0 195 -1 276z" />
    <glyph glyph-name="braceright" unicode="}" horiz-adv-x="302" 
d="M117 656l15 24q63 -26 95 -48q39 -26 29 -84q-3 -20 -15.5 -81t-13.5 -75q-4 -42 8.5 -61.5t52.5 -42.5l-4 -19q-47 -15 -65.5 -28t-29.5 -44q-5 -15 -29 -123.5t-28 -121.5q-13 -44 -27 -64t-45 -33q-5 -2 -105 -31l-5 26q52 19 69.5 34t32.5 58q5 14 30 119t32 125
q16 48 47 66q25 15 77 33q-28 14 -60 39q-18 15 -21.5 29t-1.5 46q0 12 10.5 68.5t10.5 66.5q2 30 2 39q0 29 -12 44.5t-49 38.5z" />
    <glyph glyph-name="asciitilde" unicode="~" horiz-adv-x="486" 
d="M265 315q61 -16 86 -16q37 0 88 38l23 -12q-44 -43 -97 -73q-25 -14 -53 -14q-23 0 -93 20q-62 19 -88 19q-38 0 -86 -31l-20 14q50 42 86 64q26 15 53 15q11 0 24 -2.5t22.5 -5.5t26.5 -8t28 -8z" />
    <glyph glyph-name="uni00A0" unicode="&#xa0;" horiz-adv-x="214" 
 />
    <glyph glyph-name="exclamdown" unicode="&#xa1;" horiz-adv-x="262" 
d="M90 -206q-20 4 -42 4q-15 0 -61 -6q76 237 135 479h27q-44 -280 -59 -477zM161 445q25 1 36 -13t10 -32q-1 -20 -15 -35t-37 -16q-24 -1 -35 12t-10 31q1 21 14.5 36.5t36.5 16.5z" />
    <glyph glyph-name="cent" unicode="&#xa2;" horiz-adv-x="367" 
d="M317 525l30 -12q-6 -16 -32 -80q4 0 19.5 -1.5t21.5 -1.5q-24 -57 -29 -85q-12 5 -42 15q-112 -278 -130 -325q8 -2 20 -2t22 1t26.5 4t24 5t25.5 6.5t21 5.5l7 -21q-39 -20 -88.5 -37t-78.5 -18q-22 -54 -32 -81l-29 13l29 74q-35 12 -52.5 49.5t-17.5 80.5q0 87 41 169
q33 62 86 110q53 46 98 45l27 -2zM100 139q0 -60 28 -89q83 203 128 319q-20 6 -26 6q-64 10 -91 -59q-37 -89 -39 -177z" />
    <glyph glyph-name="sterling" unicode="&#xa3;" horiz-adv-x="490" 
d="M113 195q9 43 19 135q-35 -1 -73 -10l-3 14q50 14 79 26q1 32 8 79q9 73 95 147q41 35 73.5 48.5t85.5 8.5q11 -1 24.5 -3.5t29.5 -5.5t24 -4q-26 -27 -44 -80q-44 20 -89 28q-16 3 -31 3q-45 0 -63.5 -31t-32.5 -103q-8 -41 -13 -86q90 -2 171 7q-19 -23 -31 -51
q-47 14 -144 14q-4 -33 -12 -74q-7 -40 -21.5 -70t-29.5 -48.5t-56 -64.5q66 13 126 13q32 0 84 -5q24 -3 40 -3q30 0 49.5 13.5t46.5 54.5l20 -11q-48 -66 -75 -143q-75 20 -201 20q-109 0 -185 -19q20 43 26 74q46 26 69 51.5t34 75.5z" />
    <glyph glyph-name="currency" unicode="&#xa4;" horiz-adv-x="419" 
d="M63 330q3 47 33 89l-77 70l33 34l70 -80q44 31 91 31q42 0 90 -29l70 76l32 -32l-78 -68q33 -42 33 -91q-1 -48 -35 -87l80 -69l-32 -34l-73 78q-49 -32 -95 -32t-88 28l-69 -73l-34 31l80 65q-34 43 -31 93zM106 330q-1 -42 29.5 -75t71.5 -33q46 0 77 32.5t33 75.5
q1 43 -31 76t-74 33q-45 0 -75 -32.5t-31 -76.5z" />
    <glyph glyph-name="yen" unicode="&#xa5;" horiz-adv-x="611" 
d="M499 529q-52 -75 -168 -263h114l-8 -35h-119l-12 -58h116l-7 -36h-115q-2 -14 -4 -22q-7 -41 9.5 -59t71.5 -33l-7 -26q-74 6 -133 6q-61 0 -135 -6v26q61 12 84.5 32t34.5 61q4 16 4 21h-116l7 36h119q1 5 5.5 25.5t6.5 32.5h-115l7 35h108q-34 137 -81 274
q-22 60 -81 74l8 25q54 -8 99 -8q40 0 116 8l3 -25q-72 -13 -60 -76q26 -128 64 -242q36 57 75 127.5t55 98.5q12 21 12 38q0 42 -55 53l8 25q48 -5 101 -5q56 0 91 5l2 -25q-58 -15 -105 -84z" />
    <glyph glyph-name="brokenbar" unicode="&#xa6;" horiz-adv-x="219" 
d="M106 291h32q-1 -66 -1 -187q0 -116 1 -169h-34zM138 354h-32q0 227 -1 321l36 1z" />
    <glyph glyph-name="section" unicode="&#xa7;" horiz-adv-x="341" 
d="M74 419q25 23 56 46q-22 28 -22 58q0 39 40 80q44 45 99 38q77 -11 94 -10q-29 -44 -37 -80q-47 26 -82 35q-37 11 -50 -4q-9 -12 -5.5 -31t14.5 -36q12 -18 57 -66t53 -59q24 -34 24 -63q0 -33 -39 -82q-15 -19 -51 -51q22 -32 22 -61q0 -34 -29 -79q-49 -79 -135 -64
q-16 3 -47 11.5t-41 10.5q27 43 37 80q44 -30 103 -39q16 -3 33 2t25 20q11 19 -23 72q-15 24 -60 74t-57 69q-19 28 -19 54q0 38 40 75zM105 339q11 -19 53 -65.5t52 -58.5q25 25 40 51q17 31 -6 67q-11 16 -28 35.5t-39 42.5t-32 34q-30 -27 -40 -41q-11 -16 -11 -32
t11 -33z" />
    <glyph glyph-name="dieresis" unicode="&#xa8;" horiz-adv-x="387" 
d="M116 525q-20 -1 -29.5 11t-8.5 27q1 16 12.5 28.5t30.5 13.5t28.5 -10t8.5 -26q-1 -17 -12 -30t-30 -14zM267 525q-20 -1 -29 10.5t-9 27.5q1 16 12.5 28.5t31.5 13.5q19 1 27.5 -10t8.5 -26q0 -17 -11 -30t-31 -14z" />
    <glyph glyph-name="copyright" unicode="&#xa9;" horiz-adv-x="843" 
d="M41 365q0 157 111.5 268.5t268.5 111.5q158 0 269.5 -111.5t111.5 -268.5t-111.5 -268.5t-269.5 -111.5q-157 0 -268.5 111.5t-111.5 268.5zM78 365q0 -142 100.5 -243t242.5 -101t243 101t101 243q0 143 -101 245t-243 102t-242.5 -102t-100.5 -245zM424 107
q-112 0 -175.5 65.5t-63.5 183.5q0 101 74.5 185t185.5 84q20 0 59 -6t59 -18q14 -49 32 -85l-15 -10q-61 91 -145 91q-72 0 -126.5 -62.5t-54.5 -166.5q0 -67 19.5 -116.5t49.5 -73.5t57.5 -34.5t51.5 -10.5q96 0 157 85l16 -6l-28 -68q-67 -37 -153 -37z" />
    <glyph glyph-name="ordfeminine" unicode="&#xaa;" horiz-adv-x="403" 
d="M265 314q-14 0 -22 9.5t-7 22.5q-7 -3 -23.5 -9.5t-26.5 -10.5t-22.5 -7.5t-19.5 -3.5q-36 0 -54.5 25.5t-14.5 69.5q9 79 42 136q30 52 102 83q42 20 91 14l67 -8q-3 -4 -7.5 -12.5t-8.5 -18.5l-4 -9q-34 -99 -46 -192q-3 -21 6.5 -31.5t28.5 -9.5q21 0 32 2l2 -19
q-83 -31 -115 -31zM142 417q-2 -29 6.5 -41.5t29.5 -12.5q18 0 61 9q20 95 56 228q-9 3 -37 6q-31 3 -50 -11.5t-36 -53.5q-25 -58 -30 -124z" />
    <glyph glyph-name="guillemotleft" unicode="&#xab;" horiz-adv-x="396" 
d="M154 58l-20 -13q-68 116 -111 171q98 86 180 169l15 -19q-55 -65 -108 -152q9 -52 15.5 -76t28.5 -80zM303 58l-20 -13q-68 116 -111 171q98 86 180 169l15 -19q-55 -65 -108 -152q9 -53 15.5 -76.5t28.5 -79.5z" />
    <glyph glyph-name="logicalnot" unicode="&#xac;" horiz-adv-x="442" 
d="M13 270v35h401v-180h-36v145h-365z" />
    <glyph glyph-name="uni00AD" unicode="&#xad;" horiz-adv-x="274" 
d="M23 255q9 29 9 50q52 -3 105 -3t105 3q-8 -22 -8 -50q-49 3 -100 3q-56 0 -111 -3z" />
    <glyph glyph-name="registered" unicode="&#xae;" horiz-adv-x="843" 
d="M41 365q0 157 111.5 268.5t268.5 111.5q158 0 269.5 -111.5t111.5 -268.5t-111.5 -268.5t-269.5 -111.5q-157 0 -268.5 111.5t-111.5 268.5zM78 365q0 -142 100.5 -243t242.5 -101t243 101t101 243q0 143 -101 245t-243 102t-242.5 -102t-100.5 -245zM299 611
q20 0 61.5 2.5t65.5 2.5q32 0 60 -5t55.5 -17.5t44 -38t16.5 -61.5q0 -66 -41.5 -104.5t-88.5 -38.5q-23 0 -29 3q38 -51 95.5 -110t113.5 -95q-43 -25 -62 -53q-44 40 -109.5 120.5t-110.5 151.5q10 8 21 23q22 -16 48 -16q47 0 72.5 25.5t25.5 74.5q0 57 -33 84.5
t-88 27.5q-22 0 -58 -4q-4 -104 -4 -215q0 -47 2 -169q1 -32 18.5 -43.5t67.5 -20.5l-6 -20q-51 4 -109 4q-59 0 -110 -4l-2 20q44 8 59 19t17 41q3 31 3 163q0 109 -3 169q-2 59 -75 70l3 20h2q38 -6 78 -6z" />
    <glyph glyph-name="macron" unicode="&#xaf;" horiz-adv-x="364" 
d="M282 564q-43 1 -125 1q-60 0 -92 -1q14 21 16 49q37 -2 108 -2t109 2q-9 -17 -16 -49z" />
    <glyph glyph-name="degree" unicode="&#xb0;" horiz-adv-x="322" 
d="M76 520q3 55 41 91t91 36q54 0 92 -35t38 -92q-1 -55 -41 -90.5t-95 -35.5q-53 0 -90.5 35t-35.5 91zM119 520q-1 -37 23.5 -62t61.5 -25q40 0 64.5 24.5t26.5 62.5q1 37 -24.5 62.5t-62.5 25.5q-39 0 -63.5 -25t-25.5 -63z" />
    <glyph glyph-name="plusminus" unicode="&#xb1;" horiz-adv-x="469" 
d="M23 68v36h189v166h-189v35h189v168h35v-168h190v-35h-190v-166h190v-36h-414z" />
    <glyph glyph-name="twosuperior" unicode="&#xb2;" horiz-adv-x="293" 
d="M197 522q54 60 54 99q0 12 -3.5 20.5t-19 16t-43.5 7.5q-31 0 -64 -14q20 37 25 66q18 6 57 6q56 0 79 -18.5t23 -55.5q0 -35 -20 -65t-63 -73l-85 -83q20 4 42 4q16 0 38 -2q8 -1 14.5 -1t11 0.5t9.5 3.5t7.5 4t7 6.5t6 7.5t7.5 11l8 12l18 -9q-32 -49 -56 -105
q-39 13 -93 13q-57 0 -110 -15q10 20 22 57q64 36 128 107z" />
    <glyph glyph-name="threesuperior" unicode="&#xb3;" horiz-adv-x="293" 
d="M153 358q-6 1 -42.5 12.5t-50.5 13.5q24 31 35 67q38 -27 56 -33q24 -8 44 -8q28 0 44 21q13 18 13 34q0 22 -23 48q-33 33 -79 37l-4 17q99 22 101 68q1 16 -13.5 24.5t-43.5 8.5q-24 0 -45 -7q18 32 20 62q20 2 42 2q87 0 87 -65q0 -47 -56 -81q36 -17 48 -46
q7 -14 7 -33q0 -32 -17 -60q-48 -93 -123 -82z" />
    <glyph glyph-name="acute" unicode="&#xb4;" horiz-adv-x="364" 
d="M118 496l-21 16q67 90 108 176q33 -33 60 -46q-83 -71 -147 -146z" />
    <glyph glyph-name="mu" unicode="&#xb5;" horiz-adv-x="629" 
d="M0 -245q6 333 136 691q29 -15 70 -21q-46 -97 -50 -173q-1 -10 -1 -31q0 -73 26 -120q23 -41 60 -41q27 0 53 22q44 35 77 98q51 97 71 261q31 -18 76 -26q-3 -10 -17.5 -57t-23.5 -79t-13 -54q-8 -40 -7 -69q2 -69 41 -76q22 -3 40 7t41 35l18 -14q-29 -50 -66 -86
t-59 -36q-46 0 -46 97q0 29 5 72q-55 -105 -134 -155q-26 -17 -53 -17q-34 0 -59 29q-52 63 -58 174q-51 -212 -48 -450q-37 16 -79 19z" />
    <glyph glyph-name="paragraph" unicode="&#xb6;" horiz-adv-x="518" 
d="M275 174q12 41 32 125q-14 -5 -33 -13t-27.5 -11.5t-21 -8t-20 -6t-17.5 -2.5t-21 -1q-55 1 -85.5 37t-30.5 81q0 114 89.5 190t207.5 76q14 0 65 -3.5t82 -3.5q43 0 72 5l-1 -25q-55 -8 -74.5 -22t-29.5 -52q-20 -80 -62.5 -283t-48.5 -257q-17 1 -46 -5
q16 60 71.5 304.5t67.5 305.5l-37 4q-31 -116 -104 -467q-11 -48 -22.5 -63.5t-46.5 -34.5q-23 -13 -123 -54q0 38 -21 83q58 6 117 31q34 13 47 26t21 44zM312 325q36 157 58 284q-15 2 -42 2q-29 0 -61 -11.5t-64.5 -35t-54.5 -68t-23 -101.5q-1 -35 17.5 -58t61.5 -24
q46 0 108 12z" />
    <glyph glyph-name="periodcentered" unicode="&#xb7;" horiz-adv-x="185" 
d="M92 247q-25 -1 -36 13t-10 32q1 20 15 35t37 16q24 1 35 -12t10 -31q-1 -21 -14.5 -36.5t-36.5 -16.5z" />
    <glyph glyph-name="cedilla" unicode="&#xb8;" horiz-adv-x="364" 
d="M133 -247l-15 18q21 18 37 40q17 25 10 53q-8 32 -20 55q35 36 72 90l29 -1l-43 -62q4 -9 16 -47q13 -46 -25 -89q-30 -34 -61 -57z" />
    <glyph glyph-name="onesuperior" unicode="&#xb9;" horiz-adv-x="293" 
d="M68 364l-2 23q52 8 66.5 18.5t23.5 39.5q25 77 50 238q-42 -8 -91 -38q3 5 12 42q28 12 89.5 25.5t71.5 13.5l4 -15q-24 -25 -32 -70q-4 -17 -39 -198q-4 -22 6 -34t53 -22l-5 -23q-67 5 -99 5q-31 0 -108 -5z" />
    <glyph glyph-name="ordmasculine" unicode="&#xba;" horiz-adv-x="353" 
d="M179 314q-47 0 -72 30t-25 83q0 9 2 29q11 102 87 159q40 29 76 29q56 0 80.5 -35.5t18.5 -93.5q-9 -117 -87 -173q-39 -28 -80 -28zM148 425q2 -39 14 -58t40 -19q20 0 34 15.5t27 54.5q20 61 17 115q-1 27 -4 40.5t-15.5 24.5t-36.5 11q-35 0 -59 -70q-20 -58 -17 -114
z" />
    <glyph glyph-name="guillemotright" unicode="&#xbb;" horiz-adv-x="396" 
d="M77 372l20 13q68 -116 111 -171q-98 -86 -180 -169l-15 19q55 65 108 152q-9 52 -15.5 76t-28.5 80zM227 372l20 13q68 -116 111 -171q-98 -86 -180 -169l-15 19q55 65 108 152q-9 52 -15.5 76t-28.5 80z" />
    <glyph glyph-name="onequarter" unicode="&#xbc;" horiz-adv-x="757" 
d="M716 653l22 -20q-165 -159 -667 -654l-21 21q266 256 666 653zM511 -35l-5 6q21 45 35 127q-34 2 -47 2q-51 0 -94 -10q0 12 -5 23q15 12 33.5 29t29 28t30.5 32.5t24 26.5q71 74 108 127l31 -9q-8 -23 -23.5 -96.5t-22.5 -119.5q45 0 79 18l6 -7q-27 -22 -52 -56
q-12 4 -40 8q-11 -73 -7 -95q-53 -15 -80 -34zM575 259q-66 -74 -121 -128q38 3 93 3q1 6 4.5 28.5t9.5 48t14 48.5zM53 288l-2 23q52 8 66.5 18.5t23.5 39.5q25 77 50 238q-42 -8 -91 -38q3 5 12 42q28 12 89.5 25.5t71.5 13.5l4 -15q-24 -25 -32 -70q-4 -17 -39 -198
q-4 -22 6 -34t53 -22l-5 -23q-67 5 -99 5q-31 0 -108 -5z" />
    <glyph glyph-name="onehalf" unicode="&#xbd;" horiz-adv-x="757" 
d="M587 156q54 60 54 99q0 12 -3.5 20.5t-19 16t-43.5 7.5q-31 0 -64 -14q20 37 25 66q18 6 57 6q56 0 79 -18.5t23 -55.5q0 -35 -20 -65t-63 -73l-85 -83q20 4 42 4q16 0 38 -2q8 -1 14.5 -1t11 0.5t9.5 3.5t7.5 4t7 6.5t6 7.5t7.5 11l8 12l18 -9q-32 -49 -56 -105
q-39 13 -93 13q-58 0 -110 -15q10 20 22 57q64 36 128 107zM63 284l-2 23q52 8 66.5 18.5t23.5 39.5q25 77 50 238q-42 -8 -91 -38q3 5 12 42q28 12 89.5 25.5t71.5 13.5l4 -15q-24 -25 -32 -70q-4 -17 -39 -198q-4 -22 6 -34t53 -22l-5 -23q-67 5 -99 5q-31 0 -108 -5z
M716 653l22 -20q-165 -159 -667 -654l-21 21q266 256 666 653z" />
    <glyph glyph-name="threequarters" unicode="&#xbe;" horiz-adv-x="757" 
d="M138 282q-6 1 -42.5 12.5t-50.5 13.5q24 31 35 67q38 -27 56 -33q24 -8 44 -8q28 0 44 21q13 18 13 34q0 22 -23 48q-33 33 -79 37l-4 17q99 22 101 68q2 33 -57 33q-24 0 -45 -7q18 32 20 62q20 2 42 2q87 0 87 -65q0 -47 -56 -81q36 -17 48 -46q7 -14 7 -33
q0 -32 -17 -60q-48 -93 -123 -82zM716 653l22 -20q-165 -159 -667 -654l-21 21q266 256 666 653zM511 -35l-5 6q21 45 35 127q-34 2 -47 2q-51 0 -94 -10q0 12 -5 23q15 12 33.5 29t29 28t30.5 32.5t24 26.5q71 74 108 127l31 -9q-8 -23 -23.5 -96.5t-22.5 -119.5
q45 0 79 18l6 -7q-27 -22 -52 -56q-12 4 -40 8q-11 -73 -7 -95q-53 -15 -80 -34zM575 259q-66 -74 -121 -128q38 3 93 3q1 6 4.5 28.5t9.5 48t14 48.5z" />
    <glyph glyph-name="questiondown" unicode="&#xbf;" horiz-adv-x="388" 
d="M267 301l28 -2q-30 -85 -45 -167q-43 21 -91 24q-46 3 -77 -17.5t-44 -48.5q-8 -19 -8 -43q0 -79 76 -122q43 -24 98.5 -38t101.5 -10q-26 -41 -40 -96q-17 13 -70 31q-9 3 -30.5 10.5t-33.5 12.5t-29.5 13t-30.5 17q-80 53 -80 153q0 40 15 79q17 48 63 88t96 40
q39 0 72 -13q13 32 29 89zM306 448q24 1 35 -13t10 -32q-1 -20 -15 -35t-37 -16t-34 12t-10 31q1 21 14.5 36.5t36.5 16.5z" />
    <glyph glyph-name="Agrave" unicode="&#xc0;" horiz-adv-x="709" 
d="M391 -3l3 26q24 5 34 7t26 7.5t22 12t10.5 17t3.5 24.5q-3 37 -16 104q-60 -3 -131 -3q-72 0 -132 3q-32 -50 -51 -99q-7 -21 -7 -29q0 -15 15 -24.5t53 -19.5l-8 -26q-51 6 -115 6t-117 -6q0 25 -1 24q49 12 68.5 23.5t43.5 42.5q120 161 266 426q35 61 31 112
q49 10 83 27q0 -26 9 -83q37 -232 97 -478q8 -30 23 -43t57 -25l-8 -26q-50 7 -118 7q-66 0 -141 -7zM231 228q47 -4 107 -4q57 0 130 5q-34 185 -61 305q-29 -48 -88.5 -153.5t-87.5 -152.5zM356 820q75 -50 170 -102l-12 -19q-76 28 -194 51q26 31 36 70z" />
    <glyph glyph-name="Aacute" unicode="&#xc1;" horiz-adv-x="709" 
d="M391 -3l3 26q24 5 34 7t26 7.5t22 12t10.5 17t3.5 24.5q-3 37 -16 104q-60 -3 -131 -3q-72 0 -132 3q-32 -50 -51 -99q-7 -21 -7 -29q0 -15 15 -24.5t53 -19.5l-8 -26q-51 6 -115 6t-117 -6q0 25 -1 24q49 12 68.5 23.5t43.5 42.5q120 161 266 426q35 61 31 112
q49 10 83 27q0 -26 9 -83q37 -232 97 -478q8 -30 23 -43t57 -25l-8 -26q-50 7 -118 7q-66 0 -141 -7zM231 228q47 -4 107 -4q57 0 130 5q-34 185 -61 305q-29 -48 -88.5 -153.5t-87.5 -152.5zM532 806q2 -37 14 -71q-123 -19 -193 -38l-6 19q132 60 185 90z" />
    <glyph glyph-name="Acircumflex" unicode="&#xc2;" horiz-adv-x="709" 
d="M391 -3l3 26q24 5 34 7t26 7.5t22 12t10.5 17t3.5 24.5q-3 37 -16 104q-60 -3 -131 -3q-72 0 -132 3q-32 -50 -51 -99q-7 -21 -7 -29q0 -15 15 -24.5t53 -19.5l-8 -26q-51 6 -115 6t-117 -6q0 25 -1 24q49 12 68.5 23.5t43.5 42.5q120 161 266 426q35 61 31 112
q49 10 83 27q0 -26 9 -83q37 -232 97 -478q8 -30 23 -43t57 -25l-8 -26q-50 7 -118 7q-66 0 -141 -7zM231 228q47 -4 107 -4q57 0 130 5q-34 185 -61 305q-29 -48 -88.5 -153.5t-87.5 -152.5zM556 700l-18 -17q-35 30 -86 60q-62 -27 -113 -60l-13 19q100 74 142 121
q34 -60 88 -123z" />
    <glyph glyph-name="Atilde" unicode="&#xc3;" horiz-adv-x="709" 
d="M391 -3l3 26q24 5 34 7t26 7.5t22 12t10.5 17t3.5 24.5q-3 37 -16 104q-60 -3 -131 -3q-72 0 -132 3q-32 -50 -51 -99q-7 -21 -7 -29q0 -15 15 -24.5t53 -19.5l-8 -26q-51 6 -115 6t-117 -6q0 25 -1 24q49 12 68.5 23.5t43.5 42.5q120 161 266 426q35 61 31 112
q49 10 83 27q0 -26 9 -83q37 -232 97 -478q8 -30 23 -43t57 -25l-8 -26q-50 7 -118 7q-66 0 -141 -7zM231 228q47 -4 107 -4q57 0 130 5q-34 185 -61 305q-29 -48 -88.5 -153.5t-87.5 -152.5zM543 804q17 10 30 27l19 -13q-35 -45 -69 -74q-20 -17 -43 -17q-16 0 -39 4
q-20 4 -38 4q-26 0 -45 -16q-27 -24 -31 -29l-19 14q36 44 65 68q30 24 51 24q10 0 40 -5q23 -3 35 -3q22 0 44 16z" />
    <glyph glyph-name="Adieresis" unicode="&#xc4;" horiz-adv-x="709" 
d="M391 -3l3 26q24 5 34 7t26 7.5t22 12t10.5 17t3.5 24.5q-3 37 -16 104q-60 -3 -131 -3q-72 0 -132 3q-32 -50 -51 -99q-7 -21 -7 -29q0 -15 15 -24.5t53 -19.5l-8 -26q-51 6 -115 6t-117 -6q0 25 -1 24q49 12 68.5 23.5t43.5 42.5q120 161 266 426q35 61 31 112
q49 10 83 27q0 -26 9 -83q37 -232 97 -478q8 -30 23 -43t57 -25l-8 -26q-50 7 -118 7q-66 0 -141 -7zM231 228q47 -4 107 -4q57 0 130 5q-34 185 -61 305q-29 -48 -88.5 -153.5t-87.5 -152.5zM367 700q-20 -1 -29.5 11t-8.5 27q1 16 12.5 28.5t30.5 13.5t28.5 -10t8.5 -26
q-1 -17 -12 -30t-30 -14zM518 700q-20 -1 -29 10.5t-9 27.5q1 16 12.5 28.5t31.5 13.5q19 1 27.5 -10t8.5 -26q0 -17 -11 -30t-31 -14z" />
    <glyph glyph-name="Aring" unicode="&#xc5;" horiz-adv-x="709" 
d="M391 -3l3 26q24 5 34 7t26 7.5t22 12t10.5 17t3.5 24.5q-3 37 -16 104q-60 -3 -131 -3q-72 0 -132 3q-32 -50 -51 -99q-7 -21 -7 -29q0 -15 15 -24.5t53 -19.5l-8 -26q-51 6 -115 6t-117 -6q0 25 -1 24q49 12 68.5 23.5t43.5 42.5q120 161 266 426q35 61 31 112
q49 10 83 27q0 -26 9 -83q37 -232 97 -478q8 -30 23 -43t57 -25l-8 -26q-50 7 -118 7q-66 0 -141 -7zM231 228q47 -4 107 -4q57 0 130 5q-34 185 -61 305q-29 -48 -88.5 -153.5t-87.5 -152.5zM379 756q5 33 30 53.5t55 20.5q33 0 50.5 -21t12.5 -53q-5 -36 -29.5 -56
t-56.5 -20q-31 0 -49.5 20.5t-12.5 55.5zM411 754q-2 -21 7 -33.5t27 -12.5q21 0 34 12.5t16 34.5q3 20 -6.5 34t-29.5 14q-41 0 -48 -49z" />
    <glyph glyph-name="AE" unicode="&#xc6;" horiz-adv-x="926" 
d="M819 -6q-175 8 -361 8h-44q-34 0 -79 -5l-4 26q64 17 86 35t34 59q10 39 18 78q-54 -3 -122 -3q-69 0 -115 3q-53 -61 -71 -99q-7 -15 -7 -28q0 -34 51 -45l-10 -26q-49 6 -113 6t-117 -6l-1 24q71 22 141 92q125 127 406 473q-17 13 -63 28l8 25q46 -6 144 -6
q215 0 283 13q1 -31 9.5 -78t19.5 -72l-28 -9q-16 46 -42.5 71.5t-49.5 31.5t-59 7q-6 0 -22 0.5t-26 0.5q-36 0 -63 -3q-12 -34 -54 -251q118 -2 234 37q-27 -41 -36 -99q-87 30 -204 31q-39 -185 -44 -263q72 -18 144 -18q70 0 111 26.5t90 96.5l27 -10q-42 -69 -71 -151z
M260 230q50 -5 101 -5q44 0 116 4q35 163 56 287q3 28 -2 43q-107 -128 -271 -329z" />
    <glyph glyph-name="Ccedilla" unicode="&#xc7;" horiz-adv-x="623" 
d="M206 -247l-15 18q21 18 37 40q17 25 10 53q-8 32 -20 55q31 35 55 67q-104 11 -170.5 81t-65.5 182q0 134 84.5 245t216.5 141q40 10 85 10q39 0 89 -8q51 -7 67 -1q7 -81 27 -143l-22 -11q-10 24 -14 32q-25 44 -65 68q-61 35 -130 27q-114 -16 -183.5 -123t-69.5 -232
q0 -61 20 -108.5t52 -74t65.5 -40t65.5 -14.5q59 -2 104 16t98 65l19 -13q-26 -36 -54 -81q-84 -19 -182 -20h-8l-26 -38q4 -9 16 -47q13 -46 -25 -89q-30 -34 -61 -57z" />
    <glyph glyph-name="Egrave" unicode="&#xc8;" horiz-adv-x="565" 
d="M458 -6q-175 8 -361 8h-44q-34 0 -79 -5l-4 26q71 14 86.5 23.5t27.5 48.5t45 195.5t46 239.5q5 36 -12 52.5t-76 31.5l8 25q46 -6 144 -6q215 0 283 13q1 -31 9.5 -78t19.5 -72l-28 -9q-16 46 -42.5 71.5t-49.5 31.5t-59 7q-6 0 -21.5 0.5t-25.5 0.5q-35 0 -64 -3
q-12 -33 -54 -252q117 -2 235 37q-28 -40 -37 -99q-87 30 -203 31q-7 -27 -24.5 -119.5t-20.5 -142.5q72 -18 144 -18q70 0 111 26.5t90 96.5l27 -10q-42 -69 -71 -151zM298 818q75 -50 170 -102l-12 -19q-76 28 -194 51q26 31 36 70z" />
    <glyph glyph-name="Eacute" unicode="&#xc9;" horiz-adv-x="565" 
d="M458 -6q-175 8 -361 8h-44q-34 0 -79 -5l-4 26q71 14 86.5 23.5t27.5 48.5t45 195.5t46 239.5q5 36 -12 52.5t-76 31.5l8 25q46 -6 144 -6q215 0 283 13q1 -31 9.5 -78t19.5 -72l-28 -9q-16 46 -42.5 71.5t-49.5 31.5t-59 7q-6 0 -21.5 0.5t-25.5 0.5q-35 0 -64 -3
q-12 -33 -54 -252q117 -2 235 37q-28 -40 -37 -99q-87 30 -203 31q-7 -27 -24.5 -119.5t-20.5 -142.5q72 -18 144 -18q70 0 111 26.5t90 96.5l27 -10q-42 -69 -71 -151zM469 809q2 -37 14 -71q-123 -19 -193 -38l-6 19q132 60 185 90z" />
    <glyph glyph-name="Ecircumflex" unicode="&#xca;" horiz-adv-x="565" 
d="M458 -6q-175 8 -361 8h-44q-34 0 -79 -5l-4 26q71 14 86.5 23.5t27.5 48.5t45 195.5t46 239.5q5 36 -12 52.5t-76 31.5l8 25q46 -6 144 -6q215 0 283 13q1 -31 9.5 -78t19.5 -72l-28 -9q-16 46 -42.5 71.5t-49.5 31.5t-59 7q-6 0 -21.5 0.5t-25.5 0.5q-35 0 -64 -3
q-12 -33 -54 -252q117 -2 235 37q-28 -40 -37 -99q-87 30 -203 31q-7 -27 -24.5 -119.5t-20.5 -142.5q72 -18 144 -18q70 0 111 26.5t90 96.5l27 -10q-42 -69 -71 -151zM488 710l-18 -17q-35 30 -86 60q-62 -27 -113 -60l-13 19q100 74 142 121q34 -60 88 -123z" />
    <glyph glyph-name="Edieresis" unicode="&#xcb;" horiz-adv-x="565" 
d="M458 -6q-175 8 -361 8h-44q-34 0 -79 -5l-4 26q71 14 86.5 23.5t27.5 48.5t45 195.5t46 239.5q5 36 -12 52.5t-76 31.5l8 25q46 -6 144 -6q215 0 283 13q1 -31 9.5 -78t19.5 -72l-28 -9q-16 46 -42.5 71.5t-49.5 31.5t-59 7q-6 0 -21.5 0.5t-25.5 0.5q-35 0 -64 -3
q-12 -33 -54 -252q117 -2 235 37q-28 -40 -37 -99q-87 30 -203 31q-7 -27 -24.5 -119.5t-20.5 -142.5q72 -18 144 -18q70 0 111 26.5t90 96.5l27 -10q-42 -69 -71 -151zM301 707q-20 -1 -29.5 11t-8.5 27q1 16 12.5 28.5t30.5 13.5t28.5 -10t8.5 -26q-1 -17 -12 -30t-30 -14
zM452 707q-20 -1 -29 10.5t-9 27.5q1 16 12.5 28.5t31.5 13.5q19 1 27.5 -10t8.5 -26q0 -17 -11 -30t-31 -14z" />
    <glyph glyph-name="Igrave" unicode="&#xcc;" horiz-adv-x="314" 
d="M88 614l10 25q70 -7 135 -7q61 0 130 7l-2 -25q-61 -7 -80 -20.5t-28 -53.5q-45 -171 -91 -440q-7 -41 7 -54t76 -23l-8 -26q-72 6 -132 6q-61 0 -135 -6l-1 26q66 8 85 21t30 52q43 174 88 439q7 39 -7.5 53.5t-76.5 25.5zM174 818q75 -50 170 -102l-12 -19
q-76 28 -194 51q26 31 36 70z" />
    <glyph glyph-name="Iacute" unicode="&#xcd;" horiz-adv-x="314" 
d="M88 614l10 25q70 -7 135 -7q61 0 130 7l-2 -25q-61 -7 -80 -20.5t-28 -53.5q-45 -171 -91 -440q-7 -41 7 -54t76 -23l-8 -26q-72 6 -132 6q-61 0 -135 -6l-1 26q66 8 85 21t30 52q43 174 88 439q7 39 -7.5 53.5t-76.5 25.5zM333 804q2 -37 14 -71q-123 -19 -193 -38
l-6 19q132 60 185 90z" />
    <glyph glyph-name="Icircumflex" unicode="&#xce;" horiz-adv-x="314" 
d="M88 614l10 25q70 -7 135 -7q61 0 130 7l-2 -25q-61 -7 -80 -20.5t-28 -53.5q-45 -171 -91 -440q-7 -41 7 -54t76 -23l-8 -26q-72 6 -132 6q-61 0 -135 -6l-1 26q66 8 85 21t30 52q43 174 88 439q7 39 -7.5 53.5t-76.5 25.5zM358 710l-18 -17q-35 30 -86 60
q-62 -27 -113 -60l-13 19q100 74 142 121q34 -60 88 -123z" />
    <glyph glyph-name="Idieresis" unicode="&#xcf;" horiz-adv-x="314" 
d="M88 614l10 25q70 -7 135 -7q61 0 130 7l-2 -25q-61 -7 -80 -20.5t-28 -53.5q-45 -171 -91 -440q-7 -41 7 -54t76 -23l-8 -26q-72 6 -132 6q-61 0 -135 -6l-1 26q66 8 85 21t30 52q43 174 88 439q7 39 -7.5 53.5t-76.5 25.5zM167 698q-20 -1 -29.5 11t-8.5 27
q1 16 12.5 28.5t30.5 13.5t28.5 -10t8.5 -26q-1 -17 -12 -30t-30 -14zM318 698q-20 -1 -29 10.5t-9 27.5q1 16 12.5 28.5t31.5 13.5q19 1 27.5 -10t8.5 -26q0 -17 -11 -30t-31 -14z" />
    <glyph glyph-name="Eth" unicode="&#xd0;" horiz-adv-x="701" 
d="M46 315l8 31q13 0 41 -0.5t42 -0.5q17 82 33 179q6 43 -12 61t-64 29l9 25q34 -5 116 -5q37 0 86 2.5t94 2.5q131 0 201.5 -63.5t72.5 -167.5q0 -143 -63 -230q-129 -180 -390 -180q-18 0 -72.5 2.5t-74.5 2.5q-41 0 -101 -6l-1 26q50 10 77.5 31.5t38.5 60.5
q15 51 45 201q-15 0 -44 -0.5t-42 -0.5zM155 63q14 -6 61.5 -12t66.5 -6q78 -1 138 28.5t95.5 80.5t53 112t17.5 129q0 97 -60.5 152.5t-187.5 55.5q-43 0 -73 -5q-15 -53 -56 -253q107 0 186 4l-7 -35q-58 2 -185 2q-41 -197 -49 -253z" />
    <glyph glyph-name="Ntilde" unicode="&#xd1;" horiz-adv-x="734" 
d="M206 536q-9 -44 -42 -220.5t-35 -195.5q-2 -14 -2 -35q0 -31 14.5 -42.5t58.5 -19.5l-8 -26q-38 5 -112 5q-67 0 -109 -5l-2 26q64 8 84 24.5t35 77.5q29 116 85 409q7 39 -8 53t-73 26l9 26q41 -5 78 -5q28 0 76 5q9 -48 35 -94q40 -71 90.5 -151t109.5 -168.5
t83 -126.5q48 218 79 430q2 15 2 25.5t-0.5 18.5t-6.5 14l-9 9t-15 7t-18.5 5.5t-24.5 5.5l8 25q34 -6 85 -6t112 6l2 -25q-45 -7 -63.5 -25.5t-29.5 -59.5q-35 -127 -81 -401q-8 -44 -8 -71q0 -22 4 -43q-35 -13 -58 -30q-33 55 -175.5 280.5t-169.5 271.5zM578 814
q16 10 30 27l19 -13q-35 -45 -69 -74q-20 -17 -43 -17q-16 0 -39 4q-20 4 -38 4q-26 0 -45 -16q-27 -24 -31 -29l-19 14q36 44 65 68q30 24 51 24q10 0 40 -5q22 -3 35 -3q22 0 44 16z" />
    <glyph glyph-name="Ograve" unicode="&#xd2;" horiz-adv-x="723" 
d="M312 -21q-127 0 -198.5 82.5t-71.5 194.5q2 103 41 179q44 88 133.5 153t202.5 65q121 0 193.5 -83t72.5 -205q0 -116 -59 -208q-46 -75 -129.5 -126.5t-184.5 -51.5zM123 272q0 -63 20.5 -112.5t54 -78t71 -42.5t76.5 -14q70 0 117.5 27t88.5 95q54 91 54 205
q0 68 -22.5 120.5t-58 80.5t-73 41.5t-73.5 13.5q-46 0 -84 -16t-82 -67q-40 -46 -64.5 -113t-24.5 -140zM352 818q75 -50 170 -102l-12 -19q-76 28 -194 51q26 31 36 70z" />
    <glyph glyph-name="Oacute" unicode="&#xd3;" horiz-adv-x="723" 
d="M312 -21q-127 0 -198.5 82.5t-71.5 194.5q2 103 41 179q44 88 133.5 153t202.5 65q121 0 193.5 -83t72.5 -205q0 -116 -59 -208q-46 -75 -129.5 -126.5t-184.5 -51.5zM123 272q0 -63 20.5 -112.5t54 -78t71 -42.5t76.5 -14q70 0 117.5 27t88.5 95q54 91 54 205
q0 68 -22.5 120.5t-58 80.5t-73 41.5t-73.5 13.5q-46 0 -84 -16t-82 -67q-40 -46 -64.5 -113t-24.5 -140zM516 809q2 -37 14 -71q-123 -19 -193 -38l-6 19q132 60 185 90z" />
    <glyph glyph-name="Ocircumflex" unicode="&#xd4;" horiz-adv-x="723" 
d="M312 -21q-127 0 -198.5 82.5t-71.5 194.5q2 103 41 179q44 88 133.5 153t202.5 65q121 0 193.5 -83t72.5 -205q0 -116 -59 -208q-46 -75 -129.5 -126.5t-184.5 -51.5zM123 272q0 -63 20.5 -112.5t54 -78t71 -42.5t76.5 -14q70 0 117.5 27t88.5 95q54 91 54 205
q0 68 -22.5 120.5t-58 80.5t-73 41.5t-73.5 13.5q-46 0 -84 -16t-82 -67q-40 -46 -64.5 -113t-24.5 -140zM530 700l-18 -17q-35 30 -86 60q-62 -27 -113 -60l-13 19q100 74 142 121q34 -60 88 -123z" />
    <glyph glyph-name="Otilde" unicode="&#xd5;" horiz-adv-x="723" 
d="M312 -21q-127 0 -198.5 82.5t-71.5 194.5q2 103 41 179q44 88 133.5 153t202.5 65q121 0 193.5 -83t72.5 -205q0 -116 -59 -208q-46 -75 -129.5 -126.5t-184.5 -51.5zM123 272q0 -63 20.5 -112.5t54 -78t71 -42.5t76.5 -14q70 0 117.5 27t88.5 95q54 91 54 205
q0 68 -22.5 120.5t-58 80.5t-73 41.5t-73.5 13.5q-46 0 -84 -16t-82 -67q-40 -46 -64.5 -113t-24.5 -140zM521 803q17 11 30 27l19 -13q-35 -45 -69 -74q-20 -17 -43 -17q-16 0 -39 4q-20 4 -38 4q-26 0 -45 -16q-27 -24 -31 -29l-19 14q36 44 65 68q30 24 51 24q10 0 40 -5
q22 -3 35 -3q22 0 44 16z" />
    <glyph glyph-name="Odieresis" unicode="&#xd6;" horiz-adv-x="723" 
d="M312 -21q-127 0 -198.5 82.5t-71.5 194.5q2 103 41 179q44 88 133.5 153t202.5 65q121 0 193.5 -83t72.5 -205q0 -116 -59 -208q-46 -75 -129.5 -126.5t-184.5 -51.5zM123 272q0 -63 20.5 -112.5t54 -78t71 -42.5t76.5 -14q70 0 117.5 27t88.5 95q54 91 54 205
q0 68 -22.5 120.5t-58 80.5t-73 41.5t-73.5 13.5q-46 0 -84 -16t-82 -67q-40 -46 -64.5 -113t-24.5 -140zM346 698q-20 -1 -29.5 11t-8.5 27q1 16 12.5 28.5t30.5 13.5t28.5 -10t8.5 -26q-1 -17 -12 -30t-30 -14zM497 698q-20 -1 -29 10.5t-9 27.5q1 16 12.5 28.5t31.5 13.5
q19 1 27.5 -10t8.5 -26q0 -17 -11 -30t-31 -14z" />
    <glyph glyph-name="multiply" unicode="&#xd7;" horiz-adv-x="442" 
d="M28 439l26 25l164 -165l167 166l25 -25l-166 -166l165 -166l-24 -25l-167 166l-165 -166l-26 25l167 166z" />
    <glyph glyph-name="Oslash" unicode="&#xd8;" horiz-adv-x="723" 
d="M312 -21q-109 0 -181 64q-56 -61 -63 -69l-25 21l66 71q-67 77 -67 190q2 103 41 179q44 88 133.5 153t202.5 65q103 0 174 -63q31 36 59 65l26 -22q-8 -8 -28.5 -31t-33.5 -36q69 -80 69 -201q0 -116 -59 -208q-46 -75 -129.5 -126.5t-184.5 -51.5zM563 509
q-20 -21 -166.5 -179t-215.5 -232q64 -73 164 -73q70 0 117.5 27t88.5 95q54 91 54 205q0 91 -42 157zM123 272q0 -88 39 -148l380 411q-66 73 -164 73q-46 0 -84 -16t-82 -67q-40 -46 -64.5 -113t-24.5 -140z" />
    <glyph glyph-name="Ugrave" unicode="&#xd9;" horiz-adv-x="703" 
d="M287 -25q-102 2 -152.5 52t-50.5 134q0 34 7 66q1 6 29.5 138.5t34.5 164.5q3 20 3 32q0 26 -14.5 36t-54.5 17l9 24q64 -8 115 -8q59 0 120 8l1 -24q-57 -11 -74 -23.5t-28 -59.5q-28 -104 -60 -292q-6 -36 -6 -67q0 -153 153 -153q104 0 152 46t70 129q51 194 68 336
q5 41 -7 58.5t-65 25.5l8 24q61 -8 107 -8q41 0 102 8l1 -24q-51 -7 -68 -23t-30 -63q-5 -19 -78 -343q-49 -220 -292 -211zM389 809q75 -50 170 -102l-12 -19q-76 28 -194 51q26 31 36 70z" />
    <glyph glyph-name="Uacute" unicode="&#xda;" horiz-adv-x="703" 
d="M287 -25q-102 2 -152.5 52t-50.5 134q0 34 7 66q1 6 29.5 138.5t34.5 164.5q3 20 3 32q0 26 -14.5 36t-54.5 17l9 24q64 -8 115 -8q59 0 120 8l1 -24q-57 -11 -74 -23.5t-28 -59.5q-28 -104 -60 -292q-6 -36 -6 -67q0 -153 153 -153q104 0 152 46t70 129q51 194 68 336
q5 41 -7 58.5t-65 25.5l8 24q61 -8 107 -8q41 0 102 8l1 -24q-51 -7 -68 -23t-30 -63q-5 -19 -78 -343q-49 -220 -292 -211zM552 804q2 -37 14 -71q-123 -19 -193 -38l-6 19q132 60 185 90z" />
    <glyph glyph-name="Ucircumflex" unicode="&#xdb;" horiz-adv-x="703" 
d="M287 -25q-102 2 -152.5 52t-50.5 134q0 34 7 66q1 6 29.5 138.5t34.5 164.5q3 20 3 32q0 26 -14.5 36t-54.5 17l9 24q64 -8 115 -8q59 0 120 8l1 -24q-57 -11 -74 -23.5t-28 -59.5q-28 -104 -60 -292q-6 -36 -6 -67q0 -153 153 -153q104 0 152 46t70 129q51 194 68 336
q5 41 -7 58.5t-65 25.5l8 24q61 -8 107 -8q41 0 102 8l1 -24q-51 -7 -68 -23t-30 -63q-5 -19 -78 -343q-49 -220 -292 -211zM570 710l-18 -17q-35 30 -86 60q-62 -27 -113 -60l-13 19q100 74 142 121q34 -60 88 -123z" />
    <glyph glyph-name="Udieresis" unicode="&#xdc;" horiz-adv-x="703" 
d="M287 -25q-102 2 -152.5 52t-50.5 134q0 34 7 66q1 6 29.5 138.5t34.5 164.5q3 20 3 32q0 26 -14.5 36t-54.5 17l9 24q64 -8 115 -8q59 0 120 8l1 -24q-57 -11 -74 -23.5t-28 -59.5q-28 -104 -60 -292q-6 -36 -6 -67q0 -153 153 -153q104 0 152 46t70 129q51 194 68 336
q5 41 -7 58.5t-65 25.5l8 24q61 -8 107 -8q41 0 102 8l1 -24q-51 -7 -68 -23t-30 -63q-5 -19 -78 -343q-49 -220 -292 -211zM381 698q-20 -1 -29.5 11t-8.5 27q1 16 12.5 28.5t30.5 13.5t28.5 -10t8.5 -26q-1 -17 -12 -30t-30 -14zM532 698q-20 -1 -29 10.5t-9 27.5
q1 16 12.5 28.5t31.5 13.5q19 1 27.5 -10t8.5 -26q0 -17 -11 -30t-31 -14z" />
    <glyph glyph-name="Yacute" unicode="&#xdd;" horiz-adv-x="606" 
d="M573 549q-145 -203 -242 -377q-16 -30 -53.5 -103t-58 -110t-53.5 -79.5t-64 -59.5q-4 58 -40 98q79 34 128 91t88 145q-53 223 -113 393q-12 34 -24.5 45.5t-55.5 21.5l8 25q54 -8 99 -8q40 0 116 8l3 -25q-40 -7 -54.5 -21.5t-8.5 -43.5q22 -114 83 -305q33 57 94 153
t88 141q10 16 10 31q0 32 -63 45l8 25q50 -5 101 -5q56 0 91 5l2 -25q-30 -4 -47.5 -18t-41.5 -47zM497 804q2 -37 14 -71q-123 -19 -193 -38l-6 19q132 60 185 90z" />
    <glyph glyph-name="Thorn" unicode="&#xde;" horiz-adv-x="587" 
d="M98 639h1q77 -8 130 -8q54 0 134 8l-2 -25q-56 -13 -80.5 -32.5t-35.5 -70.5q58 4 89 4q100 0 159.5 -34.5t59.5 -110.5q0 -11 -4 -39q-12 -79 -75.5 -133t-159.5 -54q-17 0 -52.5 9.5t-48.5 17.5q16 12 32 36q40 -31 76 -31q59 0 97 43.5t48 100.5q3 15 3 30
q0 55 -40 91.5t-124 36.5q-40 0 -70 -9q-31 -132 -70 -354q-7 -41 9 -59t71 -33l-8 -26q-72 6 -132 6q-61 0 -135 -6l-1 26q61 12 85 32t34 61q39 153 82 405q6 40 -10.5 60.5t-71.5 32.5z" />
    <glyph glyph-name="germandbls" unicode="&#xdf;" horiz-adv-x="485" 
d="M-117 -260q-75 22 -89 22q23 33 39 86q51 -29 94 -33q21 -3 37 3t26.5 15.5t20 29t14 34t11.5 39.5q39 147 84 459q-20 1 -46.5 -1t-30.5 -4l-3 14q67 20 85 29q4 13 11.5 56.5t12.5 63.5q4 18 9.5 32t8 22t12.5 19.5t12 14.5t17.5 17.5t19.5 18.5q58 56 117 56
q48 0 83 -45t36 -101q2 -58 -69 -113q-51 -39 -70 -62q-11 -15 -11 -28q0 -18 18 -50q13 -23 77 -107q40 -56 30 -99q-19 -72 -78 -120q-19 -15 -47 -15q-14 0 -48 6q-11 2 -36 8t-38 8q24 33 35 78q41 -25 86 -35q52 -13 70 16q24 37 -35 118q-7 9 -24.5 32t-32.5 43.5
t-24 35.5q-20 32 -20 56q0 26 23 49q7 7 94 77q43 38 35 91q-6 45 -29 72.5t-50 30.5q-66 10 -93 -71q-23 -68 -38 -175q-50 -326 -81 -455q-18 -83 -95 -172q-71 -83 -130 -66z" />
    <glyph glyph-name="agrave" unicode="&#xe0;" horiz-adv-x="458" 
d="M280 -13q-21 0 -31.5 13t-9.5 33q-100 -44 -128 -44q-43 0 -67 36t-18 95q9 99 59 188q42 76 130 115q55 24 130 19q10 -1 21.5 -2.5t26.5 -4.5t25 -4q-17 -22 -26 -53q-51 -177 -67 -278q-10 -53 48 -53q21 0 44 3l4 -21q-99 -42 -141 -42zM100 136q-11 -88 55 -88
q39 0 90 15q14 62 43.5 177t37.5 150q-16 8 -51 14q-84 7 -132 -105q-36 -83 -43 -163zM336 500l-23 -10q-40 84 -98 158q46 11 76 35q7 -76 45 -183z" />
    <glyph glyph-name="aacute" unicode="&#xe1;" horiz-adv-x="458" 
d="M280 -13q-21 0 -31.5 13t-9.5 33q-100 -44 -128 -44q-43 0 -67 36t-18 95q9 99 59 188q42 76 130 115q55 24 130 19q10 -1 21.5 -2.5t26.5 -4.5t25 -4q-17 -22 -26 -53q-51 -177 -67 -278q-10 -53 48 -53q21 0 44 3l4 -21q-99 -42 -141 -42zM100 136q-11 -88 55 -88
q39 0 90 15q14 62 43.5 177t37.5 150q-16 8 -51 14q-84 7 -132 -105q-36 -83 -43 -163zM301 496l-21 16q67 90 108 176q33 -33 60 -46q-83 -71 -147 -146z" />
    <glyph glyph-name="acircumflex" unicode="&#xe2;" horiz-adv-x="458" 
d="M280 -13q-21 0 -31.5 13t-9.5 33q-100 -44 -128 -44q-43 0 -67 36t-18 95q9 99 59 188q42 76 130 115q55 24 130 19q10 -1 21.5 -2.5t26.5 -4.5t25 -4q-17 -22 -26 -53q-51 -177 -67 -278q-10 -53 48 -53q21 0 44 3l4 -21q-99 -42 -141 -42zM100 136q-11 -88 55 -88
q39 0 90 15q14 62 43.5 177t37.5 150q-16 8 -51 14q-84 7 -132 -105q-36 -83 -43 -163zM405 505l-18 -17q-35 30 -86 60q-62 -27 -113 -60l-13 19q100 74 142 121q34 -60 88 -123z" />
    <glyph glyph-name="atilde" unicode="&#xe3;" horiz-adv-x="458" 
d="M280 -13q-21 0 -31.5 13t-9.5 33q-100 -44 -128 -44q-43 0 -67 36t-18 95q9 99 59 188q42 76 130 115q55 24 130 19q10 -1 21.5 -2.5t26.5 -4.5t25 -4q-17 -22 -26 -53q-51 -177 -67 -278q-10 -53 48 -53q21 0 44 3l4 -21q-99 -42 -141 -42zM100 136q-11 -88 55 -88
q39 0 90 15q14 62 43.5 177t37.5 150q-16 8 -51 14q-84 7 -132 -105q-36 -83 -43 -163zM414 609q16 11 30 27l19 -13q-35 -45 -69 -74q-20 -17 -43 -17q-16 0 -39 4q-20 4 -38 4q-26 0 -45 -16q-27 -24 -31 -29l-19 14q36 44 65 68q30 24 51 24q10 0 40 -5q22 -3 35 -3
q22 0 44 16z" />
    <glyph glyph-name="adieresis" unicode="&#xe4;" horiz-adv-x="458" 
d="M280 -13q-21 0 -31.5 13t-9.5 33q-100 -44 -128 -44q-43 0 -67 36t-18 95q9 99 59 188q42 76 130 115q55 24 130 19q10 -1 21.5 -2.5t26.5 -4.5t25 -4q-17 -22 -26 -53q-51 -177 -67 -278q-10 -53 48 -53q21 0 44 3l4 -21q-99 -42 -141 -42zM100 136q-11 -88 55 -88
q39 0 90 15q14 62 43.5 177t37.5 150q-16 8 -51 14q-84 7 -132 -105q-36 -83 -43 -163zM221 525q-20 -1 -29.5 11t-8.5 27q1 16 12.5 28.5t30.5 13.5t28.5 -10t8.5 -26q-1 -17 -12 -30t-30 -14zM372 525q-20 -1 -29 10.5t-9 27.5q1 16 12.5 28.5t31.5 13.5q19 1 27.5 -10
t8.5 -26q0 -17 -11 -30t-31 -14z" />
    <glyph glyph-name="aring" unicode="&#xe5;" horiz-adv-x="458" 
d="M280 -13q-21 0 -31.5 13t-9.5 33q-100 -44 -128 -44q-43 0 -67 36t-18 95q9 99 59 188q42 76 130 115q55 24 130 19q10 -1 21.5 -2.5t26.5 -4.5t25 -4q-17 -22 -26 -53q-51 -177 -67 -278q-10 -53 48 -53q21 0 44 3l4 -21q-99 -42 -141 -42zM100 136q-11 -88 55 -88
q39 0 90 15q14 62 43.5 177t37.5 150q-16 8 -51 14q-84 7 -132 -105q-36 -83 -43 -163zM233 561q5 33 30 53.5t55 20.5q33 0 50.5 -21t12.5 -53q-5 -36 -29.5 -56t-56.5 -20q-31 0 -49.5 20.5t-12.5 55.5zM265 559q-2 -21 7 -33.5t27 -12.5q21 0 34 12.5t16 34.5
q3 20 -6.5 34t-29.5 14q-41 0 -48 -49z" />
    <glyph glyph-name="ae" unicode="&#xe6;" horiz-adv-x="595" 
d="M358 -14q-78 0 -106 53q-117 -50 -142 -50q-43 0 -66.5 35t-17.5 94q10 102 58 185q42 74 129 112q47 22 78 22q22 0 49 -9q11 -3 24.5 -7.5t20.5 -5.5q45 25 85 25q43 0 68.5 -22.5t25.5 -57.5q0 -50 -48.5 -75t-109.5 -25q-31 0 -67 9q-26 -85 -27 -147q-1 -85 81 -85
q54 0 124 16l6 -24q-127 -43 -165 -43zM154 47q35 0 89 16q-7 25 -4 51q11 116 64 215q11 21 32 45q-30 20 -63 24q-84 9 -131 -103q-35 -82 -42 -160q-11 -88 55 -88zM348 298q18 -9 62 -9q84 0 86 62q1 24 -14 37t-36 13q-36 0 -58.5 -24t-39.5 -79z" />
    <glyph glyph-name="ccedilla" unicode="&#xe7;" horiz-adv-x="367" 
d="M70 -247l-15 18q21 18 37 40q17 25 10 53q-8 32 -20 55q30 33 50 60q-51 1 -76 42.5t-25 94.5q0 88 42 169q31 62 86 110q51 48 98 47q14 0 49.5 -4t50.5 -5q-24 -56 -29 -87q-56 27 -98 31q-36 6 -57 -10.5t-35 -48.5q-38 -95 -38 -178q0 -37 16 -71.5t51 -34.5
q49 0 127 22l8 -21q-74 -38 -136 -51l-26 -38q4 -9 16 -47q13 -46 -25 -89q-30 -34 -61 -57z" />
    <glyph glyph-name="egrave" unicode="&#xe8;" horiz-adv-x="374" 
d="M150 -14q-61 0 -90 41t-29 99q0 110 52 198q29 50 75.5 85.5t94.5 35.5q43 0 67.5 -23t24.5 -58q0 -51 -48.5 -76t-110.5 -25q-39 0 -66 9q-15 -70 -15 -137q1 -45 22 -71.5t58 -26.5q55 0 125 17l5 -24q-127 -44 -165 -44zM126 301q19 -8 65 -8q83 0 86 62q2 23 -14 35
t-38 12q-36 0 -60.5 -22t-38.5 -79zM288 500l-23 -10q-40 84 -98 158q46 11 76 35q7 -76 45 -183z" />
    <glyph glyph-name="eacute" unicode="&#xe9;" horiz-adv-x="374" 
d="M150 -14q-61 0 -90 41t-29 99q0 110 52 198q29 50 75.5 85.5t94.5 35.5q43 0 67.5 -23t24.5 -58q0 -51 -48.5 -76t-110.5 -25q-39 0 -66 9q-15 -70 -15 -137q1 -45 22 -71.5t58 -26.5q55 0 125 17l5 -24q-127 -44 -165 -44zM126 301q19 -8 65 -8q83 0 86 62q2 23 -14 35
t-38 12q-36 0 -60.5 -22t-38.5 -79zM238 496l-21 16q67 90 108 176q33 -33 60 -46q-83 -71 -147 -146z" />
    <glyph glyph-name="ecircumflex" unicode="&#xea;" horiz-adv-x="374" 
d="M150 -14q-61 0 -90 41t-29 99q0 110 52 198q29 50 75.5 85.5t94.5 35.5q43 0 67.5 -23t24.5 -58q0 -51 -48.5 -76t-110.5 -25q-39 0 -66 9q-15 -70 -15 -137q1 -45 22 -71.5t58 -26.5q55 0 125 17l5 -24q-127 -44 -165 -44zM126 301q19 -8 65 -8q83 0 86 62q2 23 -14 35
t-38 12q-36 0 -60.5 -22t-38.5 -79zM365 505l-18 -17q-35 30 -86 60q-62 -27 -113 -60l-13 19q100 74 142 121q34 -60 88 -123z" />
    <glyph glyph-name="edieresis" unicode="&#xeb;" horiz-adv-x="374" 
d="M150 -14q-61 0 -90 41t-29 99q0 110 52 198q29 50 75.5 85.5t94.5 35.5q43 0 67.5 -23t24.5 -58q0 -51 -48.5 -76t-110.5 -25q-39 0 -66 9q-15 -70 -15 -137q1 -45 22 -71.5t58 -26.5q55 0 125 17l5 -24q-127 -44 -165 -44zM126 301q19 -8 65 -8q83 0 86 62q2 23 -14 35
t-38 12q-36 0 -60.5 -22t-38.5 -79zM172 525q-20 -1 -29.5 11t-8.5 27q1 16 12.5 28.5t30.5 13.5t28.5 -10t8.5 -26q-1 -17 -12 -30t-30 -14zM323 525q-20 -1 -29 10.5t-9 27.5q1 16 12.5 28.5t31.5 13.5q19 1 27.5 -10t8.5 -26q0 -17 -11 -30t-31 -14z" />
    <glyph glyph-name="igrave" unicode="&#xec;" horiz-adv-x="251" 
d="M203 445q-18 -49 -27 -81q-45 -175 -61 -261q-6 -35 5.5 -49t42.5 -15q15 -1 47 3q5 -23 5 -24q-102 -33 -140 -33q-23 0 -32 23t-5 53q4 23 31.5 135.5t33.5 146.5q7 44 -41 44q-14 0 -30 -3l-6 27q96 11 177 34zM197 500l-23 -10q-40 84 -98 158q46 11 76 35
q7 -76 45 -183z" />
    <glyph glyph-name="iacute" unicode="&#xed;" horiz-adv-x="251" 
d="M173 497l-21 15q56 83 95 175q34 -32 62 -43q-77 -71 -136 -147zM203 445q-18 -49 -27 -81q-45 -175 -61 -261q-6 -35 5.5 -49t42.5 -15q15 -1 47 3q5 -23 5 -24q-102 -33 -140 -33q-23 0 -32 23t-5 53q4 23 31.5 135.5t33.5 146.5q7 44 -41 44q-14 0 -30 -3l-6 27
q96 11 177 34z" />
    <glyph glyph-name="icircumflex" unicode="&#xee;" horiz-adv-x="251" 
d="M203 445q-18 -49 -27 -81q-45 -175 -61 -261q-6 -35 5.5 -49t42.5 -15q15 -1 47 3q5 -23 5 -24q-102 -33 -140 -33q-23 0 -32 23t-5 53q4 23 31.5 135.5t33.5 146.5q7 44 -41 44q-14 0 -30 -3l-6 27q96 11 177 34zM275 505l-18 -17q-35 30 -86 60q-62 -27 -113 -60
l-13 19q100 74 142 121q34 -60 88 -123z" />
    <glyph glyph-name="idieresis" unicode="&#xef;" horiz-adv-x="251" 
d="M203 445q-18 -49 -27 -81q-45 -175 -61 -261q-6 -35 5.5 -49t42.5 -15q15 -1 47 3q5 -23 5 -24q-102 -33 -140 -33q-23 0 -32 23t-5 53q4 23 31.5 135.5t33.5 146.5q7 44 -41 44q-14 0 -30 -3l-6 27q96 11 177 34zM99 525q-20 -1 -29.5 11t-8.5 27q1 16 12.5 28.5
t30.5 13.5t28.5 -10t8.5 -26q-1 -17 -12 -30t-30 -14zM250 525q-20 -1 -29 10.5t-9 27.5q1 16 12.5 28.5t31.5 13.5q19 1 27.5 -10t8.5 -26q0 -17 -11 -30t-31 -14z" />
    <glyph glyph-name="eth" unicode="&#xf0;" horiz-adv-x="433" 
d="M392 715l18 -23q-34 -21 -91 -62q80 -89 77 -228q-2 -126 -42 -247q-28 -81 -95 -124q-34 -23 -55.5 -31t-56.5 -8q-117 0 -117 146q0 28 2 43q7 69 32.5 121t85.5 96q48 37 118 37q28 0 66 -5q-2 92 -67 162q-4 -3 -123 -91l-18 24q58 38 122 85q-36 31 -77 45
q-26 9 -45 10q29 37 37 73q10 -8 42 -24q60 -32 96 -67zM101 146q1 -45 20.5 -73t58.5 -29q44 -2 66.5 20t48.5 96q13 40 24.5 113.5t13.5 121.5q-42 10 -77 10q-99 3 -135 -112q-21 -69 -20 -147z" />
    <glyph glyph-name="ntilde" unicode="&#xf1;" horiz-adv-x="506" 
d="M209 450l-13 -45q129 40 168 40q30 0 49 -28t12 -66q-6 -33 -27.5 -120.5t-26.5 -111.5q-5 -25 -5 -38q0 -20 9.5 -28.5t32.5 -9.5q5 0 12.5 0.5t17.5 1.5t17 1l6 -25q-111 -32 -135 -32q-46 0 -46 38q0 12 9 50q54 215 60 242q6 34 -7 50t-54 16q-48 0 -97 -10
q-15 -54 -43.5 -191.5t-27.5 -177.5q-52 0 -99 -18q58 142 93 356q4 24 -8 34.5t-41 10.5q-20 0 -32 -2l-3 27q74 7 179 36zM409 609q17 11 30 27l19 -13q-35 -45 -69 -74q-20 -17 -43 -17q-16 0 -39 4q-20 4 -38 4q-26 0 -45 -16q-27 -24 -31 -29l-19 14q36 44 65 68
q30 24 51 24q10 0 40 -5q22 -3 35 -3q22 0 44 16z" />
    <glyph glyph-name="ograve" unicode="&#xf2;" horiz-adv-x="445" 
d="M164 -16q-71 0 -102.5 42t-31.5 111q0 22 3 46q17 149 116 222q54 40 98 40q144 0 144 -151q0 -20 -1 -30q-15 -171 -120 -242q-57 -38 -106 -38zM101 142q2 -51 25.5 -80.5t64.5 -29.5q49 0 68.5 22.5t38.5 83.5q19 59 21 147q1 49 -24.5 80.5t-75.5 31.5q-36 0 -58 -22
t-39 -79q-23 -72 -21 -154zM298 500l-23 -10q-40 84 -98 158q46 11 76 35q7 -76 45 -183z" />
    <glyph glyph-name="oacute" unicode="&#xf3;" horiz-adv-x="445" 
d="M164 -16q-71 0 -102.5 42t-31.5 111q0 22 3 46q17 149 116 222q54 40 98 40q144 0 144 -151q0 -20 -1 -30q-15 -171 -120 -242q-57 -38 -106 -38zM101 142q2 -51 25.5 -80.5t64.5 -29.5q49 0 68.5 22.5t38.5 83.5q19 59 21 147q1 49 -24.5 80.5t-75.5 31.5q-36 0 -58 -22
t-39 -79q-23 -72 -21 -154zM255 496l-21 16q67 90 108 176q33 -33 60 -46q-83 -71 -147 -146z" />
    <glyph glyph-name="ocircumflex" unicode="&#xf4;" horiz-adv-x="445" 
d="M164 -16q-71 0 -102.5 42t-31.5 111q0 22 3 46q17 149 116 222q54 40 98 40q144 0 144 -151q0 -20 -1 -30q-15 -171 -120 -242q-57 -38 -106 -38zM101 142q2 -51 25.5 -80.5t64.5 -29.5q49 0 68.5 22.5t38.5 83.5q19 59 21 147q1 49 -24.5 80.5t-75.5 31.5q-36 0 -58 -22
t-39 -79q-23 -72 -21 -154zM378 505l-18 -17q-35 30 -86 60q-62 -27 -113 -60l-13 19q100 74 142 121q34 -60 88 -123z" />
    <glyph glyph-name="otilde" unicode="&#xf5;" horiz-adv-x="445" 
d="M164 -16q-71 0 -102.5 42t-31.5 111q0 22 3 46q17 149 116 222q54 40 98 40q144 0 144 -151q0 -20 -1 -30q-15 -171 -120 -242q-57 -38 -106 -38zM101 142q2 -51 25.5 -80.5t64.5 -29.5q49 0 68.5 22.5t38.5 83.5q19 59 21 147q1 49 -24.5 80.5t-75.5 31.5q-36 0 -58 -22
t-39 -79q-23 -72 -21 -154zM368 609q16 11 30 27l19 -13q-35 -45 -69 -74q-20 -17 -43 -17q-16 0 -39 4q-20 4 -38 4q-26 0 -45 -16q-27 -24 -31 -29l-19 14q36 44 65 68q30 24 51 24q10 0 40 -5q22 -3 35 -3q22 0 44 16z" />
    <glyph glyph-name="odieresis" unicode="&#xf6;" horiz-adv-x="445" 
d="M164 -16q-71 0 -102.5 42t-31.5 111q0 22 3 46q17 149 116 222q54 40 98 40q144 0 144 -151q0 -20 -1 -30q-15 -171 -120 -242q-57 -38 -106 -38zM101 142q2 -51 25.5 -80.5t64.5 -29.5q49 0 68.5 22.5t38.5 83.5q19 59 21 147q1 49 -24.5 80.5t-75.5 31.5q-36 0 -58 -22
t-39 -79q-23 -72 -21 -154zM192 525q-20 -1 -29.5 11t-8.5 27q1 16 12.5 28.5t30.5 13.5t28.5 -10t8.5 -26q-1 -17 -12 -30t-30 -14zM343 525q-20 -1 -29 10.5t-9 27.5q1 16 12.5 28.5t31.5 13.5q19 1 27.5 -10t8.5 -26q0 -17 -11 -30t-31 -14z" />
    <glyph glyph-name="divide" unicode="&#xf7;" horiz-adv-x="469" 
d="M226 103q-23 0 -34.5 13.5t-11.5 30.5q0 20 14 34t36 14q23 0 34 -12t11 -30q0 -20 -13 -35t-36 -15zM226 401q-23 0 -34.5 13.5t-11.5 30.5q0 20 14 34.5t36 14.5q23 0 34 -12.5t11 -30.5q0 -20 -13 -35t-36 -15zM20 270v35h415v-35h-415z" />
    <glyph glyph-name="oslash" unicode="&#xf8;" horiz-adv-x="445" 
d="M164 -16q-61 0 -95 34l-42 -52l-23 19q2 3 20 24t27 32q-21 38 -21 96q0 22 3 46q17 149 116 222q54 40 98 40q69 0 106 -37l39 49l23 -18l-45 -54q21 -36 21 -91q0 -20 -1 -30q-15 -171 -120 -242q-57 -38 -106 -38zM101 142q0 -15 4 -35q38 45 200 243q-27 47 -86 47
q-36 0 -58 -22t-39 -79q-23 -72 -21 -154zM315 319l-199 -242q23 -45 75 -45q49 0 68.5 22.5t38.5 83.5q19 59 21 147q0 19 -4 34z" />
    <glyph glyph-name="ugrave" unicode="&#xf9;" horiz-adv-x="506" 
d="M314 -16q-23 0 -33 13t-5 36q-109 -46 -156 -46q-73 0 -73 68q0 32 17 97q37 154 41 182q6 34 -8.5 47t-65.5 9l-3 27q111 9 184 31q-15 -29 -31 -85q-44 -161 -53 -223q-3 -24 -3 -41q0 -29 11 -39t37 -11q50 0 108 16q4 20 23.5 101.5t28.5 122.5q17 88 16 142
q61 1 106 17q-34 -71 -58 -165q-26 -101 -36 -167q-3 -27 -3 -34q0 -42 29 -42q21 0 65 6l7 -22q-112 -40 -145 -40zM320 500l-23 -10q-40 84 -98 158q46 11 76 35q7 -76 45 -183z" />
    <glyph glyph-name="uacute" unicode="&#xfa;" horiz-adv-x="506" 
d="M314 -16q-23 0 -33 13t-5 36q-109 -46 -156 -46q-73 0 -73 68q0 32 17 97q37 154 41 182q6 34 -8.5 47t-65.5 9l-3 27q111 9 184 31q-15 -29 -31 -85q-44 -161 -53 -223q-3 -24 -3 -41q0 -29 11 -39t37 -11q50 0 108 16q4 20 23.5 101.5t28.5 122.5q17 88 16 142
q61 1 106 17q-34 -71 -58 -165q-26 -101 -36 -167q-3 -27 -3 -34q0 -42 29 -42q21 0 65 6l7 -22q-112 -40 -145 -40zM294 496l-21 16q67 90 108 176q33 -33 60 -46q-83 -71 -147 -146z" />
    <glyph glyph-name="ucircumflex" unicode="&#xfb;" horiz-adv-x="506" 
d="M314 -16q-23 0 -33 13t-5 36q-109 -46 -156 -46q-73 0 -73 68q0 32 17 97q37 154 41 182q6 34 -8.5 47t-65.5 9l-3 27q111 9 184 31q-15 -29 -31 -85q-44 -161 -53 -223q-3 -24 -3 -41q0 -29 11 -39t37 -11q50 0 108 16q4 20 23.5 101.5t28.5 122.5q17 88 16 142
q61 1 106 17q-34 -71 -58 -165q-26 -101 -36 -167q-3 -27 -3 -34q0 -42 29 -42q21 0 65 6l7 -22q-112 -40 -145 -40zM407 505l-18 -17q-35 30 -86 60q-62 -27 -113 -60l-13 19q100 74 142 121q34 -60 88 -123z" />
    <glyph glyph-name="udieresis" unicode="&#xfc;" horiz-adv-x="506" 
d="M314 -16q-23 0 -33 13t-5 36q-109 -46 -156 -46q-73 0 -73 68q0 32 17 97q37 154 41 182q6 34 -8.5 47t-65.5 9l-3 27q111 9 184 31q-15 -29 -31 -85q-44 -161 -53 -223q-3 -24 -3 -41q0 -29 11 -39t37 -11q50 0 108 16q4 20 23.5 101.5t28.5 122.5q17 88 16 142
q61 1 106 17q-34 -71 -58 -165q-26 -101 -36 -167q-3 -27 -3 -34q0 -42 29 -42q21 0 65 6l7 -22q-112 -40 -145 -40zM227 525q-20 -1 -29.5 11t-8.5 27q1 16 12.5 28.5t30.5 13.5t28.5 -10t8.5 -26q-1 -17 -12 -30t-30 -14zM378 525q-20 -1 -29 10.5t-9 27.5q1 16 12.5 28.5
t31.5 13.5q19 1 27.5 -10t8.5 -26q0 -17 -11 -30t-31 -14z" />
    <glyph glyph-name="yacute" unicode="&#xfd;" horiz-adv-x="474" 
d="M-103 -256q32 62 36 102q55 -9 108 -9q32 1 56.5 31.5t57.5 96.5q4 162 -40 358q-8 35 -21.5 49t-35.5 14q-13 0 -41 -7l-5 26q83 19 141 49q15 -19 28 -84q34 -203 37 -297q22 41 67.5 108.5t51.5 80.5q24 48 24 93q0 24 -8 51q41 17 79 55q9 -31 9 -60q0 -41 -21 -83.5
t-70 -104.5q-115 -146 -215 -366q-36 -82 -110 -89q-97 -8 -128 -14zM292 496l-21 16q67 90 108 176q33 -33 60 -46q-83 -71 -147 -146z" />
    <glyph glyph-name="thorn" unicode="&#xfe;" horiz-adv-x="465" 
d="M-102 -233l-1 27q22 6 31.5 9t25.5 11.5t25 20.5t19 33t18 50q97 399 149 689q8 42 -7.5 55.5t-62.5 8.5l-3 27q125 15 179 40q-14 -42 -76 -315q112 25 138 25q46 0 68.5 -30.5t22.5 -79.5q0 -9 -2 -31q-11 -102 -60 -176q-44 -69 -106 -106q-51 -32 -91 -32
q-19 0 -60 9q-1 -7 -11 -54.5t-14 -73.5q-4 -35 11.5 -53t72.5 -26l-11 -28q-87 7 -132 7q-46 0 -123 -7zM119 57q42 -21 70 -21q45 0 81 49q31 40 52 99.5t26 112.5q5 54 -17 76t-73 21q-32 -1 -72 -7q-30 -137 -67 -330z" />
    <glyph glyph-name="ydieresis" unicode="&#xff;" horiz-adv-x="474" 
d="M-103 -256q32 62 36 102q55 -9 108 -9q32 1 56.5 31.5t57.5 96.5q4 162 -40 358q-8 35 -21.5 49t-35.5 14q-13 0 -41 -7l-5 26q83 19 141 49q15 -19 28 -84q34 -203 37 -297q22 41 67.5 108.5t51.5 80.5q24 48 24 93q0 24 -8 51q41 17 79 55q9 -31 9 -60q0 -41 -21 -83.5
t-70 -104.5q-115 -146 -215 -366q-36 -82 -110 -89q-97 -8 -128 -14zM220 525q-20 -1 -29.5 11t-8.5 27q1 16 12.5 28.5t30.5 13.5t28.5 -10t8.5 -26q-1 -17 -12 -30t-30 -14zM371 525q-20 -1 -29 10.5t-9 27.5q1 16 12.5 28.5t31.5 13.5q19 1 27.5 -10t8.5 -26
q0 -17 -11 -30t-31 -14z" />
    <glyph glyph-name="Amacron" unicode="&#x100;" horiz-adv-x="709" 
d="M391 -3l3 26q24 5 34 7t26 7.5t22 12t10.5 17t3.5 24.5q-3 37 -16 104q-60 -3 -131 -3q-72 0 -132 3q-32 -50 -51 -99q-7 -21 -7 -29q0 -15 15 -24.5t53 -19.5l-8 -26q-51 6 -115 6t-117 -6q0 25 -1 24q49 12 68.5 23.5t43.5 42.5q120 161 266 426q35 61 31 112
q49 10 83 27q0 -26 9 -83q37 -232 97 -478q8 -30 23 -43t57 -25l-8 -26q-50 7 -118 7q-66 0 -141 -7zM231 228q47 -4 107 -4q57 0 130 5q-34 185 -61 305q-29 -48 -88.5 -153.5t-87.5 -152.5zM541 719q-43 1 -125 1q-60 0 -92 -1q14 21 16 49q37 -2 108 -2t109 2
q-9 -17 -16 -49z" />
    <glyph glyph-name="amacron" unicode="&#x101;" horiz-adv-x="458" 
d="M280 -13q-21 0 -31.5 13t-9.5 33q-100 -44 -128 -44q-43 0 -67 36t-18 95q9 99 59 188q42 76 130 115q55 24 130 19q10 -1 21.5 -2.5t26.5 -4.5t25 -4q-17 -22 -26 -53q-51 -177 -67 -278q-10 -53 48 -53q21 0 44 3l4 -21q-99 -42 -141 -42zM100 136q-11 -88 55 -88
q39 0 90 15q14 62 43.5 177t37.5 150q-16 8 -51 14q-84 7 -132 -105q-36 -83 -43 -163zM405 564q-43 1 -125 1q-60 0 -92 -1q14 21 16 49q37 -2 108 -2t109 2q-9 -17 -16 -49z" />
    <glyph glyph-name="Abreve" unicode="&#x102;" horiz-adv-x="709" 
d="M391 -3l3 26q24 5 34 7t26 7.5t22 12t10.5 17t3.5 24.5q-3 37 -16 104q-60 -3 -131 -3q-72 0 -132 3q-32 -50 -51 -99q-7 -21 -7 -29q0 -15 15 -24.5t53 -19.5l-8 -26q-51 6 -115 6t-117 -6q0 25 -1 24q49 12 68.5 23.5t43.5 42.5q120 161 266 426q35 61 31 112
q49 10 83 27q0 -26 9 -83q37 -232 97 -478q8 -30 23 -43t57 -25l-8 -26q-50 7 -118 7q-66 0 -141 -7zM231 228q47 -4 107 -4q57 0 130 5q-34 185 -61 305q-29 -48 -88.5 -153.5t-87.5 -152.5zM541 814l22 -8q-29 -61 -56 -86.5t-75 -24.5q-46 0 -67 29t-24 85l22 6
q9 -35 27.5 -47.5t52.5 -13.5q36 0 57 13t41 47z" />
    <glyph glyph-name="abreve" unicode="&#x103;" horiz-adv-x="458" 
d="M280 -13q-21 0 -31.5 13t-9.5 33q-100 -44 -128 -44q-43 0 -67 36t-18 95q9 99 59 188q42 76 130 115q55 24 130 19q10 -1 21.5 -2.5t26.5 -4.5t25 -4q-17 -22 -26 -53q-51 -177 -67 -278q-10 -53 48 -53q21 0 44 3l4 -21q-99 -42 -141 -42zM100 136q-11 -88 55 -88
q39 0 90 15q14 62 43.5 177t37.5 150q-16 8 -51 14q-84 7 -132 -105q-36 -83 -43 -163zM406 623l22 -8q-29 -61 -56 -86.5t-75 -24.5q-46 0 -67 29t-24 85l22 6q9 -35 27.5 -47.5t52.5 -13.5q36 0 57 13t41 47z" />
    <glyph glyph-name="Aogonek" unicode="&#x104;" horiz-adv-x="709" 
d="M518 -135l8 -18q-19 -11 -67 -34q-31 -13 -50 -13q-20 0 -35 12q-28 21 -25 58q2 21 9.5 34.5t27.5 32.5q8 10 92 81q4 24 4 39q0 6 -2 34q-3 37 -16 104q-60 -3 -131 -3q-72 0 -132 3q-32 -50 -51 -99q-7 -21 -7 -29q0 -15 15 -24.5t53 -19.5l-8 -26q-51 6 -115 6
t-117 -6q0 25 -1 24q49 12 68.5 23.5t43.5 42.5q120 161 266 426q35 61 31 112q49 10 83 27q0 -26 9 -83q37 -232 97 -478q8 -30 23 -43t57 -25l-8 -26q-50 6 -81 6q-29 0 -63 -3q-27 -24 -38.5 -35.5t-25.5 -30.5t-16 -35q-4 -21 7 -33t34 -12q33 0 61 11zM221 228
q47 -4 107 -4q57 0 130 5q-34 185 -61 305q-29 -48 -88.5 -153.5t-87.5 -152.5z" />
    <glyph glyph-name="aogonek" unicode="&#x105;" horiz-adv-x="458" 
d="M345 -135l9 -18q-29 -16 -68 -34q-31 -13 -50 -13q-20 0 -35 12q-27 20 -25 58q2 21 9.5 34.5t27.5 32.5q17 19 60 50q-38 6 -38 45q-101 -43 -125 -43q-43 0 -66.5 35t-17.5 94q10 102 58 185q43 76 129 112q53 25 127 20q11 -1 35 -5.5t37 -5.5q-16 -19 -27 -52
q-49 -174 -65 -274q-8 -52 47 -52q21 0 44 3l4 -21q-88 -31 -130 -66q-38 -33 -42 -63q-4 -21 7.5 -33t34.5 -12q32 0 60 11zM99 135q-11 -88 55 -88q26 0 87 14q13 60 42.5 173.5t37.5 149.5q-18 8 -51 13q-82 9 -129 -102q-35 -82 -42 -160z" />
    <glyph glyph-name="Cacute" unicode="&#x106;" horiz-adv-x="623" 
d="M37 249q0 134 84.5 245t216.5 141q40 10 85 10q39 0 89 -8q51 -7 67 -1q7 -81 27 -143l-22 -11q-10 24 -14 32q-25 44 -65 68q-61 35 -130 27q-114 -16 -183.5 -123t-69.5 -232q0 -61 20 -108.5t52 -74t65.5 -40t65.5 -14.5q59 -2 104 16t98 65l19 -13q-26 -36 -54 -81
q-84 -19 -182 -20q-118 0 -196 72t-77 193zM521 809q2 -37 14 -71q-123 -19 -193 -38l-6 19q132 60 185 90z" />
    <glyph glyph-name="cacute" unicode="&#x107;" horiz-adv-x="367" 
d="M31 116q0 88 42 169q31 62 86 110q51 48 98 47q14 0 49.5 -4t50.5 -5q-24 -56 -29 -87q-56 27 -98 31q-36 6 -57 -10.5t-35 -48.5q-38 -95 -38 -178q0 -37 16 -71.5t51 -34.5q49 0 127 22l8 -21q-110 -56 -169 -56q-51 0 -76.5 41.5t-25.5 95.5zM255 496l-21 16
q67 90 108 176q33 -33 60 -46q-83 -71 -147 -146z" />
    <glyph glyph-name="Ccircumflex" unicode="&#x108;" horiz-adv-x="623" 
d="M37 249q0 134 84.5 245t216.5 141q40 10 85 10q39 0 89 -8q51 -7 67 -1q7 -81 27 -143l-22 -11q-10 24 -14 32q-25 44 -65 68q-61 35 -130 27q-114 -16 -183.5 -123t-69.5 -232q0 -61 20 -108.5t52 -74t65.5 -40t65.5 -14.5q59 -2 104 16t98 65l19 -13q-26 -36 -54 -81
q-84 -19 -182 -20q-118 0 -196 72t-77 193zM540 700l-18 -17q-35 30 -86 60q-62 -27 -113 -60l-13 19q100 74 142 121q34 -60 88 -123z" />
    <glyph glyph-name="ccircumflex" unicode="&#x109;" horiz-adv-x="367" 
d="M31 116q0 88 42 169q31 62 86 110q51 48 98 47q14 0 49.5 -4t50.5 -5q-24 -56 -29 -87q-56 27 -98 31q-36 6 -57 -10.5t-35 -48.5q-38 -95 -38 -178q0 -37 16 -71.5t51 -34.5q49 0 127 22l8 -21q-110 -56 -169 -56q-51 0 -76.5 41.5t-25.5 95.5zM379 505l-18 -17
q-35 30 -86 60q-62 -27 -113 -60l-13 19q100 74 142 121q34 -60 88 -123z" />
    <glyph glyph-name="Cdotaccent" unicode="&#x10a;" horiz-adv-x="623" 
d="M37 249q0 134 84.5 245t216.5 141q40 10 85 10q39 0 89 -8q51 -7 67 -1q7 -81 27 -143l-22 -11q-10 24 -14 32q-25 44 -65 68q-61 35 -130 27q-114 -16 -183.5 -123t-69.5 -232q0 -61 20 -108.5t52 -74t65.5 -40t65.5 -14.5q59 -2 104 16t98 65l19 -13q-26 -36 -54 -81
q-84 -19 -182 -20q-118 0 -196 72t-77 193zM442 710q-24 -1 -35 12.5t-10 31.5q1 19 14.5 33.5t35.5 15.5q23 1 34 -11.5t10 -30.5q-1 -19 -14.5 -34.5t-34.5 -16.5z" />
    <glyph glyph-name="cdotaccent" unicode="&#x10b;" horiz-adv-x="367" 
d="M31 116q0 88 42 169q31 62 86 110q51 48 98 47q14 0 49.5 -4t50.5 -5q-24 -56 -29 -87q-56 27 -98 31q-36 6 -57 -10.5t-35 -48.5q-38 -95 -38 -178q0 -37 16 -71.5t51 -34.5q49 0 127 22l8 -21q-110 -56 -169 -56q-51 0 -76.5 41.5t-25.5 95.5zM284 557q-24 -1 -35 12.5
t-10 31.5q1 19 14.5 33.5t35.5 15.5q23 1 34 -11.5t10 -30.5q-1 -19 -14.5 -34.5t-34.5 -16.5z" />
    <glyph glyph-name="Ccaron" unicode="&#x10c;" horiz-adv-x="623" 
d="M37 249q0 134 84.5 245t216.5 141q40 10 85 10q39 0 89 -8q51 -7 67 -1q7 -81 27 -143l-22 -11q-10 24 -14 32q-25 44 -65 68q-61 35 -130 27q-114 -16 -183.5 -123t-69.5 -232q0 -61 20 -108.5t52 -74t65.5 -40t65.5 -14.5q59 -2 104 16t98 65l19 -13q-26 -36 -54 -81
q-84 -19 -182 -20q-118 0 -196 72t-77 193zM344 817l18 16q44 -35 85 -59q56 23 114 59l13 -19q-96 -71 -142 -121q-29 53 -88 124z" />
    <glyph glyph-name="ccaron" unicode="&#x10d;" horiz-adv-x="367" 
d="M31 116q0 88 42 169q31 62 86 110q51 48 98 47q14 0 49.5 -4t50.5 -5q-24 -56 -29 -87q-56 27 -98 31q-36 6 -57 -10.5t-35 -48.5q-38 -95 -38 -178q0 -37 16 -71.5t51 -34.5q49 0 127 22l8 -21q-110 -56 -169 -56q-51 0 -76.5 41.5t-25.5 95.5zM177 622l18 16
q44 -35 85 -59q56 23 114 59l13 -19q-96 -71 -142 -121q-29 53 -88 124z" />
    <glyph glyph-name="Dcaron" unicode="&#x10e;" horiz-adv-x="701" 
d="M-28 -3l-1 26q65 9 83.5 21t30.5 52q13 46 44 205.5t43 237.5q6 36 -10 49.5t-68 25.5l9 25q34 -5 116 -5q37 0 86 2.5t94 2.5q131 0 201.5 -63.5t72.5 -167.5q0 -143 -63 -230q-129 -180 -390 -180q-18 0 -72.5 2.5t-74.5 2.5q-41 0 -101 -6zM155 63q14 -6 61.5 -12
t66.5 -6q78 -1 138 28.5t95.5 80.5t53 112t17.5 129q0 97 -60.5 152.5t-187.5 55.5q-43 0 -73 -5q-14 -49 -58.5 -264t-52.5 -271zM323 817l18 16q44 -35 85 -59q56 23 114 59l13 -19q-96 -71 -142 -121q-29 53 -88 124z" />
    <glyph glyph-name="dcaron" unicode="&#x10f;" horiz-adv-x="458" 
d="M518 692q40 -1 94 15q-42 -115 -141 -224l-19 13q33 54 46 97.5t20 98.5zM445 620q-95 -323 -128 -522q-8 -52 48 -52q22 0 43 3l4 -21q-101 -41 -139 -41q-20 0 -30.5 13t-9.5 32q-101 -43 -126 -43q-43 0 -67.5 35.5t-19.5 93.5q11 108 58 191q16 29 50.5 62t80.5 52
t90 19q9 0 35 -2q27 107 35 155q7 34 -2 46.5t-35 12.5q-7 0 -33 -2l-4 26q140 19 180 29q-14 -30 -30 -87zM94 135q-10 -88 57 -88q26 0 87 14q14 62 43.5 177.5t37.5 149.5q-24 10 -54 12q-45 4 -75.5 -19.5t-54.5 -79.5q-32 -71 -41 -166z" />
    <glyph glyph-name="Dcroat" unicode="&#x110;" horiz-adv-x="701" 
d="M46 315l8 31q13 0 41 -0.5t42 -0.5q17 82 33 179q6 43 -12 61t-64 29l9 25q34 -5 116 -5q37 0 86 2.5t94 2.5q131 0 201.5 -63.5t72.5 -167.5q0 -143 -63 -230q-129 -180 -390 -180q-18 0 -72.5 2.5t-74.5 2.5q-41 0 -101 -6l-1 26q50 10 77.5 31.5t38.5 60.5
q15 51 45 201q-15 0 -44 -0.5t-42 -0.5zM155 63q14 -6 61.5 -12t66.5 -6q78 -1 138 28.5t95.5 80.5t53 112t17.5 129q0 97 -60.5 152.5t-187.5 55.5q-43 0 -73 -5q-15 -53 -56 -253q107 0 186 4l-7 -35q-58 2 -185 2q-41 -197 -49 -253z" />
    <glyph glyph-name="dcroat" unicode="&#x111;" horiz-adv-x="458" 
d="M445 620q-3 -8 -7.5 -24t-6.5 -23q32 0 78 2q-8 -23 -9 -30q-11 0 -36.5 0.5t-40.5 0.5q-78 -280 -106 -448q-8 -52 48 -52q22 0 43 3l4 -21q-101 -41 -139 -41q-20 0 -30.5 13t-9.5 32q-101 -43 -126 -43q-43 0 -67.5 35.5t-19.5 93.5q11 108 58 191q16 29 50.5 62
t80.5 52t90 19q9 0 35 -2l25 106h-13q-78 0 -110 -1q9 17 9 30q68 -2 119 -2l5 22q7 34 -2 46.5t-35 12.5q-7 0 -33 -2l-4 26q140 19 180 29q-14 -30 -30 -87zM94 135q-10 -88 57 -88q26 0 87 14q14 62 43.5 177.5t37.5 149.5q-24 10 -54 12q-45 4 -75.5 -19.5t-54.5 -79.5
q-32 -71 -41 -166z" />
    <glyph glyph-name="Emacron" unicode="&#x112;" horiz-adv-x="565" 
d="M458 -6q-175 8 -361 8h-44q-34 0 -79 -5l-4 26q71 14 86.5 23.5t27.5 48.5t45 195.5t46 239.5q5 36 -12 52.5t-76 31.5l8 25q46 -6 144 -6q215 0 283 13q1 -31 9.5 -78t19.5 -72l-28 -9q-16 46 -42.5 71.5t-49.5 31.5t-59 7q-6 0 -21.5 0.5t-25.5 0.5q-35 0 -64 -3
q-12 -33 -54 -252q117 -2 235 37q-28 -40 -37 -99q-87 30 -203 31q-7 -27 -24.5 -119.5t-20.5 -142.5q72 -18 144 -18q70 0 111 26.5t90 96.5l27 -10q-42 -69 -71 -151zM482 721q-43 1 -125 1q-60 0 -92 -1q14 21 16 49q37 -2 108 -2t109 2q-9 -17 -16 -49z" />
    <glyph glyph-name="emacron" unicode="&#x113;" horiz-adv-x="374" 
d="M150 -14q-61 0 -90 41t-29 99q0 110 52 198q29 50 75.5 85.5t94.5 35.5q43 0 67.5 -23t24.5 -58q0 -51 -48.5 -76t-110.5 -25q-39 0 -66 9q-15 -70 -15 -137q1 -45 22 -71.5t58 -26.5q55 0 125 17l5 -24q-127 -44 -165 -44zM126 301q19 -8 65 -8q83 0 86 62q2 23 -14 35
t-38 12q-36 0 -60.5 -22t-38.5 -79zM358 564q-43 1 -125 1q-60 0 -92 -1q14 21 16 49q37 -2 108 -2t109 2q-9 -17 -16 -49z" />
    <glyph glyph-name="Ebreve" unicode="&#x114;" horiz-adv-x="565" 
d="M458 -6q-175 8 -361 8h-44q-34 0 -79 -5l-4 26q71 14 86.5 23.5t27.5 48.5t45 195.5t46 239.5q5 36 -12 52.5t-76 31.5l8 25q46 -6 144 -6q215 0 283 13q1 -31 9.5 -78t19.5 -72l-28 -9q-16 46 -42.5 71.5t-49.5 31.5t-59 7q-6 0 -21.5 0.5t-25.5 0.5q-35 0 -64 -3
q-12 -33 -54 -252q117 -2 235 37q-28 -40 -37 -99q-87 30 -203 31q-7 -27 -24.5 -119.5t-20.5 -142.5q72 -18 144 -18q70 0 111 26.5t90 96.5l27 -10q-42 -69 -71 -151zM474 814l22 -8q-29 -61 -56 -86.5t-75 -24.5q-46 0 -67 29t-24 85l22 6q9 -35 27.5 -47.5t52.5 -13.5
q36 0 57 13t41 47z" />
    <glyph glyph-name="ebreve" unicode="&#x115;" horiz-adv-x="374" 
d="M150 -14q-61 0 -90 41t-29 99q0 110 52 198q29 50 75.5 85.5t94.5 35.5q43 0 67.5 -23t24.5 -58q0 -51 -48.5 -76t-110.5 -25q-39 0 -66 9q-15 -70 -15 -137q1 -45 22 -71.5t58 -26.5q55 0 125 17l5 -24q-127 -44 -165 -44zM126 301q19 -8 65 -8q83 0 86 62q2 23 -14 35
t-38 12q-36 0 -60.5 -22t-38.5 -79zM356 623l22 -8q-29 -61 -56 -86.5t-75 -24.5q-46 0 -67 29t-24 85l22 6q9 -35 27.5 -47.5t52.5 -13.5q36 0 57 13t41 47z" />
    <glyph glyph-name="Edotaccent" unicode="&#x116;" horiz-adv-x="565" 
d="M458 -6q-175 8 -361 8h-44q-34 0 -79 -5l-4 26q71 14 86.5 23.5t27.5 48.5t45 195.5t46 239.5q5 36 -12 52.5t-76 31.5l8 25q46 -6 144 -6q215 0 283 13q1 -31 9.5 -78t19.5 -72l-28 -9q-16 46 -42.5 71.5t-49.5 31.5t-59 7q-6 0 -21.5 0.5t-25.5 0.5q-35 0 -64 -3
q-12 -33 -54 -252q117 -2 235 37q-28 -40 -37 -99q-87 30 -203 31q-7 -27 -24.5 -119.5t-20.5 -142.5q72 -18 144 -18q70 0 111 26.5t90 96.5l27 -10q-42 -69 -71 -151zM380 705q-24 -1 -35 12.5t-10 31.5q1 19 14.5 33.5t35.5 15.5q23 1 34 -11.5t10 -30.5
q-1 -19 -14.5 -34.5t-34.5 -16.5z" />
    <glyph glyph-name="edotaccent" unicode="&#x117;" horiz-adv-x="374" 
d="M150 -14q-61 0 -90 41t-29 99q0 110 52 198q29 50 75.5 85.5t94.5 35.5q43 0 67.5 -23t24.5 -58q0 -51 -48.5 -76t-110.5 -25q-39 0 -66 9q-15 -70 -15 -137q1 -45 22 -71.5t58 -26.5q55 0 125 17l5 -24q-127 -44 -165 -44zM126 301q19 -8 65 -8q83 0 86 62q2 23 -14 35
t-38 12q-36 0 -60.5 -22t-38.5 -79zM267 557q-24 -1 -35 12.5t-10 31.5q1 19 14.5 33.5t35.5 15.5q23 1 34 -11.5t10 -30.5q-1 -19 -14.5 -34.5t-34.5 -16.5z" />
    <glyph glyph-name="Eogonek" unicode="&#x118;" horiz-adv-x="565" 
d="M404 -135l8 -18q-19 -11 -67 -34q-31 -13 -50 -13q-20 0 -35 12q-28 21 -25 58q2 21 9.5 34.5t27.5 32.5q9 11 69 62q-90 3 -244 3h-44q-34 0 -79 -5l-4 26q71 14 86.5 23.5t27.5 48.5t45 195.5t46 239.5q5 36 -12 52.5t-76 31.5l8 25q46 -6 144 -6q215 0 283 13
q1 -31 9.5 -78t19.5 -72l-28 -9q-16 46 -42.5 71.5t-49.5 31.5t-59 7q-6 0 -21.5 0.5t-25.5 0.5q-35 0 -64 -3q-12 -33 -54 -252q117 -2 235 37q-28 -40 -37 -99q-87 30 -203 31q-7 -27 -24.5 -119.5t-20.5 -142.5q72 -18 144 -18q70 0 111 26.5t90 96.5l27 -10
q-42 -69 -71 -151l-78 4q-25 -23 -37.5 -35t-25.5 -30.5t-15 -33.5q-4 -21 7 -33t34 -12q33 0 61 11z" />
    <glyph glyph-name="eogonek" unicode="&#x119;" horiz-adv-x="374" 
d="M241 -143l9 -18q-33 -18 -68 -34q-31 -13 -51 -13t-35 12q-28 23 -23 59q1 20 8.5 32t27.5 35q24 26 72 60q-16 -4 -33 -4q-60 0 -88.5 40.5t-28.5 98.5q0 108 51 195q29 49 75 84.5t93 35.5q43 0 68 -22.5t25 -57.5q0 -50 -48.5 -75t-109.5 -25q-30 0 -66 9
q-15 -72 -14 -135q0 -45 21 -71t58 -26q53 0 123 16l6 -24q-67 -22 -119 -64q-49 -40 -56 -73q-6 -47 42 -47q32 0 61 12zM125 298q18 -9 64 -9q83 0 86 62q1 23 -14.5 35t-37.5 12q-36 0 -60 -22t-38 -78z" />
    <glyph glyph-name="Ecaron" unicode="&#x11a;" horiz-adv-x="565" 
d="M458 -6q-175 8 -361 8h-44q-34 0 -79 -5l-4 26q71 14 86.5 23.5t27.5 48.5t45 195.5t46 239.5q5 36 -12 52.5t-76 31.5l8 25q46 -6 144 -6q215 0 283 13q1 -31 9.5 -78t19.5 -72l-28 -9q-16 46 -42.5 71.5t-49.5 31.5t-59 7q-6 0 -21.5 0.5t-25.5 0.5q-35 0 -64 -3
q-12 -33 -54 -252q117 -2 235 37q-28 -40 -37 -99q-87 30 -203 31q-7 -27 -24.5 -119.5t-20.5 -142.5q72 -18 144 -18q70 0 111 26.5t90 96.5l27 -10q-42 -69 -71 -151zM268 817l18 16q44 -35 85 -59q56 23 114 59l13 -19q-96 -71 -142 -121q-29 53 -88 124z" />
    <glyph glyph-name="ecaron" unicode="&#x11b;" horiz-adv-x="374" 
d="M150 -14q-61 0 -90 41t-29 99q0 110 52 198q29 50 75.5 85.5t94.5 35.5q43 0 67.5 -23t24.5 -58q0 -51 -48.5 -76t-110.5 -25q-39 0 -66 9q-15 -70 -15 -137q1 -45 22 -71.5t58 -26.5q55 0 125 17l5 -24q-127 -44 -165 -44zM126 301q19 -8 65 -8q83 0 86 62q2 23 -14 35
t-38 12q-36 0 -60.5 -22t-38.5 -79zM155 622l18 16q44 -35 85 -59q56 23 114 59l13 -19q-96 -71 -142 -121q-29 53 -88 124z" />
    <glyph glyph-name="Gcircumflex" unicode="&#x11c;" horiz-adv-x="697" 
d="M38 252q0 133 81.5 243t211.5 140q40 10 85 10q39 0 89 -8q51 -7 67 -1q5 -73 27 -143l-23 -11q-5 18 -13 32q-29 46 -66 68q-60 35 -129 27q-111 -15 -179.5 -120t-68.5 -228q0 -104 55 -163.5t140 -61.5q83 -2 166 23q21 78 29 130q7 40 -9 60.5t-70 32.5l10 25
q64 -9 119 -9q45 0 103 7l-2 -26q-31 -11 -45.5 -27t-24.5 -54q-25 -87 -28 -151q-198 -63 -277 -63q-98 0 -173 70.5t-75 197.5zM540 700l-18 -17q-35 30 -86 60q-62 -27 -113 -60l-13 19q100 74 142 121q34 -60 88 -123z" />
    <glyph glyph-name="gcircumflex" unicode="&#x11d;" horiz-adv-x="431" 
d="M138 -249q-32 0 -111 11t-104 13q33 42 47 90q39 -18 94 -33t91 -15q45 0 69 11t45 37q17 21 17 42q0 22 -16.5 37.5t-37.5 20.5q-19 5 -76 8.5t-76 6.5q-43 6 -43 50q0 20 11 36q27 36 55 66q-47 26 -47 94q0 69 41 126q29 39 74.5 66t92.5 27q19 0 59 -10q32 -8 50 -8
q17 0 58 9q-24 -31 -29 -53q-21 -2 -65 11q15 -25 15 -79q0 -73 -46 -130q-23 -27 -63.5 -48t-76.5 -21q-17 0 -40 5q-18 -36 -18 -48q0 -22 33 -26q17 -2 64 -4t72 -8q24 -5 45.5 -32.5t21.5 -60.5q0 -19 -7 -34q-21 -51 -66 -94q-60 -63 -133 -63zM130 270q-3 -19 -3 -34
q0 -77 62 -79q40 -1 61 30.5t29 97.5q7 58 -11.5 84t-46.5 26q-72 2 -91 -125zM380 505l-18 -17q-35 30 -86 60q-62 -27 -113 -60l-13 19q100 74 142 121q34 -60 88 -123z" />
    <glyph glyph-name="Gbreve" unicode="&#x11e;" horiz-adv-x="697" 
d="M38 252q0 133 81.5 243t211.5 140q40 10 85 10q39 0 89 -8q51 -7 67 -1q5 -73 27 -143l-23 -11q-5 18 -13 32q-29 46 -66 68q-60 35 -129 27q-111 -15 -179.5 -120t-68.5 -228q0 -104 55 -163.5t140 -61.5q83 -2 166 23q21 78 29 130q7 40 -9 60.5t-70 32.5l10 25
q64 -9 119 -9q45 0 103 7l-2 -26q-31 -11 -45.5 -27t-24.5 -54q-25 -87 -28 -151q-198 -63 -277 -63q-98 0 -173 70.5t-75 197.5zM535 828l22 -8q-29 -61 -56 -86.5t-75 -24.5q-46 0 -67 29t-24 85l22 6q9 -35 27.5 -47.5t52.5 -13.5q36 0 57 13t41 47z" />
    <glyph glyph-name="gbreve" unicode="&#x11f;" horiz-adv-x="431" 
d="M138 -249q-32 0 -111 11t-104 13q33 42 47 90q39 -18 94 -33t91 -15q45 0 69 11t45 37q17 21 17 42q0 22 -16.5 37.5t-37.5 20.5q-19 5 -76 8.5t-76 6.5q-43 6 -43 50q0 20 11 36q27 36 55 66q-47 26 -47 94q0 69 41 126q29 39 74.5 66t92.5 27q19 0 59 -10q32 -8 50 -8
q17 0 58 9q-24 -31 -29 -53q-21 -2 -65 11q15 -25 15 -79q0 -73 -46 -130q-23 -27 -63.5 -48t-76.5 -21q-17 0 -40 5q-18 -36 -18 -48q0 -22 33 -26q17 -2 64 -4t72 -8q24 -5 45.5 -32.5t21.5 -60.5q0 -19 -7 -34q-21 -51 -66 -94q-60 -63 -133 -63zM130 270q-3 -19 -3 -34
q0 -77 62 -79q40 -1 61 30.5t29 97.5q7 58 -11.5 84t-46.5 26q-72 2 -91 -125zM376 623l22 -8q-29 -61 -56 -86.5t-75 -24.5q-46 0 -67 29t-24 85l22 6q9 -35 27.5 -47.5t52.5 -13.5q36 0 57 13t41 47z" />
    <glyph glyph-name="Gdotaccent" unicode="&#x120;" horiz-adv-x="697" 
d="M38 252q0 133 81.5 243t211.5 140q40 10 85 10q39 0 89 -8q51 -7 67 -1q5 -73 27 -143l-23 -11q-5 18 -13 32q-29 46 -66 68q-60 35 -129 27q-111 -15 -179.5 -120t-68.5 -228q0 -104 55 -163.5t140 -61.5q83 -2 166 23q21 78 29 130q7 40 -9 60.5t-70 32.5l10 25
q64 -9 119 -9q45 0 103 7l-2 -26q-31 -11 -45.5 -27t-24.5 -54q-25 -87 -28 -151q-198 -63 -277 -63q-98 0 -173 70.5t-75 197.5zM442 710q-24 -1 -35 12.5t-10 31.5q1 19 14.5 33.5t35.5 15.5q23 1 34 -11.5t10 -30.5q-1 -19 -14.5 -34.5t-34.5 -16.5z" />
    <glyph glyph-name="gdotaccent" unicode="&#x121;" horiz-adv-x="431" 
d="M138 -249q-32 0 -111 11t-104 13q33 42 47 90q39 -18 94 -33t91 -15q45 0 69 11t45 37q17 21 17 42q0 22 -16.5 37.5t-37.5 20.5q-19 5 -76 8.5t-76 6.5q-43 6 -43 50q0 20 11 36q27 36 55 66q-47 26 -47 94q0 69 41 126q29 39 74.5 66t92.5 27q19 0 59 -10q32 -8 50 -8
q17 0 58 9q-24 -31 -29 -53q-21 -2 -65 11q15 -25 15 -79q0 -73 -46 -130q-23 -27 -63.5 -48t-76.5 -21q-17 0 -40 5q-18 -36 -18 -48q0 -22 33 -26q17 -2 64 -4t72 -8q24 -5 45.5 -32.5t21.5 -60.5q0 -19 -7 -34q-21 -51 -66 -94q-60 -63 -133 -63zM130 270q-3 -19 -3 -34
q0 -77 62 -79q40 -1 61 30.5t29 97.5q7 58 -11.5 84t-46.5 26q-72 2 -91 -125zM282 557q-24 -1 -35 12.5t-10 31.5q1 19 14.5 33.5t35.5 15.5q23 1 34 -11.5t10 -30.5q-1 -19 -14.5 -34.5t-34.5 -16.5z" />
    <glyph glyph-name="Gcommaaccent" unicode="&#x122;" horiz-adv-x="697" 
d="M208 -271l-17 21q38 33 49 50q15 23 15 41q0 26 -33 57q29 23 55 57q28 -25 39 -43q10 -16 10 -32q0 -28 -33 -69q-31 -38 -85 -82zM38 252q0 133 81.5 243t211.5 140q40 10 85 10q39 0 89 -8q51 -7 67 -1q5 -73 27 -143l-23 -11q-5 18 -13 32q-29 46 -66 68
q-60 35 -129 27q-111 -15 -179.5 -120t-68.5 -228q0 -104 55 -163.5t140 -61.5q83 -2 166 23q21 78 29 130q7 40 -9 60.5t-70 32.5l10 25q64 -9 119 -9q45 0 103 7l-2 -26q-31 -11 -45.5 -27t-24.5 -54q-25 -87 -28 -151q-198 -63 -277 -63q-98 0 -173 70.5t-75 197.5z" />
    <glyph glyph-name="gcommaaccent" unicode="&#x123;" horiz-adv-x="431" 
d="M341 718l17 -21q-39 -34 -49 -49q-15 -24 -15 -42q0 -24 33 -57q-28 -21 -55 -56q-28 23 -39 42q-10 16 -10 32q0 29 33 70q36 45 85 81zM138 -249q-32 0 -111 11t-104 13q33 42 47 90q39 -18 94 -33t91 -15q45 0 69 11t45 37q17 21 17 42q0 22 -16.5 37.5t-37.5 20.5
q-19 5 -76 8.5t-76 6.5q-43 6 -43 50q0 20 11 36q27 36 55 66q-47 26 -47 94q0 69 41 126q29 39 74.5 66t92.5 27q19 0 59 -10q32 -8 50 -8q17 0 58 9q-24 -31 -29 -53q-21 -2 -65 11q15 -25 15 -79q0 -73 -46 -130q-23 -27 -63.5 -48t-76.5 -21q-17 0 -40 5
q-18 -36 -18 -48q0 -22 33 -26q17 -2 64 -4t72 -8q24 -5 45.5 -32.5t21.5 -60.5q0 -19 -7 -34q-21 -51 -66 -94q-60 -63 -133 -63zM130 270q-3 -19 -3 -34q0 -77 62 -79q40 -1 61 30.5t29 97.5q7 58 -11.5 84t-46.5 26q-72 2 -91 -125z" />
    <glyph glyph-name="Hcircumflex" unicode="&#x124;" horiz-adv-x="757" 
d="M88 614l10 25q70 -7 135 -7q61 0 130 7l-2 -25q-61 -7 -80 -20.5t-28 -53.5q-22 -84 -40 -176q84 -3 186 -3q100 0 187 3q22 118 31 171q6 40 -8 54t-75 25l9 25q71 -7 135 -7q60 0 129 7l-1 -25q-61 -7 -79.5 -20.5t-29.5 -53.5q-45 -179 -90 -440q-7 -41 7 -54t76 -23
l-7 -26q-73 6 -134 6q-60 0 -134 -6v26q65 8 84 21t29 52q31 123 51 231q-114 2 -187 2t-187 -2q-12 -61 -43 -227q-7 -41 7 -54t76 -23l-8 -26q-72 6 -132 6q-61 0 -135 -6l-1 26q66 8 85 21t30 52q43 174 88 439q7 39 -7.5 53.5t-76.5 25.5zM587 710l-18 -17
q-35 30 -86 60q-62 -27 -113 -60l-13 19q100 74 142 121q34 -60 88 -123z" />
    <glyph glyph-name="hcircumflex" unicode="&#x125;" horiz-adv-x="500" 
d="M115 6q-60 0 -110 -18q42 111 79 288q46 220 57 302q4 34 -5 48.5t-35 14.5q-14 0 -32 -3l-4 27q84 14 176 44q-26 -82 -64 -300q131 36 170 36q35 0 54 -28t14 -65q-5 -31 -23.5 -118.5t-23.5 -114.5q-3 -18 -3 -30q0 -25 12.5 -35.5t42.5 -10.5q9 0 35 2l7 -26
q-104 -30 -132 -30q-61 0 -45 76q42 184 52 250q12 72 -64 72q-50 0 -101 -12q-13 -51 -36 -189.5t-21 -179.5zM324 748l-18 -17q-35 30 -86 60q-62 -27 -113 -60l-13 19q100 74 142 121q34 -60 88 -123z" />
    <glyph glyph-name="Hbar" unicode="&#x126;" horiz-adv-x="757" 
d="M98 639h1q77 -8 130 -8q54 0 134 8l-2 -25q-58 -13 -80.5 -32.5t-33.5 -60.5q-1 -6 -8 -31q61 -1 184 -1q124 0 185 1l6 31q6 39 -11 60t-71 33l9 25h1q77 -8 130 -8t133 8v-25q-59 -13 -81.5 -32.5t-32.5 -60.5q-6 -20 -8 -31q49 0 72 1l-7 -32q-11 0 -35.5 0.5
t-37.5 0.5q-31 -142 -66 -345q-7 -41 8.5 -59t70.5 -33l-7 -26q-73 6 -133 6q-62 0 -135 -6v26q61 12 85 32t34 61q23 90 47 211q-116 2 -187 2t-187 -2q-22 -112 -40 -212q-7 -41 9 -59t71 -33l-8 -26q-72 6 -132 6q-61 0 -135 -6l-1 26q61 12 85 32t35 61q37 147 71 344
q-13 0 -36.5 -0.5t-35.5 -0.5l7 32q23 -1 70 -1q1 12 5 31q7 39 -10 60t-72 33zM603 460q-31 0 -92.5 0.5t-92.5 0.5t-93 -0.5t-92 -0.5q-11 -42 -21 -96q85 -3 186 -3q100 0 187 3q3 12 18 96z" />
    <glyph glyph-name="hbar" unicode="&#x127;" horiz-adv-x="500" 
d="M115 6q-60 0 -110 -18q42 111 79 288q38 178 50 251q-57 0 -83 -1q5 12 5 29q54 -2 81 -2l4 25q4 34 -5 48.5t-35 14.5q-14 0 -32 -3l-4 27q84 14 176 44q-17 -52 -38 -156q30 0 86 2q-4 -12 -6 -29q-14 0 -42 0.5t-43 0.5q0 -1 -21 -118q131 36 170 36q35 0 54 -28
t14 -65q-5 -31 -23.5 -118.5t-23.5 -114.5q-3 -18 -3 -30q0 -25 12.5 -35.5t42.5 -10.5q9 0 35 2l7 -26q-104 -30 -132 -30q-61 0 -45 76q42 184 52 250q12 72 -64 72q-50 0 -101 -12q-13 -51 -36 -189.5t-21 -179.5z" />
    <glyph glyph-name="Itilde" unicode="&#x128;" horiz-adv-x="314" 
d="M88 614l10 25q70 -7 135 -7q61 0 130 7l-2 -25q-61 -7 -80 -20.5t-28 -53.5q-45 -171 -91 -440q-7 -41 7 -54t76 -23l-8 -26q-72 6 -132 6q-61 0 -135 -6l-1 26q66 8 85 21t30 52q43 174 88 439q7 39 -7.5 53.5t-76.5 25.5zM355 800q17 10 30 27l19 -13q-35 -45 -69 -74
q-20 -17 -43 -17q-16 0 -39 4q-20 4 -38 4q-26 0 -45 -16q-27 -24 -31 -29l-19 14q36 44 65 68q30 24 51 24q10 0 40 -5q22 -3 35 -3q22 0 44 16z" />
    <glyph glyph-name="itilde" unicode="&#x129;" horiz-adv-x="251" 
d="M275 609q17 11 30 27l19 -13q-35 -45 -69 -74q-20 -17 -43 -17q-16 0 -39 4q-20 4 -38 4q-26 0 -45 -16q-27 -24 -31 -29l-19 14q36 44 65 68q30 24 51 24q10 0 40 -5q22 -3 35 -3q22 0 44 16zM203 445q-18 -49 -27 -81q-45 -175 -61 -261q-6 -35 5.5 -49t42.5 -15
q15 -1 47 3q5 -23 5 -24q-102 -33 -140 -33q-23 0 -32 23t-5 53q4 23 31.5 135.5t33.5 146.5q7 44 -41 44q-14 0 -30 -3l-6 27q96 11 177 34z" />
    <glyph glyph-name="Imacron" unicode="&#x12a;" horiz-adv-x="314" 
d="M88 614l10 25q70 -7 135 -7q61 0 130 7l-2 -25q-61 -7 -80 -20.5t-28 -53.5q-45 -171 -91 -440q-7 -41 7 -54t76 -23l-8 -26q-72 6 -132 6q-61 0 -135 -6l-1 26q66 8 85 21t30 52q43 174 88 439q7 39 -7.5 53.5t-76.5 25.5zM350 719q-43 1 -125 1q-60 0 -92 -1
q14 21 16 49q37 -2 108 -2t109 2q-9 -17 -16 -49z" />
    <glyph glyph-name="imacron" unicode="&#x12b;" horiz-adv-x="251" 
d="M203 445q-18 -49 -27 -81q-45 -175 -61 -261q-6 -35 5.5 -49t42.5 -15q15 -1 47 3q5 -23 5 -24q-102 -33 -140 -33q-23 0 -32 23t-5 53q4 23 31.5 135.5t33.5 146.5q7 44 -41 44q-14 0 -30 -3l-6 27q96 11 177 34zM271 563q-43 1 -125 1q-60 0 -92 -1q14 21 16 49
q37 -2 108 -2t109 2q-9 -17 -16 -49z" />
    <glyph glyph-name="Ibreve" unicode="&#x12c;" horiz-adv-x="314" 
d="M88 614l10 25q70 -7 135 -7q61 0 130 7l-2 -25q-61 -7 -80 -20.5t-28 -53.5q-45 -171 -91 -440q-7 -41 7 -54t76 -23l-8 -26q-72 6 -132 6q-61 0 -135 -6l-1 26q66 8 85 21t30 52q43 174 88 439q7 39 -7.5 53.5t-76.5 25.5zM347 818l22 -8q-29 -61 -56 -86.5t-75 -24.5
q-46 0 -67 29t-24 85l22 6q9 -35 27.5 -47.5t52.5 -13.5q36 0 57 13t41 47z" />
    <glyph glyph-name="ibreve" unicode="&#x12d;" horiz-adv-x="251" 
d="M289 623l22 -8q-29 -61 -56 -86.5t-75 -24.5q-46 0 -67 29t-24 85l22 6q9 -35 27.5 -47.5t52.5 -13.5q36 0 57 13t41 47zM203 445q-18 -49 -27 -81q-45 -175 -61 -261q-6 -35 5.5 -49t42.5 -15q15 -1 47 3q5 -23 5 -24q-102 -33 -140 -33q-23 0 -32 23t-5 53
q4 23 31.5 135.5t33.5 146.5q7 44 -41 44q-14 0 -30 -3l-6 27q96 11 177 34z" />
    <glyph glyph-name="Iogonek" unicode="&#x12e;" horiz-adv-x="314" 
d="M162 -135l8 -18q-19 -11 -67 -34q-31 -13 -50 -13q-20 0 -35 12q-28 21 -25 58q2 21 9.5 34.5t27.5 32.5q11 12 74 66q-62 0 -134 -6l-1 26q66 8 85 21t30 52q43 174 88 439q7 39 -7.5 53.5t-76.5 25.5l10 25q70 -7 135 -7q61 0 130 7l-2 -25q-61 -7 -80 -20.5t-28 -53.5
q-45 -171 -91 -440q-7 -41 7 -54t76 -23l-8 -26q-34 3 -94 5q-79 -67 -83 -103q-4 -21 7 -33t34 -12q33 0 61 11z" />
    <glyph glyph-name="iogonek" unicode="&#x12f;" horiz-adv-x="251" 
d="M159 -141l8 -17q-20 -13 -67 -35q-28 -12 -51 -12q-20 0 -34 11q-28 21 -25 59q2 21 9 34t27 33q12 12 62 54q-31 -5 -42.5 17.5t-7.5 57.5q4 23 31.5 136.5t33.5 147.5q9 44 -42 44q-13 0 -29 -3l-6 27q98 13 177 34q-15 -41 -27 -81q-43 -169 -61 -263q-6 -35 5.5 -49
t42.5 -15q15 -1 47 3q5 -23 5 -24q-65 -21 -105 -54q-49 -42 -54 -70q-4 -22 7.5 -34t34.5 -12q28 0 61 11zM188 557q-24 -1 -34.5 13t-9.5 31q1 19 14.5 33.5t35.5 15.5q23 1 33.5 -11.5t9.5 -30.5q-1 -19 -14 -34.5t-35 -16.5z" />
    <glyph glyph-name="Idotaccent" unicode="&#x130;" horiz-adv-x="314" 
d="M88 614l10 25q70 -7 135 -7q61 0 130 7l-2 -25q-61 -7 -80 -20.5t-28 -53.5q-45 -171 -91 -440q-7 -41 7 -54t76 -23l-8 -26q-72 6 -132 6q-61 0 -135 -6l-1 26q66 8 85 21t30 52q43 174 88 439q7 39 -7.5 53.5t-76.5 25.5zM256 710q-24 -1 -35 12.5t-10 31.5
q1 19 14.5 33.5t35.5 15.5q23 1 34 -11.5t10 -30.5q-1 -19 -14.5 -34.5t-34.5 -16.5z" />
    <glyph glyph-name="dotlessi" unicode="&#x131;" horiz-adv-x="251" 
d="M203 445q-18 -49 -27 -81q-45 -175 -61 -261q-6 -35 5.5 -49t42.5 -15q15 -1 47 3q5 -23 5 -24q-102 -33 -140 -33q-23 0 -32 23t-5 53q4 23 31.5 135.5t33.5 146.5q7 44 -41 44q-14 0 -30 -3l-6 27q96 11 177 34z" />
    <glyph glyph-name="IJ" unicode="&#x132;" horiz-adv-x="627" 
d="M88 614l10 25q70 -7 135 -7q61 0 130 7l-2 -25q-61 -7 -80 -20.5t-28 -53.5q-45 -171 -91 -440q-7 -41 7 -54t76 -23l-8 -26q-72 6 -132 6q-61 0 -135 -6l-1 26q66 8 85 21t30 52q43 174 88 439q7 39 -7.5 53.5t-76.5 25.5zM420 174q41 206 65 368q6 39 -8 51.5t-75 20.5
l10 25h1q77 -8 130 -8q54 0 134 8l-2 -25q-63 -12 -80.5 -22.5t-26.5 -48.5q-32 -129 -79 -388q-28 -146 -141 -253q-26 -25 -37 -34.5t-33.5 -24t-46 -18.5t-52.5 0q-42 5 -95 6q21 38 35 93q48 -21 121 -21q53 0 78 16q32 21 61 97q21 50 41 158z" />
    <glyph glyph-name="ij" unicode="&#x133;" horiz-adv-x="503" 
d="M203 447q-15 -41 -27 -81q-43 -169 -61 -263q-6 -35 5.5 -49t42.5 -15q15 -1 47 3q5 -23 5 -24q-102 -33 -140 -33q-23 0 -32 23t-5 53q4 23 31.5 136.5t33.5 147.5q9 44 -42 44q-13 0 -29 -3l-6 27q98 13 177 34zM188 557q-24 -1 -34.5 13t-9.5 31q1 19 14.5 33.5
t35.5 15.5q23 1 33.5 -11.5t9.5 -30.5q-1 -19 -14 -34.5t-35 -16.5zM116 -248q-12 3 -34 11t-38 12q27 40 38 79q28 -20 70.5 -36t62.5 -7q36 17 78 195q44 199 64 339q7 43 -39 43q-13 0 -31 -3l-6 29q68 8 171 33q-31 -124 -98 -469q-13 -64 -31.5 -100t-74.5 -82
q-61 -49 -104 -49q-11 0 -28 5zM439 557q-24 -1 -34.5 13t-9.5 31q1 19 14.5 33.5t35.5 15.5q23 1 33.5 -11.5t9.5 -30.5q-1 -19 -14 -34.5t-35 -16.5z" />
    <glyph glyph-name="Jcircumflex" unicode="&#x134;" horiz-adv-x="314" 
d="M106 174q41 206 65 368q6 39 -8 51.5t-75 20.5l10 25h1q77 -8 130 -8q54 0 134 8l-2 -25q-63 -12 -80.5 -22.5t-26.5 -48.5q-32 -129 -79 -388q-28 -146 -141 -253q-26 -25 -37 -34.5t-33.5 -24t-46 -18.5t-52.5 0q-42 5 -95 6q21 38 35 93q48 -21 121 -21q53 0 78 16
q32 21 61 97q21 50 41 158zM355 700l-18 -17q-35 30 -86 60q-62 -27 -113 -60l-13 19q100 74 142 121q34 -60 88 -123z" />
    <glyph glyph-name="jcircumflex" unicode="&#x135;" horiz-adv-x="251" 
d="M282 505l-18 -17q-35 30 -86 60q-62 -27 -113 -60l-13 19q100 74 142 121q34 -60 88 -123zM-135 -248q-12 3 -34 11t-38 12q27 40 38 79q28 -20 70.5 -36t62.5 -7q36 17 78 195q44 199 64 339q7 43 -39 43q-13 0 -31 -3l-6 29q68 8 171 33q-31 -124 -98 -469
q-13 -64 -31.5 -100t-74.5 -82q-61 -49 -104 -49q-11 0 -28 5z" />
    <glyph glyph-name="Kcommaaccent" unicode="&#x136;" horiz-adv-x="671" 
d="M240 -257l-17 21q5 5 12.5 11.5t11.5 10t9 8.5t9 10t7 10q15 22 15 41q0 24 -33 57q29 23 55 57q29 -25 39 -44q10 -16 10 -32q0 -27 -33 -68q-35 -43 -85 -82zM211 355q129 108 214 166.5t214 131.5q-3 -39 11 -91q-138 -43 -206 -78t-158 -107q123 -201 172 -262
q35 -44 65.5 -65.5t75.5 -26.5l-6 -26q-35 6 -105 6q-76 0 -87 -6q-3 43 -23 80q-70 140 -167 278zM88 614l10 25q70 -7 135 -7q61 0 130 7l-2 -25q-61 -7 -80 -20.5t-28 -53.5q-45 -171 -91 -440q-7 -41 7 -54t76 -23l-8 -26q-72 6 -132 6q-61 0 -135 -6l-1 26q66 8 85 21
t30 52q43 174 88 439q7 39 -7.5 53.5t-76.5 25.5z" />
    <glyph glyph-name="kcommaaccent" unicode="&#x137;" horiz-adv-x="495" 
d="M126 -257l-17 21q39 34 49 50q15 22 15 41q0 24 -33 57q27 20 55 57q26 -22 40 -44q9 -15 9 -31q0 -28 -33 -69q-35 -43 -85 -82zM325 -8q-14 1 -22.5 3.5t-16 12.5t-7.5 28q0 22 6 42q13 74 13 82q1 47 -27.5 74.5t-74.5 25.5q-15 0 -27 -1l9 33q80 1 137 80
q33 44 64 63t84 17q-25 -37 -33 -84q-35 6 -57 -2.5t-41 -28.5q-46 -42 -76 -52q113 -12 112 -115q0 -32 -4 -59q-7 -37 1.5 -51t37.5 -14q9 0 45 4l6 -27q-6 -2 -28.5 -8.5t-38.5 -11t-34.5 -8.5t-27.5 -3zM119 7q-61 0 -110 -19q37 96 79 288q36 165 57 301q6 34 -2.5 48
t-34.5 14q-17 0 -36 -4l-3 29q81 12 179 44q-41 -156 -82.5 -368t-46.5 -333z" />
    <glyph glyph-name="kgreenlandic" unicode="&#x138;" horiz-adv-x="515" 
d="M345 -8q-14 1 -22.5 3.5t-16 12.5t-7.5 28q0 22 6 42q13 74 13 82q1 47 -27.5 74.5t-74.5 25.5q-15 0 -27 -1l9 33q80 1 137 80q33 44 64 63t84 17q-25 -37 -33 -84q-35 6 -57 -2.5t-41 -28.5q-46 -42 -76 -52q113 -12 112 -115q0 -32 -4 -59q-7 -37 1.5 -51t37.5 -14
q9 0 45 4l6 -27q-6 -2 -28.5 -8.5t-38.5 -11t-34.5 -8.5t-27.5 -3zM218 450q-22 -77 -54 -232.5t-35 -211.5q-53 0 -99 -18q58 142 93 356q4 24 -8 34.5t-41 10.5q-20 0 -32 -2l-3 27q74 7 179 36z" />
    <glyph glyph-name="Lacute" unicode="&#x139;" horiz-adv-x="549" 
d="M253 540q-62 -262 -98 -490q72 -18 146 -18q70 0 111 26.5t90 96.5l27 -10q-42 -69 -71 -151q-175 8 -361 8h-44q-34 0 -79 -5l-4 26q68 11 85.5 24.5t28.5 55.5q39 144 89 433q7 38 -9.5 53t-75.5 25l10 25h1q77 -8 130 -8q54 0 134 8l-2 -25q-61 -11 -79.5 -23
t-28.5 -51zM342 804q2 -37 14 -71q-123 -19 -193 -38l-6 19q132 60 185 90z" />
    <glyph glyph-name="lacute" unicode="&#x13a;" horiz-adv-x="253" 
d="M255 710q-25 -74 -68.5 -260t-74.5 -342q-15 -72 45 -72q23 0 48 5q3 -25 3 -26q-99 -30 -138 -30q-38 0 -38 50q0 23 16 90q11 48 34 139.5t40 167.5t29 147q7 43 -9 56t-64 8l-3 28q118 10 180 39zM304 845q2 -37 14 -71q-123 -19 -193 -38l-6 19q132 60 185 90z" />
    <glyph glyph-name="Lcommaaccent" unicode="&#x13b;" horiz-adv-x="549" 
d="M253 540q-62 -262 -98 -490q72 -18 146 -18q70 0 111 26.5t90 96.5l27 -10q-42 -69 -71 -151q-175 8 -361 8h-44q-34 0 -79 -5l-4 26q68 11 85.5 24.5t28.5 55.5q39 144 89 433q7 38 -9.5 53t-75.5 25l10 25h1q77 -8 130 -8q54 0 134 8l-2 -25q-61 -11 -79.5 -23
t-28.5 -51zM172 -257l-17 21q5 5 12.5 11.5t11.5 10t9 8.5t9 10t7 10q14 21 14 41q0 25 -33 57q29 22 56 57q29 -25 39 -44q9 -15 9 -31q0 -28 -33 -69q-33 -42 -84 -82z" />
    <glyph glyph-name="lcommaaccent" unicode="&#x13c;" horiz-adv-x="253" 
d="M-3 -271l-16 21q40 37 49 50q14 21 14 41q0 27 -32 57q29 23 54 57q29 -24 40 -43q9 -17 9 -31q0 -29 -33 -70q-34 -42 -85 -82zM255 710q-25 -74 -68.5 -260t-74.5 -342q-15 -72 45 -72q23 0 48 5q3 -25 3 -26q-99 -30 -138 -30q-38 0 -38 50q0 23 16 90q11 48 34 139.5
t40 167.5t29 147q7 43 -9 56t-64 8l-3 28q118 10 180 39z" />
    <glyph glyph-name="Lcaron" unicode="&#x13d;" horiz-adv-x="549" 
d="M470 632q44 0 93 15q-44 -118 -141 -223l-18 13q33 54 46 97t20 98zM253 540q-62 -262 -98 -490q72 -18 146 -18q70 0 111 26.5t90 96.5l27 -10q-42 -69 -71 -151q-175 8 -361 8h-44q-34 0 -79 -5l-4 26q68 11 85.5 24.5t28.5 55.5q39 144 89 433q7 38 -9.5 53t-75.5 25
l10 25h1q77 -8 130 -8q54 0 134 8l-2 -25q-61 -11 -79.5 -23t-28.5 -51z" />
    <glyph glyph-name="lcaron" unicode="&#x13e;" horiz-adv-x="253" 
d="M300 692q40 -1 94 15q-45 -118 -141 -224l-19 13q33 54 46 97.5t20 98.5zM255 710q-25 -74 -68.5 -260t-74.5 -342q-15 -72 45 -72q23 0 48 5q3 -25 3 -26q-99 -30 -138 -30q-38 0 -38 50q0 23 16 90q11 48 34 139.5t40 167.5t29 147q7 43 -9 56t-64 8l-3 28
q118 10 180 39z" />
    <glyph glyph-name="Ldot" unicode="&#x13f;" horiz-adv-x="549" 
d="M253 540q-62 -262 -98 -490q72 -18 146 -18q70 0 111 26.5t90 96.5l27 -10q-42 -69 -71 -151q-175 8 -361 8h-44q-34 0 -79 -5l-4 26q68 11 85.5 24.5t28.5 55.5q39 144 89 433q7 38 -9.5 53t-75.5 25l10 25h1q77 -8 130 -8q54 0 134 8l-2 -25q-61 -11 -79.5 -23
t-28.5 -51zM432 270q-25 -1 -36 13t-10 32q1 20 15 35t37 16q24 1 35 -12t10 -31q-1 -21 -14.5 -36.5t-36.5 -16.5z" />
    <glyph glyph-name="ldot" unicode="&#x140;" horiz-adv-x="293" 
d="M255 710q-25 -74 -68.5 -260t-74.5 -342q-15 -72 45 -72q23 0 48 5q3 -25 3 -26q-99 -30 -138 -30q-38 0 -38 50q0 23 16 90q11 48 34 139.5t40 167.5t29 147q7 43 -9 56t-64 8l-3 28q118 10 180 39zM257 255q-22 -1 -32.5 12t-9.5 29q1 18 13.5 31.5t34.5 14.5
q21 1 31 -11t9 -28q-1 -18 -13 -32.5t-33 -15.5z" />
    <glyph glyph-name="Lslash" unicode="&#x141;" horiz-adv-x="549" 
d="M247 521q-14 -57 -44 -201l211 85l-9 -34l-208 -84q-27 -140 -42 -237q72 -18 146 -18q70 0 111 26.5t90 96.5l27 -10q-42 -69 -71 -151q-175 8 -361 8h-44q-34 0 -79 -5l-4 26q64 17 85.5 35.5t31.5 58.5q14 57 31 138l-108 -43l8 34l107 43q34 166 44 232
q7 40 -9.5 60.5t-71.5 32.5l10 25h1q77 -8 130 -8q54 0 134 8l-2 -25q-58 -13 -80.5 -32.5t-33.5 -60.5z" />
    <glyph glyph-name="lslash" unicode="&#x142;" horiz-adv-x="253" 
d="M255 710q-33 -100 -83 -322l92 50l-11 -37l-89 -48q-26 -113 -52 -245q-15 -72 45 -72q23 0 48 5q3 -25 3 -26q-99 -30 -138 -30q-38 0 -38 50q0 23 16 90q12 54 46 190l-76 -41l11 37l74 40q28 115 48 228q7 43 -9 56t-64 8l-3 28q118 10 180 39z" />
    <glyph glyph-name="Nacute" unicode="&#x143;" horiz-adv-x="734" 
d="M206 536q-9 -44 -42 -220.5t-35 -195.5q-2 -14 -2 -35q0 -31 14.5 -42.5t58.5 -19.5l-8 -26q-38 5 -112 5q-67 0 -109 -5l-2 26q64 8 84 24.5t35 77.5q29 116 85 409q7 39 -8 53t-73 26l9 26q41 -5 78 -5q28 0 76 5q9 -48 35 -94q40 -71 90.5 -151t109.5 -168.5
t83 -126.5q48 218 79 430q2 15 2 25.5t-0.5 18.5t-6.5 14l-9 9t-15 7t-18.5 5.5t-24.5 5.5l8 25q34 -6 85 -6t112 6l2 -25q-45 -7 -63.5 -25.5t-29.5 -59.5q-35 -127 -81 -401q-8 -44 -8 -71q0 -22 4 -43q-35 -13 -58 -30q-33 55 -175.5 280.5t-169.5 271.5zM561 804
q2 -37 14 -71q-123 -19 -193 -38l-6 19q132 60 185 90z" />
    <glyph glyph-name="nacute" unicode="&#x144;" horiz-adv-x="506" 
d="M209 450l-13 -45q129 40 168 40q30 0 49 -28t12 -66q-6 -33 -27.5 -120.5t-26.5 -111.5q-5 -25 -5 -38q0 -20 9.5 -28.5t32.5 -9.5q5 0 12.5 0.5t17.5 1.5t17 1l6 -25q-111 -32 -135 -32q-46 0 -46 38q0 12 9 50q54 215 60 242q6 34 -7 50t-54 16q-48 0 -97 -10
q-15 -54 -43.5 -191.5t-27.5 -177.5q-52 0 -99 -18q58 142 93 356q4 24 -8 34.5t-41 10.5q-20 0 -32 -2l-3 27q74 7 179 36zM295 496l-21 16q67 90 108 176q33 -33 60 -46q-83 -71 -147 -146z" />
    <glyph glyph-name="Ncommaaccent" unicode="&#x145;" horiz-adv-x="734" 
d="M260 -257l-17 21q6 5 15.5 13.5t14 12.5t10 10.5t9.5 13.5q15 22 15 41q0 24 -33 57q30 23 55 57q31 -27 40 -44q9 -15 9 -30q0 -30 -34 -70q-35 -45 -84 -82zM206 536q-9 -44 -42 -220.5t-35 -195.5q-2 -14 -2 -35q0 -31 14.5 -42.5t58.5 -19.5l-8 -26q-38 5 -112 5
q-67 0 -109 -5l-2 26q64 8 84 24.5t35 77.5q29 116 85 409q7 39 -8 53t-73 26l9 26q41 -5 78 -5q28 0 76 5q9 -48 35 -94q40 -71 90.5 -151t109.5 -168.5t83 -126.5q48 218 79 430q2 15 2 25.5t-0.5 18.5t-6.5 14l-9 9t-15 7t-18.5 5.5t-24.5 5.5l8 25q34 -6 85 -6t112 6
l2 -25q-45 -7 -63.5 -25.5t-29.5 -59.5q-35 -127 -81 -401q-8 -44 -8 -71q0 -22 4 -43q-35 -13 -58 -30q-33 55 -175.5 280.5t-169.5 271.5z" />
    <glyph glyph-name="ncommaaccent" unicode="&#x146;" horiz-adv-x="506" 
d="M209 450l-13 -45q129 40 168 40q30 0 49 -28t12 -66q-6 -33 -27.5 -120.5t-26.5 -111.5q-5 -25 -5 -38q0 -20 9.5 -28.5t32.5 -9.5q5 0 12.5 0.5t17.5 1.5t17 1l6 -25q-111 -32 -135 -32q-46 0 -46 38q0 12 9 50q54 215 60 242q6 34 -7 50t-54 16q-48 0 -97 -10
q-15 -54 -43.5 -191.5t-27.5 -177.5q-52 0 -99 -18q58 142 93 356q4 24 -8 34.5t-41 10.5q-20 0 -32 -2l-3 27q74 7 179 36zM127 -257l-17 21q39 34 49 50q15 22 15 41q0 24 -33 57q29 23 55 57q27 -23 39 -44q10 -16 10 -32q0 -27 -33 -68q-35 -43 -85 -82z" />
    <glyph glyph-name="Ncaron" unicode="&#x147;" horiz-adv-x="734" 
d="M206 536q-9 -44 -42 -220.5t-35 -195.5q-2 -14 -2 -35q0 -31 14.5 -42.5t58.5 -19.5l-8 -26q-38 5 -112 5q-67 0 -109 -5l-2 26q64 8 84 24.5t35 77.5q29 116 85 409q7 39 -8 53t-73 26l9 26q41 -5 78 -5q28 0 76 5q9 -48 35 -94q40 -71 90.5 -151t109.5 -168.5
t83 -126.5q48 218 79 430q2 15 2 25.5t-0.5 18.5t-6.5 14l-9 9t-15 7t-18.5 5.5t-24.5 5.5l8 25q34 -6 85 -6t112 6l2 -25q-45 -7 -63.5 -25.5t-29.5 -59.5q-35 -127 -81 -401q-8 -44 -8 -71q0 -22 4 -43q-35 -13 -58 -30q-33 55 -175.5 280.5t-169.5 271.5zM369 813l18 16
q44 -35 85 -59q56 23 114 59l13 -19q-96 -71 -142 -121q-29 53 -88 124z" />
    <glyph glyph-name="ncaron" unicode="&#x148;" horiz-adv-x="506" 
d="M209 450l-13 -45q129 40 168 40q30 0 49 -28t12 -66q-6 -33 -27.5 -120.5t-26.5 -111.5q-5 -25 -5 -38q0 -20 9.5 -28.5t32.5 -9.5q5 0 12.5 0.5t17.5 1.5t17 1l6 -25q-111 -32 -135 -32q-46 0 -46 38q0 12 9 50q54 215 60 242q6 34 -7 50t-54 16q-48 0 -97 -10
q-15 -54 -43.5 -191.5t-27.5 -177.5q-52 0 -99 -18q58 142 93 356q4 24 -8 34.5t-41 10.5q-20 0 -32 -2l-3 27q74 7 179 36zM211 622l18 16q44 -35 85 -59q56 23 114 59l13 -19q-96 -71 -142 -121q-29 53 -88 124z" />
    <glyph glyph-name="napostrophe" unicode="&#x149;" horiz-adv-x="689" 
d="M392 450l-13 -45q129 40 168 40q30 0 49 -28t12 -66q-6 -33 -27.5 -120.5t-26.5 -111.5q-5 -25 -5 -38q0 -20 9.5 -28.5t32.5 -9.5q5 0 12.5 0.5t17.5 1.5t17 1l6 -25q-111 -32 -135 -32q-46 0 -46 38q0 12 9 50q54 215 60 242q6 34 -7 50t-54 16q-48 0 -97 -10
q-15 -54 -43.5 -191.5t-27.5 -177.5q-53 0 -99 -18q58 142 93 356q4 24 -8 34.5t-41 10.5q-20 0 -32 -2l-3 27q74 7 179 36zM76 435l-17 19q51 51 62 69q17 28 17 51q0 37 -37 65q38 32 62 64q26 -22 43 -50q10 -17 10 -36q0 -36 -37 -83q-27 -31 -103 -99z" />
    <glyph glyph-name="Eng" unicode="&#x14a;" horiz-adv-x="705" 
d="M260 588q132 39 196 50q42 7 63 7q57 0 105 -30q58 -36 58 -119q0 -10 -2 -32q-8 -82 -61 -309q-38 -155 -142 -253q-34 -33 -49 -45.5t-48 -24.5t-72 -7q-41 5 -94 6q24 46 34 93q48 -21 122 -21q53 0 77 16q33 21 62 97q12 32 44 158q43 186 52 282q2 20 2 29
q0 47 -30 72q-43 39 -112 39q-32 0 -77 -8q-46 -7 -135 -33q-39 -157 -88 -440q-7 -41 9 -59t71 -33l-8 -26q-72 6 -132 6q-61 0 -135 -6l-1 26q61 12 85 32t34 61q39 153 82 405q6 40 -10.5 60.5t-71.5 32.5l10 25h1q82 -8 92 -8q11 0 84 5q-9 -24 -15 -48z" />
    <glyph glyph-name="eng" unicode="&#x14b;" horiz-adv-x="497" 
d="M434 351q-13 -77 -85 -373q-11 -48 -17.5 -68t-27.5 -51t-60 -63q-61 -49 -105 -49q-11 0 -28 5q-9 3 -32 10.5t-40 12.5q25 36 38 79q28 -20 70.5 -36t62.5 -7q10 5 20.5 20.5t18.5 34t16 43t12.5 42t9 35.5t5.5 20q51 213 66 313q6 34 -7 50t-54 16q-47 0 -97 -10
q-15 -54 -43.5 -191.5t-27.5 -177.5q-53 0 -99 -18q58 142 93 356q4 24 -8 34.5t-41 10.5q-20 0 -32 -2l-3 27q74 7 179 36l-13 -45q129 40 168 40q30 0 49 -28t12 -66z" />
    <glyph glyph-name="Omacron" unicode="&#x14c;" horiz-adv-x="723" 
d="M312 -21q-127 0 -198.5 82.5t-71.5 194.5q2 103 41 179q44 88 133.5 153t202.5 65q121 0 193.5 -83t72.5 -205q0 -116 -59 -208q-46 -75 -129.5 -126.5t-184.5 -51.5zM123 272q0 -63 20.5 -112.5t54 -78t71 -42.5t76.5 -14q70 0 117.5 27t88.5 95q54 91 54 205
q0 68 -22.5 120.5t-58 80.5t-73 41.5t-73.5 13.5q-46 0 -84 -16t-82 -67q-40 -46 -64.5 -113t-24.5 -140zM531 719q-43 1 -125 1q-60 0 -92 -1q14 21 16 49q37 -2 108 -2t109 2q-9 -17 -16 -49z" />
    <glyph glyph-name="omacron" unicode="&#x14d;" horiz-adv-x="445" 
d="M164 -16q-71 0 -102.5 42t-31.5 111q0 22 3 46q17 149 116 222q54 40 98 40q144 0 144 -151q0 -20 -1 -30q-15 -171 -120 -242q-57 -38 -106 -38zM101 142q2 -51 25.5 -80.5t64.5 -29.5q49 0 68.5 22.5t38.5 83.5q19 59 21 147q1 49 -24.5 80.5t-75.5 31.5q-36 0 -58 -22
t-39 -79q-23 -72 -21 -154zM382 564q-43 1 -125 1q-60 0 -92 -1q14 21 16 49q37 -2 108 -2t109 2q-9 -17 -16 -49z" />
    <glyph glyph-name="Obreve" unicode="&#x14e;" horiz-adv-x="723" 
d="M312 -21q-127 0 -198.5 82.5t-71.5 194.5q2 103 41 179q44 88 133.5 153t202.5 65q121 0 193.5 -83t72.5 -205q0 -116 -59 -208q-46 -75 -129.5 -126.5t-184.5 -51.5zM123 272q0 -63 20.5 -112.5t54 -78t71 -42.5t76.5 -14q70 0 117.5 27t88.5 95q54 91 54 205
q0 68 -22.5 120.5t-58 80.5t-73 41.5t-73.5 13.5q-46 0 -84 -16t-82 -67q-40 -46 -64.5 -113t-24.5 -140zM524 818l22 -8q-29 -61 -56 -86.5t-75 -24.5q-46 0 -67 29t-24 85l22 6q9 -35 27.5 -47.5t52.5 -13.5q36 0 57 13t41 47z" />
    <glyph glyph-name="obreve" unicode="&#x14f;" horiz-adv-x="445" 
d="M164 -16q-71 0 -102.5 42t-31.5 111q0 22 3 46q17 149 116 222q54 40 98 40q144 0 144 -151q0 -20 -1 -30q-15 -171 -120 -242q-57 -38 -106 -38zM101 142q2 -51 25.5 -80.5t64.5 -29.5q49 0 68.5 22.5t38.5 83.5q19 59 21 147q1 49 -24.5 80.5t-75.5 31.5q-36 0 -58 -22
t-39 -79q-23 -72 -21 -154zM366 623l22 -8q-29 -61 -56 -86.5t-75 -24.5q-46 0 -67 29t-24 85l22 6q9 -35 27.5 -47.5t52.5 -13.5q36 0 57 13t41 47z" />
    <glyph glyph-name="Ohungarumlaut" unicode="&#x150;" horiz-adv-x="723" 
d="M312 -21q-127 0 -198.5 82.5t-71.5 194.5q2 103 41 179q44 88 133.5 153t202.5 65q121 0 193.5 -83t72.5 -205q0 -116 -59 -208q-46 -75 -129.5 -126.5t-184.5 -51.5zM123 272q0 -63 20.5 -112.5t54 -78t71 -42.5t76.5 -14q70 0 117.5 27t88.5 95q54 91 54 205
q0 68 -22.5 120.5t-58 80.5t-73 41.5t-73.5 13.5q-46 0 -84 -16t-82 -67q-40 -46 -64.5 -113t-24.5 -140zM590 822q13 -28 47 -59q-100 -36 -179 -80l-13 20q86 58 145 119zM443 832q17 -30 53 -54q-101 -48 -172 -96l-14 18q83 68 133 132z" />
    <glyph glyph-name="ohungarumlaut" unicode="&#x151;" horiz-adv-x="445" 
d="M164 -16q-71 0 -102.5 42t-31.5 111q0 22 3 46q17 149 116 222q54 40 98 40q144 0 144 -151q0 -20 -1 -30q-15 -171 -120 -242q-57 -38 -106 -38zM101 142q2 -51 25.5 -80.5t64.5 -29.5q49 0 68.5 22.5t38.5 83.5q19 59 21 147q1 49 -24.5 80.5t-75.5 31.5q-36 0 -58 -22
t-39 -79q-23 -72 -21 -154zM253 675q28 -20 71 -29q-64 -73 -123 -169l-21 11q54 108 73 187zM367 673q29 -22 70 -29q-72 -87 -121 -169l-22 10q54 110 73 188z" />
    <glyph glyph-name="OE" unicode="&#x152;" horiz-adv-x="884" 
d="M777 -6q-175 8 -352 8q-12 0 -60.5 -4t-67.5 -4q-132 0 -193.5 74.5t-61.5 190.5q2 101 40 174q43 84 131 145.5t200 61.5q23 0 73 -3t72 -3q220 0 283 12q1 -30 9.5 -77t19.5 -73l-28 -9q-16 46 -42.5 71.5t-49.5 31.5t-59 7q-6 0 -21.5 0.5t-25.5 0.5q-36 0 -64 -3
q-11 -30 -51 -239q117 -2 235 37q-28 -43 -37 -99q-87 30 -203 31q-7 -28 -26 -126.5t-22 -148.5q72 -18 144 -18q70 0 111 26.5t90 96.5l27 -10q-42 -69 -71 -151zM339 37q27 0 50 5q24 79 58 246.5t51 291.5q-67 20 -118 20q-47 0 -87 -15t-83 -64q-39 -44 -63.5 -110
t-24.5 -137q0 -121 61 -179t156 -58z" />
    <glyph glyph-name="oe" unicode="&#x153;" horiz-adv-x="647" 
d="M425 -14q-82 0 -109 77q-21 -24 -46 -41q-57 -38 -106 -38q-71 0 -102.5 42t-31.5 111q0 22 3 46q17 149 116 222q54 40 98 40q107 0 135 -86q69 86 146 86q43 0 67.5 -23t24.5 -58q0 -51 -48.5 -76t-110.5 -25q-39 0 -66 9q-15 -71 -15 -137q1 -45 22 -71.5t58 -26.5
q55 0 125 17l5 -24q-127 -44 -165 -44zM101 142q2 -51 25.5 -80.5t64.5 -29.5q49 0 68.5 22.5t38.5 83.5q19 59 21 147q1 49 -24.5 80.5t-75.5 31.5q-36 0 -58 -22t-39 -79q-23 -72 -21 -154zM401 301q19 -8 65 -8q83 0 86 62q2 23 -14 35t-38 12q-36 0 -60.5 -22t-38.5 -79
z" />
    <glyph glyph-name="Racute" unicode="&#x154;" 
d="M259 595q-39 -165 -99 -495q-3 -18 -3 -29q0 -22 16.5 -31t66.5 -17l-7 -26q-73 6 -133 6t-135 -6v26q66 8 84.5 21t27.5 52q39 161 88 433q7 43 -8.5 58.5t-74.5 26.5l5 25q55 -7 119 -7q24 0 75.5 2.5t77.5 2.5q104 0 161 -30.5t57 -109.5q0 -9 -2 -31
q-11 -79 -73 -125.5t-162 -46.5q-14 0 -27 3q13 -31 42 -78t82 -109.5t108 -100.5q-25 -13 -70 -69q-60 54 -135 175t-106 207q9 4 21 17q39 -14 86 -14q64 0 103 38t49 96q10 63 -28.5 104t-135.5 41q-39 0 -70 -9zM485 804q2 -37 14 -71q-123 -19 -193 -38l-6 19
q132 60 185 90z" />
    <glyph glyph-name="racute" unicode="&#x155;" horiz-adv-x="341" 
d="M27 -13q57 158 90 358q5 25 -5 36.5t-38 11.5q-7 0 -29 -2l-1 25q92 13 161 31q-10 -39 -26 -118q30 52 73 96q27 25 67 15q13 -4 32 -6q-25 -36 -39 -84q-16 10 -42 14q-25 3 -46 -19q-45 -49 -69 -140q-31 -135 -28 -201q-59 -5 -100 -17zM223 496l-21 16
q67 90 108 176q33 -33 60 -46q-83 -71 -147 -146z" />
    <glyph glyph-name="Rcommaaccent" unicode="&#x156;" 
d="M240 -257l-17 21q5 5 12.5 11.5t11.5 10t9 8.5t9 10t7 10q15 22 15 41q0 24 -33 57q29 23 55 57q29 -25 39 -44q10 -16 10 -32q0 -27 -33 -68q-35 -43 -85 -82zM259 595q-39 -165 -99 -495q-3 -18 -3 -29q0 -22 16.5 -31t66.5 -17l-7 -26q-73 6 -133 6t-135 -6v26
q66 8 84.5 21t27.5 52q39 161 88 433q7 43 -8.5 58.5t-74.5 26.5l5 25q55 -7 119 -7q24 0 75.5 2.5t77.5 2.5q104 0 161 -30.5t57 -109.5q0 -9 -2 -31q-11 -79 -73 -125.5t-162 -46.5q-14 0 -27 3q13 -31 42 -78t82 -109.5t108 -100.5q-25 -13 -70 -69q-60 54 -135 175
t-106 207q9 4 21 17q39 -14 86 -14q64 0 103 38t49 96q10 63 -28.5 104t-135.5 41q-39 0 -70 -9z" />
    <glyph glyph-name="rcommaaccent" unicode="&#x157;" horiz-adv-x="341" 
d="M-10 -266l-17 21q39 34 49 50q15 23 15 41q0 24 -33 57q29 23 55 57q28 -25 39 -44q10 -16 10 -32q0 -28 -33 -69q-36 -43 -85 -81zM27 -13q57 158 90 358q5 25 -5 36.5t-38 11.5q-7 0 -29 -2l-1 25q92 13 161 31q-10 -39 -26 -118q30 52 73 96q27 25 67 15q13 -4 32 -6
q-25 -36 -39 -84q-16 10 -42 14q-25 3 -46 -19q-45 -49 -69 -140q-31 -135 -28 -201q-59 -5 -100 -17z" />
    <glyph glyph-name="Rcaron" unicode="&#x158;" 
d="M259 595q-39 -165 -99 -495q-3 -18 -3 -29q0 -22 16.5 -31t66.5 -17l-7 -26q-73 6 -133 6t-135 -6v26q66 8 84.5 21t27.5 52q39 161 88 433q7 43 -8.5 58.5t-74.5 26.5l5 25q55 -7 119 -7q24 0 75.5 2.5t77.5 2.5q104 0 161 -30.5t57 -109.5q0 -9 -2 -31
q-11 -79 -73 -125.5t-162 -46.5q-14 0 -27 3q13 -31 42 -78t82 -109.5t108 -100.5q-25 -13 -70 -69q-60 54 -135 175t-106 207q9 4 21 17q39 -14 86 -14q64 0 103 38t49 96q10 63 -28.5 104t-135.5 41q-39 0 -70 -9zM287 817l18 16q44 -35 85 -59q56 23 114 59l13 -19
q-96 -71 -142 -121q-29 53 -88 124z" />
    <glyph glyph-name="rcaron" unicode="&#x159;" horiz-adv-x="341" 
d="M27 -13q57 158 90 358q5 25 -5 36.5t-38 11.5q-7 0 -29 -2l-1 25q92 13 161 31q-10 -39 -26 -118q30 52 73 96q27 25 67 15q13 -4 32 -6q-25 -36 -39 -84q-16 10 -42 14q-25 3 -46 -19q-45 -49 -69 -140q-31 -135 -28 -201q-59 -5 -100 -17zM129 622l18 16q44 -35 85 -59
q56 23 114 59l13 -19q-96 -71 -142 -121q-29 53 -88 124z" />
    <glyph glyph-name="Sacute" unicode="&#x15a;" horiz-adv-x="505" 
d="M407 69q-67 -90 -167 -90q-60 0 -139 29q-126 46 -135 48q32 42 47 94q41 -30 99 -60t110 -43q34 -9 60 -9q55 0 89 42q21 27 21 61q0 60 -58 109q-34 30 -91.5 70.5t-93.5 68.5q-47 37 -47 93q0 24 9 46q11 28 37.5 53.5t54.5 39.5q36 18 79 18q10 0 36 -2q76 -4 84 -4
q23 0 32 5q4 -68 26 -143l-26 -10q-4 18 -12 33q-21 37 -56 58t-69 25q-47 6 -74 -8q-51 -26 -48 -80q4 -42 37 -69q28 -22 80 -58t89 -65q71 -56 71 -133q0 -60 -45 -119zM429 804q2 -37 14 -71q-123 -19 -193 -38l-6 19q132 60 185 90z" />
    <glyph glyph-name="sacute" unicode="&#x15b;" horiz-adv-x="314" 
d="M4 12q30 53 36 81q43 -30 104 -40q42 -7 59 23q13 23 -24 73q-15 21 -50.5 58t-49.5 56q-21 29 -21 58q0 39 40 82q44 45 100 38q81 -11 95 -10q-28 -45 -38 -81q-43 25 -82 35q-38 11 -51 -4q-9 -11 -5.5 -31t15.5 -36q12 -18 50 -58.5t45 -49.5q29 -38 29 -71
q0 -34 -28 -80q-49 -80 -136 -65q-15 3 -44.5 11t-43.5 11zM173 496l-21 16q67 90 108 176q33 -33 60 -46q-83 -71 -147 -146z" />
    <glyph glyph-name="Scircumflex" unicode="&#x15c;" horiz-adv-x="505" 
d="M407 69q-67 -90 -167 -90q-60 0 -139 29q-126 46 -135 48q32 42 47 94q41 -30 99 -60t110 -43q34 -9 60 -9q55 0 89 42q21 27 21 61q0 60 -58 109q-34 30 -91.5 70.5t-93.5 68.5q-47 37 -47 93q0 24 9 46q11 28 37.5 53.5t54.5 39.5q36 18 79 18q10 0 36 -2q76 -4 84 -4
q23 0 32 5q4 -68 26 -143l-26 -10q-4 18 -12 33q-21 37 -56 58t-69 25q-47 6 -74 -8q-51 -26 -48 -80q4 -42 37 -69q28 -22 80 -58t89 -65q71 -56 71 -133q0 -60 -45 -119zM449 700l-18 -17q-35 30 -86 60q-62 -27 -113 -60l-13 19q100 74 142 121q34 -60 88 -123z" />
    <glyph glyph-name="scircumflex" unicode="&#x15d;" horiz-adv-x="314" 
d="M4 12q30 53 36 81q43 -30 104 -40q42 -7 59 23q13 23 -24 73q-15 21 -50.5 58t-49.5 56q-21 29 -21 58q0 39 40 82q44 45 100 38q81 -11 95 -10q-28 -45 -38 -81q-43 25 -82 35q-38 11 -51 -4q-9 -11 -5.5 -31t15.5 -36q12 -18 50 -58.5t45 -49.5q29 -38 29 -71
q0 -34 -28 -80q-49 -80 -136 -65q-15 3 -44.5 11t-43.5 11zM317 505l-18 -17q-35 30 -86 60q-62 -27 -113 -60l-13 19q100 74 142 121q34 -60 88 -123z" />
    <glyph glyph-name="Scedilla" unicode="&#x15e;" horiz-adv-x="505" 
d="M94 -247l-15 18q21 18 37 40q17 25 10 53q-8 32 -20 55q28 30 57 70q-22 4 -62 19q-126 46 -135 48q32 42 47 94q41 -30 99 -60t110 -43q34 -9 60 -9q55 0 89 42q21 27 21 61q0 60 -58 109q-34 30 -91.5 70.5t-93.5 68.5q-47 37 -47 93q0 24 9 46q11 28 37.5 53.5
t54.5 39.5q36 18 79 18q10 0 36 -2q76 -4 84 -4q23 0 32 5q4 -68 26 -143l-26 -10q-4 18 -12 33q-21 37 -56 58t-69 25q-47 6 -74 -8q-51 -26 -48 -80q4 -42 37 -69q28 -22 80 -58t89 -65q71 -56 71 -133q0 -60 -45 -119q-67 -90 -167 -90q-21 0 -51 5l-25 -38q4 -9 16 -47
q13 -46 -25 -89q-30 -34 -61 -57z" />
    <glyph glyph-name="scedilla" unicode="&#x15f;" horiz-adv-x="314" 
d="M26 -247l-15 18q21 18 37 40q17 25 10 53q-8 32 -20 55q30 31 58 71h-4q-15 3 -44.5 11t-43.5 11q30 53 36 81q43 -30 104 -40q42 -7 59 23q13 23 -24 73q-15 21 -50.5 58t-49.5 56q-21 29 -21 58q0 39 40 82q44 45 100 38q81 -11 95 -10q-28 -45 -38 -81q-43 25 -82 35
q-38 11 -51 -4q-9 -11 -5.5 -31t15.5 -36q12 -18 50 -58.5t45 -49.5q29 -38 29 -71q0 -34 -28 -80q-40 -65 -103 -67l-29 -42q4 -9 16 -47q13 -46 -25 -89q-30 -34 -61 -57z" />
    <glyph glyph-name="Scaron" unicode="&#x160;" horiz-adv-x="505" 
d="M407 69q-67 -90 -167 -90q-60 0 -139 29q-126 46 -135 48q32 42 47 94q41 -30 99 -60t110 -43q34 -9 60 -9q55 0 89 42q21 27 21 61q0 60 -58 109q-34 30 -91.5 70.5t-93.5 68.5q-47 37 -47 93q0 24 9 46q11 28 37.5 53.5t54.5 39.5q36 18 79 18q10 0 36 -2q76 -4 84 -4
q23 0 32 5q4 -68 26 -143l-26 -10q-4 18 -12 33q-21 37 -56 58t-69 25q-47 6 -74 -8q-51 -26 -48 -80q4 -42 37 -69q28 -22 80 -58t89 -65q71 -56 71 -133q0 -60 -45 -119zM247 810l18 16q44 -35 85 -59q56 23 114 59l13 -19q-96 -71 -142 -121q-29 53 -88 124z" />
    <glyph glyph-name="scaron" unicode="&#x161;" horiz-adv-x="314" 
d="M4 12q30 53 36 81q43 -30 104 -40q42 -7 59 23q13 23 -24 73q-15 21 -50.5 58t-49.5 56q-21 29 -21 58q0 39 40 82q44 45 100 38q81 -11 95 -10q-28 -45 -38 -81q-43 25 -82 35q-38 11 -51 -4q-9 -11 -5.5 -31t15.5 -36q12 -18 50 -58.5t45 -49.5q29 -38 29 -71
q0 -34 -28 -80q-49 -80 -136 -65q-15 3 -44.5 11t-43.5 11zM107 622l18 16q44 -35 85 -59q56 23 114 59l13 -19q-96 -71 -142 -121q-29 53 -88 124z" />
    <glyph glyph-name="uni0162" unicode="&#x162;" horiz-adv-x="581" 
d="M161 -247l-15 18q21 18 37 40q17 25 10 53q-8 32 -20 55q33 34 68 84q-67 0 -140 -6l-2 26q73 9 94 23.5t31 55.5q42 174 101 501q-28 1 -77 1q-50 0 -81.5 -15t-49 -35.5t-49.5 -71.5l-27 11q18 26 45.5 78.5t34.5 75.5q112 -13 247 -13q155 0 243 15q3 -68 35 -155
l-26 -9q-37 77 -61.5 97.5t-84.5 21.5q-57 0 -77 -1q-48 -225 -95 -500q-4 -26 -4 -32q0 -23 18 -32.5t72 -15.5l-8 -26q-58 5 -110 6q-6 -8 -12.5 -17.5t-14.5 -21.5l-12 -18q4 -9 16 -47q13 -46 -25 -89q-30 -34 -61 -57z" />
    <glyph glyph-name="uni0163" unicode="&#x163;" horiz-adv-x="293" 
d="M3 -247l-15 18q21 18 37 40q17 25 10 53q-8 32 -20 55q24 25 52 62q-35 8 -35 61q0 13 3 31q6 32 34 154.5t36 169.5q-43 0 -54 -1l-4 16q28 5 67 20q18 76 17 114q42 -1 95 14q-18 -37 -43 -131q66 0 122 12q-17 -19 -31 -48q-62 5 -99 5q-47 -202 -57 -269
q-4 -32 -4 -42q0 -24 12 -35.5t44 -10.5q17 0 55 4l5 -26q-85 -29 -133 -37l-24 -36q4 -9 16 -47q13 -46 -25 -89q-30 -34 -61 -57z" />
    <glyph glyph-name="Tcaron" unicode="&#x164;" horiz-adv-x="581" 
d="M224 102q42 174 101 501q-28 1 -77 1q-50 0 -81.5 -15t-49 -35.5t-49.5 -71.5l-27 11q18 26 45.5 78.5t34.5 75.5q112 -13 247 -13q155 0 243 15q3 -68 35 -155l-26 -9q-37 77 -61.5 97.5t-84.5 21.5q-57 0 -77 -1q-48 -225 -95 -500q-4 -26 -4 -32q0 -23 18 -32.5
t72 -15.5l-8 -26q-72 6 -138 6t-141 -6l-2 26q73 9 94 23.5t31 55.5zM286 813l18 16q44 -35 85 -59q56 23 114 59l13 -19q-96 -71 -142 -121q-29 53 -88 124z" />
    <glyph glyph-name="tcaron" unicode="&#x165;" horiz-adv-x="293" 
d="M315 692q40 -1 94 15q-45 -118 -141 -224l-19 13q33 54 46 97.5t20 98.5zM77 -20q-45 0 -45 62q0 13 3 31q6 32 34 154.5t36 169.5q-43 0 -54 -1l-4 16q28 5 67 20q18 76 17 114q42 -1 95 14q-18 -37 -43 -131q66 0 122 12q-17 -19 -31 -48q-62 5 -99 5
q-47 -202 -57 -269q-4 -32 -4 -42q0 -24 12 -35.5t44 -10.5q17 0 55 4l5 -26q-115 -39 -153 -39z" />
    <glyph glyph-name="Tbar" unicode="&#x166;" horiz-adv-x="581" 
d="M229 125q10 38 42 191q-23 0 -71 -0.5t-71 -0.5l7 28q94 -2 139 -2q11 53 50 262q-28 1 -59 1q-73 -1 -114 -28t-84 -94l-27 11q18 26 45.5 78.5t34.5 75.5q112 -13 247 -13q155 0 243 15q3 -68 35 -155l-26 -9q-35 73 -68 95.5t-97 23.5q-38 0 -58 -1q-23 -111 -52 -262
q49 0 147 2l-7 -28q-24 0 -72 0.5t-72 0.5q-21 -104 -35 -191q-3 -18 -3 -31q0 -25 17.5 -40t67.5 -31l-8 -26q-72 6 -138 6t-141 -6l-2 26q66 13 92.5 36t37.5 66z" />
    <glyph glyph-name="tbar" unicode="&#x167;" horiz-adv-x="293" 
d="M77 -20q-45 0 -45 62q0 13 3 31q13 66 39 174q-46 0 -57 -1l-2 16q34 7 66 18v1l1 1q15 62 23 115q-43 0 -54 -1l-4 16q28 5 67 20q18 76 17 114q42 -1 95 14q-18 -37 -43 -131q66 0 122 12q-17 -19 -31 -48q-62 5 -99 5q-2 -8 -12 -50.5t-15 -68.5q71 0 123 12
q-20 -21 -30 -48q-63 5 -99 5q-17 -76 -24 -119q-4 -32 -4 -42q0 -24 12 -35.5t44 -10.5q17 0 55 4l5 -26q-115 -39 -153 -39z" />
    <glyph glyph-name="Utilde" unicode="&#x168;" horiz-adv-x="703" 
d="M287 -25q-102 2 -152.5 52t-50.5 134q0 34 7 66q1 6 29.5 138.5t34.5 164.5q3 20 3 32q0 26 -14.5 36t-54.5 17l9 24q64 -8 115 -8q59 0 120 8l1 -24q-57 -11 -74 -23.5t-28 -59.5q-28 -104 -60 -292q-6 -36 -6 -67q0 -153 153 -153q104 0 152 46t70 129q51 194 68 336
q5 41 -7 58.5t-65 25.5l8 24q61 -8 107 -8q41 0 102 8l1 -24q-51 -7 -68 -23t-30 -63q-5 -19 -78 -343q-49 -220 -292 -211zM578 795q16 11 30 27l19 -13q-35 -45 -69 -74q-20 -17 -43 -17q-16 0 -39 4q-20 4 -38 4q-26 0 -45 -16q-27 -24 -31 -29l-19 14q36 44 65 68
q30 24 51 24q10 0 40 -5q22 -3 35 -3q22 0 44 16z" />
    <glyph glyph-name="utilde" unicode="&#x169;" horiz-adv-x="506" 
d="M314 -16q-23 0 -33 13t-5 36q-109 -46 -156 -46q-73 0 -73 68q0 32 17 97q37 154 41 182q6 34 -8.5 47t-65.5 9l-3 27q111 9 184 31q-15 -29 -31 -85q-44 -161 -53 -223q-3 -24 -3 -41q0 -29 11 -39t37 -11q50 0 108 16q4 20 23.5 101.5t28.5 122.5q17 88 16 142
q61 1 106 17q-34 -71 -58 -165q-26 -101 -36 -167q-3 -27 -3 -34q0 -42 29 -42q21 0 65 6l7 -22q-112 -40 -145 -40zM411 609q17 11 30 27l19 -13q-35 -45 -69 -74q-20 -17 -43 -17q-16 0 -39 4q-20 4 -38 4q-26 0 -45 -16q-27 -24 -31 -29l-19 14q36 44 65 68q30 24 51 24
q10 0 40 -5q22 -3 35 -3q22 0 44 16z" />
    <glyph glyph-name="Umacron" unicode="&#x16a;" horiz-adv-x="703" 
d="M287 -25q-102 2 -152.5 52t-50.5 134q0 34 7 66q1 6 29.5 138.5t34.5 164.5q3 20 3 32q0 26 -14.5 36t-54.5 17l9 24q64 -8 115 -8q59 0 120 8l1 -24q-57 -11 -74 -23.5t-28 -59.5q-28 -104 -60 -292q-6 -36 -6 -67q0 -153 153 -153q104 0 152 46t70 129q51 194 68 336
q5 41 -7 58.5t-65 25.5l8 24q61 -8 107 -8q41 0 102 8l1 -24q-51 -7 -68 -23t-30 -63q-5 -19 -78 -343q-49 -220 -292 -211zM561 719q-43 1 -125 1q-60 0 -92 -1q14 21 16 49q37 -2 108 -2t109 2q-9 -17 -16 -49z" />
    <glyph glyph-name="umacron" unicode="&#x16b;" horiz-adv-x="506" 
d="M314 -16q-23 0 -33 13t-5 36q-109 -46 -156 -46q-73 0 -73 68q0 32 17 97q37 154 41 182q6 34 -8.5 47t-65.5 9l-3 27q111 9 184 31q-15 -29 -31 -85q-44 -161 -53 -223q-3 -24 -3 -41q0 -29 11 -39t37 -11q50 0 108 16q4 20 23.5 101.5t28.5 122.5q17 88 16 142
q61 1 106 17q-34 -71 -58 -165q-26 -101 -36 -167q-3 -27 -3 -34q0 -42 29 -42q21 0 65 6l7 -22q-112 -40 -145 -40zM404 564q-43 1 -125 1q-60 0 -92 -1q14 21 16 49q37 -2 108 -2t109 2q-9 -17 -16 -49z" />
    <glyph glyph-name="Ubreve" unicode="&#x16c;" horiz-adv-x="703" 
d="M287 -25q-102 2 -152.5 52t-50.5 134q0 34 7 66q1 6 29.5 138.5t34.5 164.5q3 20 3 32q0 26 -14.5 36t-54.5 17l9 24q64 -8 115 -8q59 0 120 8l1 -24q-57 -11 -74 -23.5t-28 -59.5q-28 -104 -60 -292q-6 -36 -6 -67q0 -153 153 -153q104 0 152 46t70 129q51 194 68 336
q5 41 -7 58.5t-65 25.5l8 24q61 -8 107 -8q41 0 102 8l1 -24q-51 -7 -68 -23t-30 -63q-5 -19 -78 -343q-49 -220 -292 -211zM563 818l22 -8q-29 -61 -56 -86.5t-75 -24.5q-46 0 -67 29t-24 85l22 6q9 -35 27.5 -47.5t52.5 -13.5q36 0 57 13t41 47z" />
    <glyph glyph-name="ubreve" unicode="&#x16d;" horiz-adv-x="506" 
d="M314 -16q-23 0 -33 13t-5 36q-109 -46 -156 -46q-73 0 -73 68q0 32 17 97q37 154 41 182q6 34 -8.5 47t-65.5 9l-3 27q111 9 184 31q-15 -29 -31 -85q-44 -161 -53 -223q-3 -24 -3 -41q0 -29 11 -39t37 -11q50 0 108 16q4 20 23.5 101.5t28.5 122.5q17 88 16 142
q61 1 106 17q-34 -71 -58 -165q-26 -101 -36 -167q-3 -27 -3 -34q0 -42 29 -42q21 0 65 6l7 -22q-112 -40 -145 -40zM403 623l22 -8q-29 -61 -56 -86.5t-75 -24.5q-46 0 -67 29t-24 85l22 6q9 -35 27.5 -47.5t52.5 -13.5q36 0 57 13t41 47z" />
    <glyph glyph-name="Uring" unicode="&#x16e;" horiz-adv-x="703" 
d="M287 -25q-102 2 -152.5 52t-50.5 134q0 34 7 66q1 6 29.5 138.5t34.5 164.5q3 20 3 32q0 26 -14.5 36t-54.5 17l9 24q64 -8 115 -8q59 0 120 8l1 -24q-57 -11 -74 -23.5t-28 -59.5q-28 -104 -60 -292q-6 -36 -6 -67q0 -153 153 -153q104 0 152 46t70 129q51 194 68 336
q5 41 -7 58.5t-65 25.5l8 24q61 -8 107 -8q41 0 102 8l1 -24q-51 -7 -68 -23t-30 -63q-5 -19 -78 -343q-49 -220 -292 -211zM388 756q5 33 30 53.5t55 20.5q33 0 50.5 -21t12.5 -53q-5 -36 -29.5 -56t-56.5 -20q-31 0 -49.5 20.5t-12.5 55.5zM420 754q-2 -21 7 -33.5
t27 -12.5q21 0 34 12.5t16 34.5q3 20 -6.5 34t-29.5 14q-41 0 -48 -49z" />
    <glyph glyph-name="uring" unicode="&#x16f;" horiz-adv-x="506" 
d="M314 -16q-23 0 -33 13t-5 36q-109 -46 -156 -46q-73 0 -73 68q0 32 17 97q37 154 41 182q6 34 -8.5 47t-65.5 9l-3 27q111 9 184 31q-15 -29 -31 -85q-44 -161 -53 -223q-3 -24 -3 -41q0 -29 11 -39t37 -11q50 0 108 16q4 20 23.5 101.5t28.5 122.5q17 88 16 142
q61 1 106 17q-34 -71 -58 -165q-26 -101 -36 -167q-3 -27 -3 -34q0 -42 29 -42q21 0 65 6l7 -22q-112 -40 -145 -40zM227 561q5 33 30 53.5t55 20.5q33 0 50.5 -21t12.5 -53q-5 -36 -29.5 -56t-56.5 -20q-31 0 -49.5 20.5t-12.5 55.5zM259 559q-2 -21 7 -33.5t27 -12.5
q21 0 34 12.5t16 34.5q3 20 -6.5 34t-29.5 14q-41 0 -48 -49z" />
    <glyph glyph-name="Uhungarumlaut" unicode="&#x170;" horiz-adv-x="703" 
d="M287 -25q-102 2 -152.5 52t-50.5 134q0 34 7 66q1 6 29.5 138.5t34.5 164.5q3 20 3 32q0 26 -14.5 36t-54.5 17l9 24q64 -8 115 -8q59 0 120 8l1 -24q-57 -11 -74 -23.5t-28 -59.5q-28 -104 -60 -292q-6 -36 -6 -67q0 -153 153 -153q104 0 152 46t70 129q51 194 68 336
q5 41 -7 58.5t-65 25.5l8 24q61 -8 107 -8q41 0 102 8l1 -24q-51 -7 -68 -23t-30 -63q-5 -19 -78 -343q-49 -220 -292 -211zM626 822q13 -28 47 -59q-100 -36 -179 -80l-13 20q86 58 145 119zM479 832q17 -30 53 -54q-101 -48 -172 -96l-14 18q83 68 133 132z" />
    <glyph glyph-name="uhungarumlaut" unicode="&#x171;" horiz-adv-x="506" 
d="M314 -16q-23 0 -33 13t-5 36q-109 -46 -156 -46q-73 0 -73 68q0 32 17 97q37 154 41 182q6 34 -8.5 47t-65.5 9l-3 27q111 9 184 31q-15 -29 -31 -85q-44 -161 -53 -223q-3 -24 -3 -41q0 -29 11 -39t37 -11q50 0 108 16q4 20 23.5 101.5t28.5 122.5q17 88 16 142
q61 1 106 17q-34 -71 -58 -165q-26 -101 -36 -167q-3 -27 -3 -34q0 -42 29 -42q21 0 65 6l7 -22q-112 -40 -145 -40zM286 675q28 -20 71 -29q-64 -73 -123 -169l-21 11q54 108 73 187zM400 673q29 -22 70 -29q-72 -87 -121 -169l-22 10q54 110 73 188z" />
    <glyph glyph-name="Uogonek" unicode="&#x172;" horiz-adv-x="703" 
d="M348 -159l8 -18q-19 -11 -67 -34q-31 -13 -50 -13q-20 0 -35 12q-28 21 -25 58q2 21 9.5 34.5t27.5 32.5q9 11 69 62q-102 3 -151.5 53t-49.5 133q0 34 7 66q1 6 29.5 138.5t34.5 164.5q3 20 3 32q0 26 -14.5 36t-54.5 17l9 24q64 -8 115 -8q59 0 120 8l1 -24
q-57 -11 -74 -23.5t-28 -59.5q-28 -104 -60 -292q-6 -36 -6 -67q0 -153 153 -153q104 0 152 46t70 129q51 194 68 336q5 41 -7 58.5t-65 25.5l8 24q61 -8 107 -8q41 0 102 8l1 -24q-51 -7 -68 -23t-30 -63q-5 -19 -78 -343q-46 -201 -253 -210q-76 -66 -80 -101
q-4 -21 7 -33t34 -12q33 0 61 11z" />
    <glyph glyph-name="uogonek" unicode="&#x173;" horiz-adv-x="506" 
d="M351 -139l8 -18q-19 -11 -67 -34q-31 -13 -50 -13q-20 0 -35 12q-28 21 -25 58q2 21 9.5 34.5t27.5 32.5q7 8 66 60q-15 12 -9 40q-109 -46 -156 -46q-73 0 -73 68q0 32 17 97q37 154 41 182q6 34 -8.5 47t-65.5 9l-3 27q111 9 184 31q-15 -29 -31 -85q-44 -161 -53 -223
q-3 -24 -3 -41q0 -29 11 -39t37 -11q50 0 108 16q4 20 23.5 101.5t28.5 122.5q17 88 16 142q61 1 106 17q-34 -71 -58 -165q-26 -101 -36 -167q-3 -27 -3 -34q0 -42 29 -42q21 0 65 6l7 -22q-105 -38 -143 -40q-62 -55 -67 -89q-4 -21 7 -33t34 -12q33 0 61 11z" />
    <glyph glyph-name="Wcircumflex" unicode="&#x174;" horiz-adv-x="952" 
d="M197 -21q1 17 1 47q0 18 -4 126q-1 29 -12.5 163t-21.5 210q-6 44 -19 61t-57 28l7 25q44 -10 104 -10q61 0 112 10l4 -25q-47 -9 -59.5 -24.5t-10.5 -52.5q7 -173 28 -361q1 -6 2 -22.5t1.5 -30.5t1.5 -16q195 272 262 367q-18 103 -42 141q58 14 117 41q-4 -44 -4 -88
q0 -54 8 -132q1 -18 11 -112.5t12 -148.5q4 -50 3 -68q12 20 39 57t56 73.5t31 39.5q62 84 86.5 148.5t24.5 138.5q0 28 -3 60q58 13 100 46q17 -168 -179 -407q-153 -191 -199 -288l-26 9q2 10 2 30q0 45 -5 105q-11 193 -26 305q-132 -177 -224 -310q-57 -82 -94 -145z
M709 700l-18 -17q-35 30 -86 60q-62 -27 -113 -60l-13 19q100 74 142 121q34 -60 88 -123z" />
    <glyph glyph-name="wcircumflex" unicode="&#x175;" horiz-adv-x="675" 
d="M306 427q53 5 88 19q-3 -34 15 -157q20 -144 20 -192q4 6 9.5 13.5t14 17.5t12.5 16q97 121 97 231q0 22 -3 46q49 11 83 37q4 -19 4 -41q0 -49 -21 -94t-60 -99q-13 -19 -46 -61t-48 -62q-58 -76 -76 -126l-24 5q1 13 1 38q0 43 -7 97q-8 80 -20 140q-60 -83 -105 -151
q-52 -80 -71 -129l-27 5q1 10 1 30q0 37 -8 105q-15 139 -35 225q-9 39 -25 47.5t-52 4.5l-4 26q95 11 150 30q-3 -62 23 -250q10 -87 10 -100q10 18 32 48q83 119 103 150q-11 82 -31 131zM495 505l-18 -17q-35 30 -86 60q-62 -27 -113 -60l-13 19q100 74 142 121
q34 -60 88 -123z" />
    <glyph glyph-name="Ycircumflex" unicode="&#x176;" horiz-adv-x="606" 
d="M573 549q-145 -203 -242 -377q-16 -30 -53.5 -103t-58 -110t-53.5 -79.5t-64 -59.5q-4 58 -40 98q79 34 128 91t88 145q-53 223 -113 393q-12 34 -24.5 45.5t-55.5 21.5l8 25q54 -8 99 -8q40 0 116 8l3 -25q-40 -7 -54.5 -21.5t-8.5 -43.5q22 -114 83 -305q33 57 94 153
t88 141q10 16 10 31q0 32 -63 45l8 25q50 -5 101 -5q56 0 91 5l2 -25q-30 -4 -47.5 -18t-41.5 -47zM524 710l-18 -17q-35 30 -86 60q-62 -27 -113 -60l-13 19q100 74 142 121q34 -60 88 -123z" />
    <glyph glyph-name="ycircumflex" unicode="&#x177;" horiz-adv-x="474" 
d="M-103 -256q32 62 36 102q55 -9 108 -9q32 1 56.5 31.5t57.5 96.5q4 162 -40 358q-8 35 -21.5 49t-35.5 14q-13 0 -41 -7l-5 26q83 19 141 49q15 -19 28 -84q34 -203 37 -297q22 41 67.5 108.5t51.5 80.5q24 48 24 93q0 24 -8 51q41 17 79 55q9 -31 9 -60q0 -41 -21 -83.5
t-70 -104.5q-115 -146 -215 -366q-36 -82 -110 -89q-97 -8 -128 -14zM408 505l-18 -17q-35 30 -86 60q-62 -27 -113 -60l-13 19q100 74 142 121q34 -60 88 -123z" />
    <glyph glyph-name="Ydieresis" unicode="&#x178;" horiz-adv-x="606" 
d="M573 549q-145 -203 -242 -377q-16 -30 -53.5 -103t-58 -110t-53.5 -79.5t-64 -59.5q-4 58 -40 98q79 34 128 91t88 145q-53 223 -113 393q-12 34 -24.5 45.5t-55.5 21.5l8 25q54 -8 99 -8q40 0 116 8l3 -25q-40 -7 -54.5 -21.5t-8.5 -43.5q22 -114 83 -305q33 57 94 153
t88 141q10 16 10 31q0 32 -63 45l8 25q50 -5 101 -5q56 0 91 5l2 -25q-30 -4 -47.5 -18t-41.5 -47zM332 720q-20 -1 -29.5 11t-8.5 27q1 16 12.5 28.5t30.5 13.5t28.5 -10t8.5 -26q-1 -17 -12 -30t-30 -14zM483 720q-20 -1 -29 10.5t-9 27.5q1 16 12.5 28.5t31.5 13.5
q19 1 27.5 -10t8.5 -26q0 -17 -11 -30t-31 -14z" />
    <glyph glyph-name="Zacute" unicode="&#x179;" horiz-adv-x="586" 
d="M452 -28q-43 23 -115 38t-130 15q-110 0 -232 -39l-13 28q60 38 153 142q40 44 164 181.5t200 221.5q-74 -29 -135 -29q-33 0 -111 14q-41 7 -65 -10t-54 -67l-26 11q20 31 45.5 83t33.5 87q91 -44 214 -44q131 0 202 52l16 -19l-93 -93q-32 -34 -416 -466q77 22 138 22
q44 0 160 -17q19 -3 34 -3q32 0 52.5 16t55.5 63l22 -14q-63 -92 -100 -173zM482 804q2 -37 14 -71q-123 -19 -193 -38l-6 19q132 60 185 90z" />
    <glyph glyph-name="zacute" unicode="&#x17a;" horiz-adv-x="462" 
d="M5 -13l-12 20q62 59 173 183.5t166 178.5q-51 -12 -93 -12q-16 0 -64 4q-15 1 -28 0.5t-31.5 -15t-38.5 -44.5l-21 9q42 69 52 130q115 -18 182 -18q78 0 127 21l13 -18q-72 -67 -196.5 -204t-143.5 -157q52 11 106 11q32 0 85 -5q28 -3 50 12.5t46 59.5l21 -8
q-40 -76 -53 -140q-109 14 -192 14q-101 0 -148 -22zM252 496l-21 16q67 90 108 176q33 -33 60 -46q-83 -71 -147 -146z" />
    <glyph glyph-name="Zdotaccent" unicode="&#x17b;" horiz-adv-x="586" 
d="M452 -28q-43 23 -115 38t-130 15q-110 0 -232 -39l-13 28q60 38 153 142q40 44 164 181.5t200 221.5q-74 -29 -135 -29q-33 0 -111 14q-41 7 -65 -10t-54 -67l-26 11q20 31 45.5 83t33.5 87q91 -44 214 -44q131 0 202 52l16 -19l-93 -93q-32 -34 -416 -466q77 22 138 22
q44 0 160 -17q19 -3 34 -3q32 0 52.5 16t55.5 63l22 -14q-63 -92 -100 -173zM383 710q-24 -1 -35 12.5t-10 31.5q1 19 14.5 33.5t35.5 15.5q23 1 34 -11.5t10 -30.5q-1 -19 -14.5 -34.5t-34.5 -16.5z" />
    <glyph glyph-name="zdotaccent" unicode="&#x17c;" horiz-adv-x="462" 
d="M5 -13l-12 20q62 59 173 183.5t166 178.5q-51 -12 -93 -12q-16 0 -64 4q-15 1 -28 0.5t-31.5 -15t-38.5 -44.5l-21 9q42 69 52 130q115 -18 182 -18q78 0 127 21l13 -18q-72 -67 -196.5 -204t-143.5 -157q52 11 106 11q32 0 85 -5q28 -3 50 12.5t46 59.5l21 -8
q-40 -76 -53 -140q-109 14 -192 14q-101 0 -148 -22zM285 557q-24 -1 -35 12.5t-10 31.5q1 19 14.5 33.5t35.5 15.5q23 1 34 -11.5t10 -30.5q-1 -19 -14.5 -34.5t-34.5 -16.5z" />
    <glyph glyph-name="Zcaron" unicode="&#x17d;" horiz-adv-x="586" 
d="M452 -28q-43 23 -115 38t-130 15q-110 0 -232 -39l-13 28q60 38 153 142q40 44 164 181.5t200 221.5q-74 -29 -135 -29q-33 0 -111 14q-41 7 -65 -10t-54 -67l-26 11q20 31 45.5 83t33.5 87q91 -44 214 -44q131 0 202 52l16 -19l-93 -93q-32 -34 -416 -466q77 22 138 22
q44 0 160 -17q19 -3 34 -3q32 0 52.5 16t55.5 63l22 -14q-63 -92 -100 -173zM274 819l18 16q44 -35 85 -59q56 23 114 59l13 -19q-96 -71 -142 -121q-29 53 -88 124z" />
    <glyph glyph-name="zcaron" unicode="&#x17e;" horiz-adv-x="462" 
d="M5 -13l-12 20q62 59 173 183.5t166 178.5q-51 -12 -93 -12q-16 0 -64 4q-15 1 -28 0.5t-31.5 -15t-38.5 -44.5l-21 9q42 69 52 130q115 -18 182 -18q78 0 127 21l13 -18q-72 -67 -196.5 -204t-143.5 -157q52 11 106 11q32 0 85 -5q28 -3 50 12.5t46 59.5l21 -8
q-40 -76 -53 -140q-109 14 -192 14q-101 0 -148 -22zM170 622l18 16q44 -35 85 -59q56 23 114 59l13 -19q-96 -71 -142 -121q-29 53 -88 124z" />
    <glyph glyph-name="longs" unicode="&#x17f;" horiz-adv-x="255" 
d="M-117 -260q-75 22 -89 22q23 33 39 86q51 -29 94 -33q21 -3 37 3t26.5 15.5t20 29t14 34t11.5 39.5q39 147 84 459q-20 1 -46.5 -1t-30.5 -4l-3 14q67 20 85 29q3 11 8.5 42.5t11.5 54.5q3 13 6.5 24.5t6 19t8.5 16.5t8 13t10.5 13t10.5 11t14 13.5t15 14.5q55 55 108 55
q18 0 63.5 -11t57.5 -12q-23 -47 -31 -92q-22 17 -60 32t-56 18q-33 7 -51 -6.5t-31 -54.5q-16 -50 -39 -188q-7 -39 -17.5 -105.5t-17 -105t-18 -96t-24.5 -111.5q-18 -83 -95 -172q-71 -83 -130 -66z" />
    <glyph glyph-name="uni018F" unicode="&#x18f;" horiz-adv-x="678" 
d="M549 341q3 21 3 45q0 69 -25 128.5t-78 83.5q-38 16 -81 16q-30 0 -57 -7q-77 -18 -136 -85q-21 -27 -27 -36l-21 13q41 63 71 138q16 -3 32 -3q9 0 35 2q76 8 116 8q46 0 77 -6q66 -12 118 -64.5t61 -131.5q3 -27 3 -52q0 -154 -83 -265q-64 -87 -170 -119
q-44 -13 -106 -16q-59 -4 -103 16q-121 53 -131 201q-3 71 17 140q108 -6 402 -6h83zM480 146q51 80 65 162q-131 3 -255 3q-24 0 -74 -0.5t-76 -0.5q-9 -36 -9 -81q0 -15 2 -35q13 -108 94 -146q39 -18 76 -18q103 0 177 116z" />
    <glyph glyph-name="florin" unicode="&#x192;" horiz-adv-x="424" 
d="M22 270l7 31l138 -2l27 166q3 21 7 36t13.5 28.5t13.5 18t21.5 21t23.5 21.5q57 55 108 55q19 0 49.5 -6t40.5 -7q-25 -54 -31 -93q-43 34 -84 41q-33 7 -51.5 -6.5t-31.5 -54.5q-17 -52 -37 -173l-8 -47l161 2l-7 -32l-158 3q-41 -233 -43 -245q-13 -67 -36.5 -114.5
t-72.5 -106.5q-71 -83 -130 -66q-65 19 -81 19q27 39 40 86q49 -27 85 -30q24 -3 42 4t29.5 25.5t18.5 36t16 44.5q2 7 3 10q24 72 40 166q27 164 28 171z" />
    <glyph glyph-name="lambdastroke" unicode="&#x19b;" horiz-adv-x="587" 
d="M509 582l6 -28q-53 -7 -114 -17q11 -224 34 -424q6 -46 19 -60.5t44 -14.5q35 0 50 3q3 -25 3 -26q-99 -30 -124 -30q-37 0 -49.5 18.5t-15.5 61.5q-9 108 -21 319q-141 -271 -203 -346q-21 -25 -40 -36t-54 -11q-23 0 -48 4q27 41 39 91q20 -3 34 -3q27 0 42.5 9.5
t33.5 31.5q72 79 192 321l-5 80l-117 -21l-5 28q26 3 120 18l-4 34q-5 43 -25 55.5t-67 7.5l-3 28q105 11 164 40q1 -42 5 -153q61 10 109 20z" />
    <glyph glyph-name="uni019F" unicode="&#x19f;" horiz-adv-x="723" 
d="M312 -21q-127 0 -198.5 82.5t-71.5 194.5q2 103 41 179q44 88 133.5 153t202.5 65q121 0 193.5 -83t72.5 -205q0 -116 -59 -208q-46 -75 -129.5 -126.5t-184.5 -51.5zM123 272q0 -63 20.5 -112.5t54 -78t71 -42.5t76.5 -14q70 0 117.5 27t88.5 95q42 71 51 162h-478
q-1 -13 -1 -37zM212 525q-65 -73 -83 -182h476v9q0 68 -22.5 120.5t-58 80.5t-73 41.5t-73.5 13.5q-46 0 -84 -16t-82 -67z" />
    <glyph glyph-name="uni01C4" unicode="&#x1c4;" horiz-adv-x="1287" 
d="M-28 -3l-1 26q65 9 83.5 21t30.5 52q13 46 44 205.5t43 237.5q6 36 -10 49.5t-68 25.5l9 25q34 -5 116 -5q37 0 86 2.5t94 2.5q131 0 201.5 -63.5t72.5 -167.5q0 -143 -63 -230q-129 -180 -390 -180q-18 0 -72.5 2.5t-74.5 2.5q-41 0 -101 -6zM155 63q14 -6 61.5 -12
t66.5 -6q78 -1 138 28.5t95.5 80.5t53 112t17.5 129q0 97 -60.5 152.5t-187.5 55.5q-43 0 -73 -5q-14 -49 -58.5 -264t-52.5 -271zM1153 -28q-43 23 -115 38t-130 15q-110 0 -232 -39l-13 28q60 38 153 142q40 44 164 181.5t200 221.5q-74 -29 -135 -29q-33 0 -111 14
q-41 7 -65 -10t-54 -67l-26 11q20 31 45.5 83t33.5 87q91 -44 214 -44q131 0 202 52l16 -19q-9 -8 -25 -24l-29.5 -29.5t-25.5 -26t-13 -13.5q-32 -34 -416 -466q77 22 138 22q44 0 160 -17q19 -3 34 -3q32 0 52.5 16t55.5 63l22 -14q-63 -92 -100 -173zM975 819l18 16
q44 -35 85 -59q56 23 114 59l13 -19q-96 -71 -142 -121q-29 53 -88 124z" />
    <glyph glyph-name="uni01C5" unicode="&#x1c5;" horiz-adv-x="1163" 
d="M-28 -3l-1 26q65 9 83.5 21t30.5 52q13 46 44 205.5t43 237.5q6 36 -10 49.5t-68 25.5l9 25q34 -5 116 -5q37 0 86 2.5t94 2.5q131 0 201.5 -63.5t72.5 -167.5q0 -143 -63 -230q-129 -180 -390 -180q-18 0 -72.5 2.5t-74.5 2.5q-41 0 -101 -6zM155 63q14 -6 61.5 -12
t66.5 -6q78 -1 138 28.5t95.5 80.5t53 112t17.5 129q0 97 -60.5 152.5t-187.5 55.5q-43 0 -73 -5q-14 -49 -58.5 -264t-52.5 -271zM706 -13l-12 20q62 59 173 183.5t166 178.5q-51 -12 -93 -12q-16 0 -64 4q-15 1 -28 0.5t-31.5 -15t-38.5 -44.5l-21 9q42 69 52 130
q115 -18 182 -18q78 0 127 21l13 -18q-72 -67 -196.5 -204t-143.5 -157q52 11 106 11q32 0 85 -5q28 -3 50 12.5t46 59.5l21 -8q-40 -76 -53 -140q-108 14 -192 14q-101 0 -148 -22zM871 622l18 16q44 -35 85 -59q56 23 114 59l13 -19q-96 -71 -142 -121q-29 53 -88 124z
" />
    <glyph glyph-name="uni01C6" unicode="&#x1c6;" horiz-adv-x="920" 
d="M445 620q-95 -323 -128 -522q-8 -52 48 -52q22 0 43 3l4 -21q-101 -41 -139 -41q-20 0 -30.5 13t-9.5 32q-101 -43 -126 -43q-43 0 -67.5 35.5t-19.5 93.5q11 108 58 191q16 29 50.5 62t80.5 52t90 19q9 0 35 -2q27 107 35 155q7 34 -2 46.5t-35 12.5q-7 0 -33 -2l-4 26
q140 19 180 29q-14 -30 -30 -87zM94 135q-10 -88 57 -88q26 0 87 14q14 62 43.5 177.5t37.5 149.5q-24 10 -54 12q-45 4 -75.5 -19.5t-54.5 -79.5q-32 -71 -41 -166zM463 -13l-12 20q62 59 173 183.5t166 178.5q-51 -12 -93 -12q-16 0 -64 4q-15 1 -28 0.5t-31.5 -15
t-38.5 -44.5l-21 9q42 69 52 130q115 -18 182 -18q78 0 127 21l13 -18q-72 -67 -196.5 -204t-143.5 -157q52 11 106 11q32 0 85 -5q28 -3 50 12.5t46 59.5l21 -8q-40 -76 -53 -140q-109 14 -192 14q-101 0 -148 -22zM628 622l18 16q44 -35 85 -59q56 23 114 59l13 -19
q-96 -71 -142 -121q-29 53 -88 124z" />
    <glyph glyph-name="uni01C7" unicode="&#x1c7;" horiz-adv-x="863" 
d="M253 540q-62 -262 -98 -490q72 -18 146 -18q70 0 111 26.5t90 96.5l27 -10q-42 -69 -71 -151q-175 8 -361 8h-44q-34 0 -79 -5l-4 26q68 11 85.5 24.5t28.5 55.5q39 144 89 433q7 38 -9.5 53t-75.5 25l10 25h1q77 -8 130 -8q54 0 134 8l-2 -25q-61 -11 -79.5 -23
t-28.5 -51zM655 174q41 206 65 368q6 39 -8 51.5t-75 20.5l10 25h1q77 -8 130 -8q54 0 134 8l-2 -25q-63 -12 -80.5 -22.5t-26.5 -48.5q-32 -129 -79 -388q-28 -146 -141 -253q-26 -25 -37 -34.5t-33.5 -24t-46 -18.5t-52.5 0q-42 5 -95 6q21 38 35 93q48 -21 121 -21
q53 0 78 16q32 21 61 97q21 50 41 158z" />
    <glyph glyph-name="uni01C8" unicode="&#x1c8;" horiz-adv-x="800" 
d="M253 540q-62 -262 -98 -490q72 -18 146 -18q70 0 111 26.5t90 96.5l27 -10q-42 -69 -71 -151q-175 8 -361 8h-44q-34 0 -79 -5l-4 26q68 11 85.5 24.5t28.5 55.5q39 144 89 433q7 38 -9.5 53t-75.5 25l10 25h1q77 -8 130 -8q54 0 134 8l-2 -25q-61 -11 -79.5 -23
t-28.5 -51zM414 -248q-12 3 -34 11t-38 12q27 40 38 79q28 -20 70.5 -36t62.5 -7q36 17 78 195q44 199 64 339q7 43 -39 43q-13 0 -31 -3l-6 29q68 8 171 33q-31 -124 -98 -469q-13 -64 -31.5 -100t-74.5 -82q-61 -49 -104 -49q-11 0 -28 5zM737 557q-24 -1 -34.5 13
t-9.5 31q1 19 14.5 33.5t35.5 15.5q23 1 33.5 -11.5t9.5 -30.5q-1 -19 -14 -34.5t-35 -16.5z" />
    <glyph glyph-name="uni01C9" unicode="&#x1c9;" horiz-adv-x="504" 
d="M255 710q-25 -74 -68.5 -260t-74.5 -342q-15 -72 45 -72q23 0 48 5q3 -25 3 -26q-99 -30 -138 -30q-38 0 -38 50q0 23 16 90q11 48 34 139.5t40 167.5t29 147q7 43 -9 56t-64 8l-3 28q118 10 180 39zM118 -248q-12 3 -34 11t-38 12q27 40 38 79q28 -20 70.5 -36t62.5 -7
q36 17 78 195q44 199 64 339q7 43 -39 43q-13 0 -31 -3l-6 29q68 8 171 33q-31 -124 -98 -469q-13 -64 -31.5 -100t-74.5 -82q-61 -49 -104 -49q-11 0 -28 5zM441 557q-24 -1 -34.5 13t-9.5 31q1 19 14.5 33.5t35.5 15.5q23 1 33.5 -11.5t9.5 -30.5q-1 -19 -14 -34.5
t-35 -16.5z" />
    <glyph glyph-name="uni01CA" unicode="&#x1ca;" horiz-adv-x="1048" 
d="M206 536q-9 -44 -42 -220.5t-35 -195.5q-2 -14 -2 -35q0 -31 14.5 -42.5t58.5 -19.5l-8 -26q-38 5 -112 5q-67 0 -109 -5l-2 26q64 8 84 24.5t35 77.5q29 116 85 409q7 39 -8 53t-73 26l9 26q41 -5 78 -5q28 0 76 5q9 -48 35 -94q40 -71 90.5 -151t109.5 -168.5
t83 -126.5q48 218 79 430q2 15 2 25.5t-0.5 18.5t-6.5 14l-9 9t-15 7t-18.5 5.5t-24.5 5.5l8 25q34 -6 85 -6t112 6l2 -25q-45 -7 -63.5 -25.5t-29.5 -59.5q-35 -127 -81 -401q-8 -44 -8 -71q0 -22 4 -43q-35 -13 -58 -30q-33 55 -175.5 280.5t-169.5 271.5zM840 174
q41 206 65 368q6 39 -8 51.5t-75 20.5l10 25h1q77 -8 130 -8q54 0 134 8l-2 -25q-63 -12 -80.5 -22.5t-26.5 -48.5q-32 -129 -79 -388q-28 -146 -141 -253q-26 -25 -37 -34.5t-33.5 -24t-46 -18.5t-52.5 0q-42 5 -95 6q21 38 35 93q48 -21 121 -21q53 0 78 16q32 21 61 97
q21 50 41 158z" />
    <glyph glyph-name="uni01CB" unicode="&#x1cb;" horiz-adv-x="985" 
d="M206 536q-9 -44 -42 -220.5t-35 -195.5q-2 -14 -2 -35q0 -31 14.5 -42.5t58.5 -19.5l-8 -26q-38 5 -112 5q-67 0 -109 -5l-2 26q64 8 84 24.5t35 77.5q29 116 85 409q7 39 -8 53t-73 26l9 26q41 -5 78 -5q28 0 76 5q9 -48 35 -94q40 -71 90.5 -151t109.5 -168.5
t83 -126.5q48 218 79 430q2 15 2 25.5t-0.5 18.5t-6.5 14l-9 9t-15 7t-18.5 5.5t-24.5 5.5l8 25q34 -6 85 -6t112 6l2 -25q-45 -7 -63.5 -25.5t-29.5 -59.5q-35 -127 -81 -401q-8 -44 -8 -71q0 -22 4 -43q-35 -13 -58 -30q-33 55 -175.5 280.5t-169.5 271.5zM599 -248
q-12 3 -34 11t-38 12q27 40 38 79q28 -20 70.5 -36t62.5 -7q36 17 78 195q44 199 64 339q7 43 -39 43q-13 0 -31 -3l-6 29q68 8 171 33q-31 -124 -98 -469q-13 -64 -31.5 -100t-74.5 -82q-61 -49 -104 -49q-11 0 -28 5zM922 557q-24 -1 -34.5 13t-9.5 31q1 19 14.5 33.5
t35.5 15.5q23 1 33.5 -11.5t9.5 -30.5q-1 -19 -14 -34.5t-35 -16.5z" />
    <glyph glyph-name="uni01CC" unicode="&#x1cc;" horiz-adv-x="757" 
d="M209 450l-13 -45q129 40 168 40q30 0 49 -28t12 -66q-6 -33 -27.5 -120.5t-26.5 -111.5q-5 -25 -5 -38q0 -20 9.5 -28.5t32.5 -9.5q5 0 12.5 0.5t17.5 1.5t17 1l6 -25q-111 -32 -135 -32q-46 0 -46 38q0 12 9 50q54 215 60 242q6 34 -7 50t-54 16q-48 0 -97 -10
q-15 -54 -43.5 -191.5t-27.5 -177.5q-52 0 -99 -18q58 142 93 356q4 24 -8 34.5t-41 10.5q-20 0 -32 -2l-3 27q74 7 179 36zM371 -248q-12 3 -34 11t-38 12q27 40 38 79q28 -20 70.5 -36t62.5 -7q36 17 78 195q44 199 64 339q7 43 -39 43q-13 0 -31 -3l-6 29q68 8 171 33
q-31 -124 -98 -469q-13 -64 -31.5 -100t-74.5 -82q-61 -49 -104 -49q-11 0 -28 5zM694 557q-24 -1 -34.5 13t-9.5 31q1 19 14.5 33.5t35.5 15.5q23 1 33.5 -11.5t9.5 -30.5q-1 -19 -14 -34.5t-35 -16.5z" />
    <glyph glyph-name="jcaron" unicode="&#x1f0;" horiz-adv-x="251" 
d="M80 622l18 16q44 -35 85 -59q56 23 114 59l13 -19q-96 -71 -142 -121q-29 53 -88 124zM-135 -248q-12 3 -34 11t-38 12q27 40 38 79q28 -20 70.5 -36t62.5 -7q36 17 78 195q44 199 64 339q7 43 -39 43q-13 0 -31 -3l-6 29q68 8 171 33q-31 -124 -98 -469
q-13 -64 -31.5 -100t-74.5 -82q-61 -49 -104 -49q-11 0 -28 5z" />
    <glyph glyph-name="uni01F1" unicode="&#x1f1;" horiz-adv-x="1287" 
d="M1153 -28q-43 23 -115 38t-130 15q-110 0 -232 -39l-13 28q60 38 153 142q40 44 164 181.5t200 221.5q-74 -29 -135 -29q-33 0 -111 14q-41 7 -65 -10t-54 -67l-26 11q20 31 45.5 83t33.5 87q91 -44 214 -44q131 0 202 52l16 -19q-9 -8 -25 -24l-29.5 -29.5t-25.5 -26
t-13 -13.5q-32 -34 -416 -466q77 22 138 22q44 0 160 -17q19 -3 34 -3q32 0 52.5 16t55.5 63l22 -14q-63 -92 -100 -173zM-28 -3l-1 26q65 9 83.5 21t30.5 52q13 46 44 205.5t43 237.5q6 36 -10 49.5t-68 25.5l9 25q34 -5 116 -5q37 0 86 2.5t94 2.5q131 0 201.5 -63.5
t72.5 -167.5q0 -143 -63 -230q-129 -180 -390 -180q-18 0 -72.5 2.5t-74.5 2.5q-41 0 -101 -6zM155 63q14 -6 61.5 -12t66.5 -6q78 -1 138 28.5t95.5 80.5t53 112t17.5 129q0 97 -60.5 152.5t-187.5 55.5q-43 0 -73 -5q-14 -49 -58.5 -264t-52.5 -271z" />
    <glyph glyph-name="uni01F2" unicode="&#x1f2;" horiz-adv-x="1163" 
d="M-28 -3l-1 26q65 9 83.5 21t30.5 52q13 46 44 205.5t43 237.5q6 36 -10 49.5t-68 25.5l9 25q34 -5 116 -5q37 0 86 2.5t94 2.5q131 0 201.5 -63.5t72.5 -167.5q0 -143 -63 -230q-129 -180 -390 -180q-18 0 -72.5 2.5t-74.5 2.5q-41 0 -101 -6zM155 63q14 -6 61.5 -12
t66.5 -6q78 -1 138 28.5t95.5 80.5t53 112t17.5 129q0 97 -60.5 152.5t-187.5 55.5q-43 0 -73 -5q-14 -49 -58.5 -264t-52.5 -271zM706 -13l-12 20q62 59 173 183.5t166 178.5q-51 -12 -93 -12q-16 0 -64 4q-15 1 -28 0.5t-31.5 -15t-38.5 -44.5l-21 9q42 69 52 130
q115 -18 182 -18q78 0 127 21l13 -18q-72 -67 -196.5 -204t-143.5 -157q52 11 106 11q32 0 85 -5q28 -3 50 12.5t46 59.5l21 -8q-40 -76 -53 -140q-108 14 -192 14q-101 0 -148 -22z" />
    <glyph glyph-name="uni01F3" unicode="&#x1f3;" horiz-adv-x="920" 
d="M445 620q-95 -323 -128 -522q-8 -52 48 -52q22 0 43 3l4 -21q-101 -41 -139 -41q-20 0 -30.5 13t-9.5 32q-101 -43 -126 -43q-43 0 -67.5 35.5t-19.5 93.5q11 108 58 191q16 29 50.5 62t80.5 52t90 19q9 0 35 -2q27 107 35 155q7 34 -2 46.5t-35 12.5q-7 0 -33 -2l-4 26
q140 19 180 29q-14 -30 -30 -87zM94 135q-10 -88 57 -88q26 0 87 14q14 62 43.5 177.5t37.5 149.5q-24 10 -54 12q-45 4 -75.5 -19.5t-54.5 -79.5q-32 -71 -41 -166zM463 -13l-12 20q62 59 173 183.5t166 178.5q-51 -12 -93 -12q-16 0 -64 4q-15 1 -28 0.5t-31.5 -15
t-38.5 -44.5l-21 9q42 69 52 130q115 -18 182 -18q78 0 127 21l13 -18q-72 -67 -196.5 -204t-143.5 -157q52 11 106 11q32 0 85 -5q28 -3 50 12.5t46 59.5l21 -8q-40 -76 -53 -140q-109 14 -192 14q-101 0 -148 -22z" />
    <glyph glyph-name="AEacute" unicode="&#x1fc;" horiz-adv-x="926" 
d="M819 -6q-175 8 -361 8h-44q-34 0 -79 -5l-4 26q64 17 86 35t34 59q10 39 18 78q-54 -3 -122 -3q-69 0 -115 3q-53 -61 -71 -99q-7 -15 -7 -28q0 -34 51 -45l-10 -26q-49 6 -113 6t-117 -6l-1 24q71 22 141 92q125 127 406 473q-17 13 -63 28l8 25q46 -6 144 -6
q215 0 283 13q1 -31 9.5 -78t19.5 -72l-28 -9q-16 46 -42.5 71.5t-49.5 31.5t-59 7q-6 0 -22 0.5t-26 0.5q-36 0 -63 -3q-12 -34 -54 -251q118 -2 234 37q-27 -41 -36 -99q-87 30 -204 31q-39 -185 -44 -263q72 -18 144 -18q70 0 111 26.5t90 96.5l27 -10q-42 -69 -71 -151z
M260 230q50 -5 101 -5q44 0 116 4q35 163 56 287q3 28 -2 43q-107 -128 -271 -329zM794 804q2 -37 14 -71q-123 -19 -193 -38l-6 19q132 60 185 90z" />
    <glyph glyph-name="aeacute" unicode="&#x1fd;" horiz-adv-x="595" 
d="M358 -14q-78 0 -106 53q-117 -50 -142 -50q-43 0 -66.5 35t-17.5 94q10 102 58 185q42 74 129 112q47 22 78 22q22 0 49 -9q11 -3 24.5 -7.5t20.5 -5.5q45 25 85 25q43 0 68.5 -22.5t25.5 -57.5q0 -50 -48.5 -75t-109.5 -25q-31 0 -67 9q-26 -85 -27 -147q-1 -85 81 -85
q54 0 124 16l6 -24q-127 -43 -165 -43zM154 47q35 0 89 16q-7 25 -4 51q11 116 64 215q11 21 32 45q-30 20 -63 24q-84 9 -131 -103q-35 -82 -42 -160q-11 -88 55 -88zM348 298q18 -9 62 -9q84 0 86 62q1 24 -14 37t-36 13q-36 0 -58.5 -24t-39.5 -79zM373 496l-21 16
q67 90 108 176q33 -33 60 -46q-83 -71 -147 -146z" />
    <glyph glyph-name="Oslashacute" unicode="&#x1fe;" horiz-adv-x="723" 
d="M312 -21q-109 0 -181 64q-56 -61 -63 -69l-25 21l66 71q-67 77 -67 190q2 103 41 179q44 88 133.5 153t202.5 65q103 0 174 -63q31 36 59 65l26 -22q-8 -8 -28.5 -31t-33.5 -36q69 -80 69 -201q0 -116 -59 -208q-46 -75 -129.5 -126.5t-184.5 -51.5zM563 509
q-20 -21 -166.5 -179t-215.5 -232q64 -73 164 -73q70 0 117.5 27t88.5 95q54 91 54 205q0 91 -42 157zM123 272q0 -88 39 -148l380 411q-66 73 -164 73q-46 0 -84 -16t-82 -67q-40 -46 -64.5 -113t-24.5 -140zM516 809q2 -37 14 -71q-123 -19 -193 -38l-6 19q132 60 185 90z
" />
    <glyph glyph-name="oslashacute" unicode="&#x1ff;" horiz-adv-x="445" 
d="M164 -16q-61 0 -95 34l-42 -52l-23 19q2 3 20 24t27 32q-21 38 -21 96q0 22 3 46q17 149 116 222q54 40 98 40q69 0 106 -37l39 49l23 -18l-45 -54q21 -36 21 -91q0 -20 -1 -30q-15 -171 -120 -242q-57 -38 -106 -38zM101 142q0 -15 4 -35q38 45 200 243q-27 47 -86 47
q-36 0 -58 -22t-39 -79q-23 -72 -21 -154zM315 319l-199 -242q23 -45 75 -45q49 0 68.5 22.5t38.5 83.5q19 59 21 147q0 19 -4 34zM255 496l-21 16q67 90 108 176q33 -33 60 -46q-83 -71 -147 -146z" />
    <glyph glyph-name="uni0218" unicode="&#x218;" horiz-adv-x="505" 
d="M103 -271l-18 21q40 35 50 50q14 21 14 41q0 27 -33 57q29 22 56 57q28 -25 39 -43q9 -17 9 -31q0 -29 -33 -70q-29 -38 -84 -82zM407 69q-67 -90 -167 -90q-60 0 -139 29q-126 46 -135 48q32 42 47 94q41 -30 99 -60t110 -43q34 -9 60 -9q55 0 89 42q21 27 21 61
q0 60 -58 109q-34 30 -91.5 70.5t-93.5 68.5q-47 37 -47 93q0 24 9 46q11 28 37.5 53.5t54.5 39.5q36 18 79 18q10 0 36 -2q76 -4 84 -4q23 0 32 5q4 -68 26 -143l-26 -10q-4 18 -12 33q-21 37 -56 58t-69 25q-47 6 -74 -8q-51 -26 -48 -80q4 -42 37 -69q28 -22 80 -58
t89 -65q71 -56 71 -133q0 -60 -45 -119z" />
    <glyph glyph-name="uni0219" unicode="&#x219;" horiz-adv-x="314" 
d="M31 -264l-17 21q39 34 49 49q15 24 15 42q0 26 -33 57q31 24 55 57q30 -26 39 -43t9 -32q0 -27 -33 -70q-31 -40 -84 -81zM4 12q30 53 36 81q43 -30 104 -40q42 -7 59 23q13 23 -24 73q-15 21 -50.5 58t-49.5 56q-21 29 -21 58q0 39 40 82q44 45 100 38q81 -11 95 -10
q-28 -45 -38 -81q-43 25 -82 35q-38 11 -51 -4q-9 -11 -5.5 -31t15.5 -36q12 -18 50 -58.5t45 -49.5q29 -38 29 -71q0 -34 -28 -80q-49 -80 -136 -65q-15 3 -44.5 11t-43.5 11z" />
    <glyph glyph-name="uni021A" unicode="&#x21a;" horiz-adv-x="581" 
d="M163 -257l-18 21q41 36 50 50q14 21 14 41q0 25 -33 57q29 22 56 57q29 -25 39 -44q9 -15 9 -31q0 -28 -33 -69q-33 -42 -84 -82zM224 102q42 174 101 501q-28 1 -77 1q-50 0 -81.5 -15t-49 -35.5t-49.5 -71.5l-27 11q18 26 45.5 78.5t34.5 75.5q112 -13 247 -13
q155 0 243 15q3 -68 35 -155l-26 -9q-37 77 -61.5 97.5t-84.5 21.5q-57 0 -77 -1q-48 -225 -95 -500q-4 -26 -4 -32q0 -23 18 -32.5t72 -15.5l-8 -26q-72 6 -138 6t-141 -6l-2 26q73 9 94 23.5t31 55.5z" />
    <glyph glyph-name="uni021B" unicode="&#x21b;" horiz-adv-x="293" 
d="M13 -271l-18 21q40 35 50 50q14 21 14 41q0 27 -33 57q29 22 56 57q28 -25 39 -43q9 -17 9 -31q0 -29 -33 -70q-29 -38 -84 -82zM77 -20q-45 0 -45 62q0 13 3 31q6 32 34 154.5t36 169.5q-43 0 -54 -1l-4 16q28 5 67 20q18 76 17 114q42 -1 95 14q-18 -37 -43 -131
q66 0 122 12q-17 -19 -31 -48q-62 5 -99 5q-47 -202 -57 -269q-4 -32 -4 -42q0 -24 12 -35.5t44 -10.5q17 0 55 4l5 -26q-115 -39 -153 -39z" />
    <glyph glyph-name="uni0232" unicode="&#x232;" horiz-adv-x="606" 
d="M573 549q-145 -203 -242 -377q-16 -30 -53.5 -103t-58 -110t-53.5 -79.5t-64 -59.5q-4 58 -40 98q79 34 128 91t88 145q-53 223 -113 393q-12 34 -24.5 45.5t-55.5 21.5l8 25q54 -8 99 -8q40 0 116 8l3 -25q-40 -7 -54.5 -21.5t-8.5 -43.5q22 -114 83 -305q33 57 94 153
t88 141q10 16 10 31q0 32 -63 45l8 25q50 -5 101 -5q56 0 91 5l2 -25q-30 -4 -47.5 -18t-41.5 -47zM506 721q-43 1 -125 1q-60 0 -92 -1q14 21 16 49q37 -2 108 -2t109 2q-9 -17 -16 -49z" />
    <glyph glyph-name="uni0233" unicode="&#x233;" horiz-adv-x="474" 
d="M-103 -256q32 62 36 102q55 -9 108 -9q32 1 56.5 31.5t57.5 96.5q4 162 -40 358q-8 35 -21.5 49t-35.5 14q-13 0 -41 -7l-5 26q83 19 141 49q15 -19 28 -84q34 -203 37 -297q22 41 67.5 108.5t51.5 80.5q24 48 24 93q0 24 -8 51q41 17 79 55q9 -31 9 -60q0 -41 -21 -83.5
t-70 -104.5q-115 -146 -215 -366q-36 -82 -110 -89q-97 -8 -128 -14zM410 564q-43 1 -125 1q-60 0 -92 -1q14 21 16 49q37 -2 108 -2t109 2q-9 -17 -16 -49z" />
    <glyph glyph-name="uni0237" unicode="&#x237;" horiz-adv-x="251" 
d="M-135 -248q-12 3 -34 11t-38 12q27 40 38 79q28 -20 70.5 -36t62.5 -7q36 17 78 195q44 199 64 339q7 43 -39 43q-13 0 -31 -3l-6 29q68 8 171 33q-31 -124 -98 -469q-13 -64 -31.5 -100t-74.5 -82q-61 -49 -104 -49q-11 0 -28 5z" />
    <glyph glyph-name="uni0259" unicode="&#x259;" horiz-adv-x="374" 
d="M221 440q60 0 88.5 -40.5t28.5 -98.5q0 -108 -51 -195q-29 -49 -75 -84.5t-93 -35.5q-48 0 -75.5 22.5t-27.5 57.5q0 34 28.5 58t65 33t75.5 9q38 0 65 -9q15 72 15 136q-1 45 -22 70.5t-58 25.5q-50 0 -110 -15l-6 23q118 43 152 43zM244 128q-18 9 -64 9q-94 0 -96 -62
q-3 -50 57 -50q77 0 103 103z" />
    <glyph glyph-name="lmidtilde" unicode="&#x26b;" horiz-adv-x="268" 
d="M263 710q-26 -75 -80 -308h13q21 0 43 16q10 6 31 27l19 -13q-30 -38 -66 -69q-21 -18 -42 -18h-11q-32 -142 -50 -237q-15 -72 45 -72q23 0 48 5q3 -25 3 -26q-99 -30 -138 -30q-38 0 -38 50q0 23 16 90q5 22 56 229h-9q-27 0 -47 -17q-23 -21 -30 -28l-20 14
q35 39 64 63q30 24 50 24h5q23 106 34 169q7 43 -9 56t-64 8l-3 28q118 10 180 39z" />
    <glyph glyph-name="lbelt" unicode="&#x26c;" horiz-adv-x="268" 
d="M263 710q-26 -75 -80 -308h13q21 0 43 16q10 6 31 27l19 -13q-30 -38 -66 -69q-21 -18 -42 -18h-11q-32 -142 -50 -237q-15 -72 45 -72q23 0 48 5q3 -25 3 -26q-99 -30 -138 -30q-38 0 -38 50q0 23 16 90q5 22 56 229h-9q-27 0 -47 -17q-23 -21 -30 -28l-20 14
q35 39 64 63q30 24 50 24h5q23 106 34 169q7 43 -9 56t-64 8l-3 28q118 10 180 39z" />
    <glyph glyph-name="uni0275" unicode="&#x275;" horiz-adv-x="445" 
d="M164 -16q-71 0 -102.5 42t-31.5 111q0 22 3 46q17 149 116 222q54 40 98 40q144 0 144 -151q0 -20 -1 -30q-15 -171 -120 -242q-57 -38 -106 -38zM101 142q2 -51 25.5 -80.5t64.5 -29.5q49 0 68.5 22.5t38.5 83.5q10 34 14 61h-209q-3 -32 -2 -57zM122 296
q-9 -30 -15 -63h209q0 2 3 52q1 49 -24.5 80.5t-75.5 31.5q-36 0 -58 -22t-39 -79z" />
    <glyph glyph-name="glottalstop" unicode="&#x294;" horiz-adv-x="309" 
d="M90 324q107 52 146 92q22 22 22 56q0 25 -13 50q-39 70 -140 128q37 31 56 74q12 -20 41 -45q65 -56 96 -100q23 -36 26 -63q4 -57 -23 -89q-43 -49 -146 -106q-21 -94 -43 -213q-15 -72 45 -72q23 0 48 5q3 -25 3 -26q-99 -30 -138 -30q-38 0 -38 50q0 23 16 90
q18 81 42 199z" />
    <glyph glyph-name="uni02B7" unicode="&#x2b7;" horiz-adv-x="492" 
d="M294 695q49 6 75 17q-3 -29 6 -101q19 -125 19 -141q2 4 6.5 10.5t10.5 14t9 12.5q52 65 52 127q0 21 -5 56q48 7 70 25q3 -15 3 -30q0 -59 -58 -138q-8 -12 -67 -90q-41 -59 -52 -90l-22 3q3 49 -5 99q-3 42 -14 101q-64 -91 -76 -110q-30 -46 -48 -93l-27 3q3 35 -5 99
q-9 80 -24 160q-4 19 -11.5 27.5t-18.5 9t-27 -1.5l-2 25q88 9 123 21q-2 -88 10 -170q8 -46 8 -68q14 24 47 71t44 63q-8 55 -21 89z" />
    <glyph glyph-name="circumflex" unicode="&#x2c6;" horiz-adv-x="364" 
d="M300 505l-18 -17q-35 30 -86 60q-62 -27 -113 -60l-13 19q100 74 142 121q34 -60 88 -123z" />
    <glyph glyph-name="caron" unicode="&#x2c7;" horiz-adv-x="364" 
d="M67 622l18 16q44 -35 85 -59q56 23 114 59l13 -19q-96 -71 -142 -121q-29 53 -88 124z" />
    <glyph glyph-name="uni02C9" unicode="&#x2c9;" horiz-adv-x="364" 
d="M290 564q-43 1 -125 1q-60 0 -92 -1q14 21 16 49q37 -2 108 -2t109 2q-9 -17 -16 -49z" />
    <glyph glyph-name="breve" unicode="&#x2d8;" horiz-adv-x="364" 
d="M271 623l22 -8q-29 -61 -56 -86.5t-75 -24.5q-46 0 -67 29t-24 85l22 6q9 -35 27.5 -47.5t52.5 -13.5q36 0 57 13t41 47z" />
    <glyph glyph-name="dotaccent" unicode="&#x2d9;" horiz-adv-x="364" 
d="M180 557q-24 -1 -35 12.5t-10 31.5q1 19 14.5 33.5t35.5 15.5q23 1 34 -11.5t10 -30.5q-1 -19 -14.5 -34.5t-34.5 -16.5z" />
    <glyph glyph-name="ring" unicode="&#x2da;" horiz-adv-x="364" 
d="M108 561q5 33 30 53.5t55 20.5q33 0 50.5 -21t12.5 -53q-5 -36 -29.5 -56t-56.5 -20q-31 0 -49.5 20.5t-12.5 55.5zM140 559q-2 -21 7 -33.5t27 -12.5q21 0 34 12.5t16 34.5q3 20 -6.5 34t-29.5 14q-41 0 -48 -49z" />
    <glyph glyph-name="ogonek" unicode="&#x2db;" horiz-adv-x="364" 
d="M262 -135l8 -18q-19 -11 -67 -34q-31 -13 -50 -13q-20 0 -35 12q-28 21 -25 58q2 21 9.5 34.5t27.5 32.5q5 6 100 88l20 -17q-31 -27 -43 -38.5t-28.5 -32.5t-18.5 -38q-4 -21 7 -33t34 -12q33 0 61 11z" />
    <glyph glyph-name="tilde" unicode="&#x2dc;" horiz-adv-x="394" 
d="M290 609q16 11 30 27l19 -13q-35 -45 -69 -74q-20 -17 -43 -17q-16 0 -39 4q-20 4 -38 4q-26 0 -45 -16q-27 -24 -31 -29l-19 14q36 44 65 68q30 24 51 24q10 0 40 -5q22 -3 35 -3q22 0 44 16z" />
    <glyph glyph-name="hungarumlaut" unicode="&#x2dd;" horiz-adv-x="364" 
d="M126 675q28 -20 71 -29q-64 -73 -123 -169l-21 11q54 108 73 187zM240 673q29 -22 70 -29q-72 -87 -121 -169l-22 10q54 110 73 188z" />
    <glyph glyph-name="uni030C" unicode="&#x30c;" horiz-adv-x="0" 
d="M-288 622l18 16q44 -35 85 -59q56 23 114 59l13 -19q-96 -71 -142 -121q-29 53 -88 124z" />
    <glyph glyph-name="uni0313" unicode="&#x313;" horiz-adv-x="0" 
d="M-186 499l-16 21q25 21 40 40t15 39q0 26 -33 57q29 22 54 56q26 -23 37 -44q8 -13 8 -31q0 -33 -29 -66q-30 -37 -76 -72z" />
    <glyph glyph-name="uni0315" unicode="&#x315;" horiz-adv-x="364" 
d="M137 499l-16 21q28 23 40 40q15 21 15 39q0 26 -33 57q31 25 53 56q23 -20 38 -44q8 -16 8 -31q0 -29 -29 -66q-30 -37 -76 -72z" />
    <glyph glyph-name="uni0374" unicode="&#x374;" horiz-adv-x="174" 
d="M132 663q32 -22 89 -47q-72 -71 -154 -189l-24 13q61 121 89 223z" />
    <glyph glyph-name="uni0375" unicode="&#x375;" horiz-adv-x="174" 
d="M33 -112q-32 22 -89 47q69 66 154 189l24 -13q-61 -121 -89 -223z" />
    <glyph glyph-name="uni037A" unicode="&#x37a;" horiz-adv-x="364" 
d="M123 -141q2 30 15 86q34 -18 67 -20q-22 -48 -26 -65q-5 -17 -1.5 -23t15.5 -2q21 7 36 15l13 -14q-17 -16 -44 -35q-18 -13 -31 -13q-14 0 -29 12q-19 18 -15 59z" />
    <glyph glyph-name="uni037B" unicode="&#x37b;" horiz-adv-x="403" 
d="M343 282q-3 50 -60 76q-31 14 -75 14q-71 0 -129 -31l-16 19q53 50 115 73q30 10 56 10q42 0 75.5 -20.5t50.5 -60.5q19 -48 19 -98q0 -22 -5 -47q-21 -97 -98.5 -163t-162.5 -66q-52 0 -95 15q10 38 10 75q43 -13 81 -13q94 0 166.5 71.5t67.5 145.5z" />
    <glyph glyph-name="uni037C" unicode="&#x37c;" horiz-adv-x="403" 
d="M57 147q3 -50 60 -76q31 -14 75 -14q71 0 129 31l16 -19q-53 -50 -115 -73q-30 -10 -56 -10q-42 0 -75.5 20.5t-50.5 60.5q-19 47 -19 98q0 22 5 47q21 97 98.5 163t162.5 66q52 0 95 -15q-10 -38 -10 -75q-43 13 -81 13q-94 0 -166.5 -71.5t-67.5 -145.5zM242 164
q-23 -1 -33.5 12t-9.5 30q1 19 14 33t35 15t32.5 -11.5t9.5 -28.5q-1 -20 -13.5 -34.5t-34.5 -15.5z" />
    <glyph glyph-name="uni037D" unicode="&#x37d;" horiz-adv-x="403" 
d="M343 282q-3 50 -60 76q-31 14 -75 14q-71 0 -129 -31l-16 19q53 50 115 73q30 10 56 10q42 0 75.5 -20.5t50.5 -60.5q19 -48 19 -98q0 -22 -5 -47q-21 -97 -98.5 -163t-162.5 -66q-52 0 -95 15q10 38 10 75q43 -13 81 -13q94 0 166.5 71.5t67.5 145.5zM158 265
q23 1 33.5 -12t9.5 -30q-1 -19 -14 -33t-35 -15t-32.5 11.5t-9.5 28.5q1 20 13.5 34.5t34.5 15.5z" />
    <glyph glyph-name="uni037E" unicode="&#x37e;" horiz-adv-x="218" 
d="M133 343q-24 -1 -35 12.5t-10 30.5q1 20 14.5 34t35.5 15q24 1 34.5 -11t9.5 -30q-1 -20 -13.5 -35t-35.5 -16zM-31 -178l-16 23q47 43 69 75q16 26 16 50q0 37 -37 66q38 32 63 65q23 -21 42 -50q11 -19 11 -37q0 -38 -38 -82q-30 -39 -110 -110z" />
    <glyph glyph-name="tonos" unicode="&#x384;" horiz-adv-x="364" 
d="M119 498l-21 15q66 89 108 177q32 -34 60 -47q-87 -74 -147 -145z" />
    <glyph glyph-name="dieresistonos" unicode="&#x385;" horiz-adv-x="364" 
d="M84 503q-20 -1 -29 10.5t-9 26.5q1 16 12.5 28.5t31.5 13.5q19 1 28 -9.5t8 -26.5q0 -17 -11.5 -29.5t-30.5 -13.5zM273 503q-20 -1 -29 10.5t-9 26.5q0 16 12 28.5t31 13.5t28 -9.5t9 -26.5q0 -17 -11.5 -29.5t-30.5 -13.5zM191 692q44 -11 86 -13q-64 -85 -104 -179
l-23 7q27 86 41 185z" />
    <glyph glyph-name="Alphatonos" unicode="&#x386;" horiz-adv-x="709" 
d="M171 464l-21 15q66 89 108 177q32 -34 60 -47q-87 -74 -147 -145zM391 -3l3 26q24 5 34 7t26 7.5t22 12t10.5 17t3.5 24.5q-3 37 -16 104q-60 -3 -131 -3q-72 0 -132 3q-32 -50 -51 -99q-7 -21 -7 -29q0 -15 15 -24.5t53 -19.5l-8 -26q-51 6 -115 6t-117 -6q0 25 -1 24
q49 12 68.5 23.5t43.5 42.5q120 161 266 426q35 61 31 112q49 10 83 27q0 -26 9 -83q37 -232 97 -478q8 -30 23 -43t57 -25l-8 -26q-50 7 -118 7q-66 0 -141 -7zM231 228q47 -4 107 -4q57 0 130 5q-34 185 -61 305q-29 -48 -88.5 -153.5t-87.5 -152.5z" />
    <glyph glyph-name="anoteleia" unicode="&#x387;" horiz-adv-x="178" 
d="M78 247q-25 -1 -36 13t-10 32q1 20 15 35t37 16q24 1 35 -12t10 -31q-1 -21 -14.5 -36.5t-36.5 -16.5z" />
    <glyph glyph-name="Epsilontonos" unicode="&#x388;" horiz-adv-x="746" 
d="M639 -6q-175 8 -361 8h-44q-34 0 -79 -5l-4 26q71 14 86.5 23.5t27.5 48.5t45 195.5t46 239.5q5 36 -12 52.5t-76 31.5l8 25q46 -6 144 -6q215 0 283 13q1 -31 9.5 -78t19.5 -72l-28 -9q-16 46 -42.5 71.5t-49.5 31.5t-59 7q-6 0 -21.5 0.5t-25.5 0.5q-35 0 -64 -3
q-12 -33 -54 -252q117 -2 235 37q-28 -40 -37 -99q-87 30 -203 31q-7 -27 -24.5 -119.5t-20.5 -142.5q72 -18 144 -18q70 0 111 26.5t90 96.5l27 -10q-42 -69 -71 -151zM92 464l-21 15q66 89 108 177q32 -34 60 -47q-87 -74 -147 -145z" />
    <glyph glyph-name="Etatonos" unicode="&#x389;" horiz-adv-x="938" 
d="M269 614l10 25q70 -7 135 -7q61 0 130 7l-2 -25q-61 -7 -80 -20.5t-28 -53.5q-22 -84 -40 -176q84 -3 186 -3q100 0 187 3q22 118 31 171q6 40 -8 54t-75 25l9 25q71 -7 135 -7q60 0 129 7l-1 -25q-61 -7 -79.5 -20.5t-29.5 -53.5q-45 -179 -90 -440q-7 -41 7 -54t76 -23
l-7 -26q-74 6 -134 6t-134 -6v26q65 8 84 21t29 52q31 123 51 231q-114 2 -187 2t-187 -2q-12 -61 -43 -227q-7 -41 7 -54t76 -23l-8 -26q-72 6 -132 6q-62 0 -135 -6l-1 26q66 8 85 21t30 52q43 174 88 439q7 39 -7.5 53.5t-76.5 25.5zM92 464l-21 15q66 89 108 177
q32 -34 60 -47q-87 -74 -147 -145z" />
    <glyph glyph-name="Iotatonos" unicode="&#x38a;" horiz-adv-x="495" 
d="M269 614l10 25q70 -7 135 -7q61 0 130 7l-2 -25q-61 -7 -80 -20.5t-28 -53.5q-45 -171 -91 -440q-7 -41 7 -54t76 -23l-8 -26q-72 6 -132 6q-62 0 -135 -6l-1 26q66 8 85 21t30 52q43 174 88 439q7 39 -7.5 53.5t-76.5 25.5zM92 464l-21 15q66 89 108 177q32 -34 60 -47
q-87 -74 -147 -145z" />
    <glyph glyph-name="Omicrontonos" unicode="&#x38c;" horiz-adv-x="827" 
d="M416 -21q-127 0 -198.5 82.5t-71.5 194.5q2 103 41 179q44 88 133.5 153t202.5 65q121 0 193.5 -83t72.5 -205q0 -116 -59 -208q-46 -75 -129.5 -126.5t-184.5 -51.5zM227 272q0 -63 20.5 -112.5t54 -78t71 -42.5t76.5 -14q70 0 117.5 27t88.5 95q54 91 54 205
q0 68 -22.5 120.5t-58 80.5t-73 41.5t-73.5 13.5q-46 0 -84 -16t-82 -67q-40 -46 -64.5 -113t-24.5 -140zM92 464l-21 15q66 89 108 177q32 -34 60 -47q-87 -74 -147 -145z" />
    </font>
</defs>
</svg>
